<?xml version="1.0" standalone="no"?>
<!DOCTYPE svg PUBLIC "-//W3C//DTD SVG 1.1//EN" "http://www.w3.org/Graphics/SVG/1.1/DTD/svg11.dtd" >
<svg xmlns="http://www.w3.org/2000/svg" xmlns:xlink="http://www.w3.org/1999/xlink" version="1.1">
<metadata>
Created by FontForge 20190801 at Thu Nov  2 21:39:32 2017
 By www-data
Copyright (c) Datto, Inc. All rights reserved.
</metadata>
<defs>
<font id="DDINCondensed" horiz-adv-x="478" >
  <font-face 
    font-family="DDINCondensed"
    font-weight="400"
    font-stretch="condensed"
    units-per-em="1000"
    panose-1="2 11 5 6 3 2 2 3 2 4"
    ascent="831"
    descent="-169"
    x-height="517"
    cap-height="690"
    bbox="-130 -168 937 892"
    underline-thickness="50"
    underline-position="-150"
    unicode-range="U+000D-FB02"
  />
<missing-glyph horiz-adv-x="600" 
d="M101 690h397v-690h-397v690zM464 34v622h-329v-622h329z" />
    <glyph glyph-name="fi" unicode="fi" horiz-adv-x="487" 
d="M185 619q-16 -17 -16 -55v-47h89v-53h-89v-464h-68v464h-62v53h62v38q0 66 33.5 100.5t97.5 34.5h26v-54h-20q-37 0 -53 -17zM353 517h68v-517h-68v517zM353 689h69v-90h-69v90z" />
    <glyph glyph-name="fl" unicode="fl" horiz-adv-x="522" 
d="M185 619q-16 -17 -16 -55v-47h89v-53h-89v-464h-68v464h-62v53h62v38q0 66 33.5 100.5t97.5 34.5h26v-54h-20q-37 0 -53 -17zM382.5 35q-35.5 35 -35.5 102v553h69v-550q0 -79 71 -79h15v-61h-17q-67 0 -102.5 35z" />
    <glyph glyph-name=".notdef" horiz-adv-x="600" 
d="M101 690h397v-690h-397v690zM464 34v622h-329v-622h329z" />
    <glyph glyph-name=".null" horiz-adv-x="0" 
 />
    <glyph glyph-name="nonmarkingreturn" unicode="&#xd;" horiz-adv-x="175" 
 />
    <glyph glyph-name="space" unicode=" " horiz-adv-x="175" 
 />
    <glyph glyph-name="exclam" unicode="!" horiz-adv-x="204" 
d="M59 690h86l-15 -494h-57zM63 97h78v-97h-78v97z" />
    <glyph glyph-name="quotedbl" unicode="&#x22;" horiz-adv-x="280" 
d="M41 690h68v-232h-68v232zM171 690h68v-232h-68v232z" />
    <glyph glyph-name="numbersign" unicode="#" horiz-adv-x="462" 
d="M361 426l-16 -143h77v-60h-84l-25 -223h-65l25 223h-118l-25 -223h-65l25 223h-70v60h76l16 143h-71v60h78l22 204h66l-23 -204h118l22 204h66l-23 -204h75v-60h-81zM295 426h-117l-16 -143h117z" />
    <glyph glyph-name="dollar" unicode="$" horiz-adv-x="372" 
d="M304.5 79.5q-31.5 -43.5 -92.5 -52.5v-99h-53v98q-127 10 -133 169h69q5 -93 64 -109v233l-11 5q-66 28 -93 66t-27 100q0 76 35.5 119t95.5 50v94h53v-95q108 -17 117 -168h-62q-3 87 -55 104v-217q64 -27 94 -69.5t30 -110.5q0 -74 -31.5 -117.5zM110.5 437.5
q15.5 -23.5 48.5 -39.5v199q-31 -7 -47.5 -32t-16.5 -65q0 -39 15.5 -62.5zM269 188q0 41 -13.5 65t-43.5 41v-207q57 17 57 101zM58 690z" />
    <glyph glyph-name="percent" unicode="%" horiz-adv-x="691" 
d="M58.5 295.5q-25.5 31.5 -25.5 95.5v181q0 63 26 94t79 31q54 0 79.5 -31t25.5 -94v-181q0 -64 -25.5 -95.5t-79.5 -31.5t-79.5 31.5zM439 690h63l-248 -690h-63zM166 341q8 15 8 50v181q0 34 -8 48.5t-28 14.5t-28 -14.5t-8 -48.5v-181q0 -35 8 -50t28 -15t28 15z
M474.5 23.5q-25.5 31.5 -25.5 95.5v181q0 63 26 94t79 31q54 0 79.5 -31t25.5 -94v-181q0 -64 -25.5 -95.5t-79.5 -31.5t-79.5 31.5zM582 69q8 15 8 50v181q0 34 -8 48.5t-28 14.5t-28 -14.5t-8 -48.5v-181q0 -35 8 -50t28 -15t28 15z" />
    <glyph glyph-name="ampersand" unicode="&#x26;" horiz-adv-x="519" 
d="M469 67v-68h-33q-25 0 -39 9.5t-29 35.5l-20 33q-31 -46 -67.5 -66.5t-83.5 -20.5q-68 0 -107.5 43t-39.5 114q0 52 28.5 104t93.5 124l-5 8q-41 69 -57 106.5t-16 72.5q0 62 38 100t97 38q60 0 97.5 -38t37.5 -100q0 -45 -23 -88.5t-82 -106.5l94 -160l54 90l54 -35
l-71 -117l28 -48q10 -17 18.5 -23.5t21.5 -6.5h11zM184 618q-17 -20 -17 -54q0 -22 11 -50.5t44 -83.5q41 47 55.5 75t14.5 59q0 35 -16.5 54.5t-45.5 19.5t-46 -20zM257 76.5q25 17.5 54 62.5l-102 174q-47 -52 -66.5 -88.5t-19.5 -73.5q0 -44 21.5 -68t58.5 -24
q29 0 54 17.5z" />
    <glyph glyph-name="quotesingle" unicode="'" horiz-adv-x="150" 
d="M41 690h68v-232h-68v232z" />
    <glyph glyph-name="parenleft" unicode="(" horiz-adv-x="259" 
d="M75.5 118q-25.5 105 -25.5 210q0 106 25.5 211t74.5 201h59q-44 -99 -67 -204t-23 -208t23 -208.5t67 -203.5h-59q-49 97 -74.5 202z" />
    <glyph glyph-name="parenright" unicode=")" horiz-adv-x="259" 
d="M117 119.5q23 105.5 23 208.5t-23 208t-67 204h59q49 -96 74.5 -201t25.5 -211q0 -105 -25.5 -210t-74.5 -202h-59q44 98 67 203.5z" />
    <glyph glyph-name="asterisk" unicode="*" horiz-adv-x="348" 
d="M275 468l-76 44v-103h-50v103l-76 -44l-23 39l78 45l-78 45l23 40l76 -44v97h50v-98l76 44l22 -39l-78 -45l79 -45z" />
    <glyph glyph-name="plus" unicode="+" horiz-adv-x="420" 
d="M381 243h-138v-137h-65v137h-138v66h138v137h65v-137h138v-66z" />
    <glyph glyph-name="comma" unicode="," horiz-adv-x="150" 
d="M41 93h68v-175l-68 -59v234z" />
    <glyph glyph-name="hyphen" unicode="-" horiz-adv-x="375" 
d="M50 380h275v-65h-275v65z" />
    <glyph glyph-name="period" unicode="." horiz-adv-x="160" 
d="M41 89h78v-89h-78v89z" />
    <glyph glyph-name="slash" unicode="/" horiz-adv-x="296" 
d="M181 690h65l-131 -700h-65z" />
    <glyph glyph-name="zero" unicode="0" horiz-adv-x="403" 
d="M52 174v343q0 182 150 182q149 0 149 -182v-343q0 -183 -149 -183q-150 0 -150 183zM261.5 85q16.5 29 16.5 100v320q0 71 -16.5 100t-59.5 29t-60 -29t-17 -100v-320q0 -71 17 -100t60 -29t59.5 29z" />
    <glyph glyph-name="one" unicode="1" horiz-adv-x="274" 
d="M141 605l-102 -80v85l102 80h67v-690h-67v605z" />
    <glyph glyph-name="two" unicode="2" horiz-adv-x="392" 
d="M47 58l191 339q17 29 25.5 56.5t8.5 61.5v28q0 44 -19.5 67.5t-59.5 23.5q-34 0 -54 -23.5t-20 -66.5v-40h-72v47q0 68 40 108t109 40t109 -40t40 -107v-37q0 -43 -11 -77t-35 -75l-168 -298h211v-65h-295v58z" />
    <glyph glyph-name="three" unicode="3" horiz-adv-x="405" 
d="M86 29q-39 38 -39 107v44h72v-38q0 -41 21 -63.5t59 -22.5q40 0 60.5 24t20.5 68v77q0 50 -20 75.5t-65 25.5h-29v65h29q44 0 63 24.5t19 72.5v54q0 45 -20.5 68.5t-58.5 23.5q-37 0 -57 -22.5t-20 -63.5v-40h-72v41q0 71 39 110.5t112 39.5q72 0 110.5 -39t38.5 -110
v-59q0 -50 -16.5 -80.5t-55.5 -48.5q43 -20 59.5 -52t16.5 -86v-73q0 -77 -40 -118.5t-115 -41.5q-73 0 -112 38z" />
    <glyph glyph-name="four" unicode="4" horiz-adv-x="416" 
d="M380 139h-61v-139h-73v139h-210v65l145 486h73l-147 -486h139v181h73v-181h61v-65z" />
    <glyph glyph-name="five" unicode="5" horiz-adv-x="398" 
d="M89.5 30.5q-37.5 39.5 -37.5 115.5v18h69v-17q0 -91 76 -91q39 0 57.5 24t18.5 75v124q0 51 -18 75t-57 24q-50 0 -76 -49h-62v361h280v-68h-212v-212q14 15 35.5 24t48.5 9q134 0 134 -163v-122q0 -167 -148 -167q-71 0 -108.5 39.5z" />
    <glyph glyph-name="six" unicode="6" horiz-adv-x="395" 
d="M87.5 34q-40.5 43 -40.5 117v100q0 42 7 71.5t25 72.5l124 295h73l-121 -292q8 6 23 10t32 4q64 0 101 -40t37 -110v-113q0 -73 -41 -115.5t-109 -42.5q-70 0 -110.5 43zM255 80q20 24 20 68v108q0 44 -20 68t-57 24t-57.5 -23t-20.5 -65v-111q0 -45 20 -69t58 -24
q37 0 57 24z" />
    <glyph glyph-name="seven" unicode="7" horiz-adv-x="361" 
d="M330 690v-65l-186 -625h-73l187 625h-227v65h299z" />
    <glyph glyph-name="eight" unicode="8" horiz-adv-x="403" 
d="M91.5 34q-39.5 43 -39.5 119v76q0 96 69 133q-31 17 -48 49.5t-17 73.5v64q0 68 39.5 109t105.5 41q67 0 106.5 -41t39.5 -109v-64q0 -42 -17 -74.5t-48 -48.5q69 -37 69 -133v-76q0 -76 -39.5 -119t-110.5 -43q-70 0 -109.5 43zM260.5 417q19.5 25 19.5 68v64
q0 41 -21 64.5t-58 23.5t-57.5 -24t-20.5 -64v-64q0 -44 20 -68.5t58 -24.5q40 0 59.5 25zM284 155v75q0 101 -83 101q-42 0 -62 -27t-20 -74v-75q0 -48 20 -75t62 -27q83 0 83 102z" />
    <glyph glyph-name="nine" unicode="9" horiz-adv-x="395" 
d="M241 292q-8 -6 -23.5 -10t-32.5 -4q-64 0 -101 40t-37 110v113q0 74 41 116t110 42q70 0 110 -43t40 -117v-100q0 -42 -7 -71.5t-25 -72.5l-124 -295h-73zM255 365q20 23 20 65v111q0 45 -20 69t-57 24q-38 0 -58 -24t-20 -68v-108q0 -44 20 -68t58 -24q37 0 57 23z" />
    <glyph glyph-name="colon" unicode=":" horiz-adv-x="160" 
d="M41 89h78v-89h-78v89zM41 427h78v-89h-78v89z" />
    <glyph glyph-name="semicolon" unicode=";" horiz-adv-x="160" 
d="M49 93h68v-175l-68 -59v234zM41 427h78v-89h-78v89z" />
    <glyph glyph-name="less" unicode="&#x3c;" horiz-adv-x="420" 
d="M40 244v64l341 139v-67l-258 -104l258 -104v-67z" />
    <glyph glyph-name="equal" unicode="=" horiz-adv-x="420" 
d="M40 401h341v-65h-341v65zM40 215h341v-66h-341v66z" />
    <glyph glyph-name="greater" unicode="&#x3e;" horiz-adv-x="420" 
d="M40 172l258 104l-258 104v67l341 -139v-64l-341 -139v67z" />
    <glyph glyph-name="question" unicode="?" horiz-adv-x="363" 
d="M142 246q0 33 6.5 55.5t28.5 60.5l42 70q19 32 26.5 54t7.5 53q0 96 -74 96q-43 0 -59.5 -29t-16.5 -94h-73q0 188 148 188q72 0 110 -43t38 -118q0 -37 -10.5 -66t-38.5 -78l-37 -62q-16 -27 -20.5 -45t-4.5 -47v-63h-73v68zM139 97h78v-97h-78v97z" />
    <glyph glyph-name="at" unicode="@" horiz-adv-x="734" 
d="M197.5 -86.5q-71.5 41.5 -109.5 117t-38 177.5v154q0 99 39 174t110.5 115.5t166.5 40.5q94 0 166.5 -40.5t112 -113.5t39.5 -167v-155q0 -79 -33.5 -119.5t-94.5 -40.5q-38 0 -66 17t-41 48q-14 -33 -38.5 -49t-64.5 -16q-59 0 -86 38.5t-27 110.5v147q0 71 26 108.5
t85 37.5q58 0 86 -46v38h68v-304q0 -34 16.5 -52t42.5 -18q33 0 47.5 23.5t14.5 69.5v161q0 120 -67.5 190.5t-185.5 70.5q-119 0 -184.5 -71t-65.5 -198v-153q0 -130 65.5 -203t184.5 -73q54 0 95 12t80 39l32 -50q-47 -32 -97 -47t-110 -15q-97 0 -168.5 41.5z
M415.5 141.5q14.5 23.5 14.5 65.5v143q0 42 -15 64t-50 22t-49 -22t-14 -63v-145q0 -43 14.5 -65.5t48.5 -22.5q36 0 50.5 23.5z" />
    <glyph glyph-name="A" unicode="A" horiz-adv-x="461" 
d="M331 176h-202l-44 -176h-76l188 690h67l188 -690h-77zM315 239l-85 341l-85 -341h170z" />
    <glyph glyph-name="B" unicode="B" horiz-adv-x="470" 
d="M418 190q0 -94 -43.5 -142t-137.5 -48h-177v690h176q92 0 133.5 -44.5t41.5 -135.5q0 -118 -91 -152q98 -27 98 -168zM133 625v-235h97q108 0 108 116q0 64 -25.5 91.5t-81.5 27.5h-98zM318 97q27 32 27 98q0 130 -114 130h-98v-260h98q60 0 87 32z" />
    <glyph glyph-name="C" unicode="C" 
d="M104 44.5q-52 52.5 -52 156.5v288q0 105 51.5 157.5t136.5 52.5q82 0 134 -50t52 -151v-9h-73v7q0 71 -30.5 104t-81.5 33q-58 0 -87 -36.5t-29 -114.5v-282q0 -142 116 -142q52 0 82 33t30 101v9h71v-10q0 -100 -51 -149.5t-132 -49.5q-85 0 -137 52.5z" />
    <glyph glyph-name="D" unicode="D" horiz-adv-x="477" 
d="M60 690h179q84 0 135 -52t51 -157v-272q0 -104 -51 -156.5t-135 -52.5h-179v690zM239 65q54 0 83.5 36t29.5 107v266q0 76 -29 113.5t-84 37.5h-106v-560h106z" />
    <glyph glyph-name="E" unicode="E" horiz-adv-x="403" 
d="M132 625v-241h202v-66h-202v-253h235v-65h-307v690h307v-65h-235z" />
    <glyph glyph-name="F" unicode="F" horiz-adv-x="397" 
d="M133 625v-244h202v-66h-202v-315h-73v690h307v-65h-234z" />
    <glyph glyph-name="G" unicode="G" 
d="M103.5 44.5q-51.5 52.5 -51.5 156.5v288q0 105 51.5 157.5t136.5 52.5q83 0 134.5 -49.5t51.5 -141.5v-12h-73v12q0 60 -30.5 92.5t-82.5 32.5q-115 0 -115 -151v-282q0 -142 115 -142q55 0 84 34.5t29 104.5v96h-114v61h187v-154q0 -104 -51 -156t-135 -52
q-85 0 -136.5 52.5z" />
    <glyph glyph-name="H" unicode="H" 
d="M418 690v-690h-73v319h-212v-319h-73v690h73v-306h212v306h73z" />
    <glyph glyph-name="I" unicode="I" horiz-adv-x="204" 
d="M66 690h72v-690h-72v690z" />
    <glyph glyph-name="J" unicode="J" horiz-adv-x="263" 
d="M24 65h29q35 0 53 20.5t18 59.5v545h73v-553q0 -67 -35.5 -102t-102.5 -35h-35v65z" />
    <glyph glyph-name="K" unicode="K" horiz-adv-x="461" 
d="M221 335l-88 -150v-185h-73v690h73v-384l221 384h77l-166 -281l190 -409h-80z" />
    <glyph glyph-name="L" unicode="L" horiz-adv-x="391" 
d="M60 690h73v-625h234v-65h-307v690z" />
    <glyph glyph-name="M" unicode="M" horiz-adv-x="598" 
d="M538 690v-690h-73v530l-142 -370h-48l-142 367v-527h-73v690h73l167 -426l165 426h73z" />
    <glyph glyph-name="N" unicode="N" horiz-adv-x="502" 
d="M442 690v-690h-73l-236 530v-530h-73v690h73l236 -531v531h73z" />
    <glyph glyph-name="O" unicode="O" 
d="M103 44.5q-51 52.5 -51 156.5v288q0 106 51 158t136 52t136 -52t51 -158v-288q0 -104 -51.5 -156.5t-135.5 -52.5q-85 0 -136 52.5zM323.5 93.5q29.5 35.5 29.5 106.5v282q0 76 -29 113.5t-84 37.5q-58 0 -86.5 -37t-28.5 -114v-282q0 -142 115 -142q54 0 83.5 35.5z" />
    <glyph glyph-name="P" unicode="P" horiz-adv-x="440" 
d="M373.5 639.5q42.5 -50.5 42.5 -150.5q0 -197 -177 -197h-106v-292h-73v690h179q92 0 134.5 -50.5zM317.5 388q26.5 31 26.5 101q0 72 -26.5 104t-82.5 32h-102v-268h102q56 0 82.5 31z" />
    <glyph glyph-name="Q" unicode="Q" 
d="M403 85.5q-23 -46.5 -65 -69.5l56 -135l-60 -24l-57 138q-18 -3 -38 -3q-85 0 -136 52.5t-51 156.5v288q0 106 51 158t136 52t136 -52t51 -158v-288q0 -69 -23 -115.5zM353 482q0 76 -29 113.5t-84 37.5q-58 0 -86.5 -37t-28.5 -114v-282q0 -142 115 -142q54 0 83.5 35.5
t29.5 106.5v282z" />
    <glyph glyph-name="R" unicode="R" horiz-adv-x="466" 
d="M244 302h-111v-302h-73v690h182q91 0 132.5 -48t41.5 -147q0 -148 -102 -182l122 -313h-78zM133 366h108q53 0 77.5 32.5t24.5 96.5q0 65 -23.5 97.5t-78.5 32.5h-108v-259z" />
    <glyph glyph-name="S" unicode="S" horiz-adv-x="426" 
d="M73.5 43q-45.5 50 -47.5 146h71q3 -70 31.5 -100.5t81.5 -30.5q54 0 80.5 30.5t26.5 93.5q0 55 -23.5 83t-84.5 53l-40 16q-68 27 -102 69t-34 113q0 84 47.5 134t130.5 50q79 0 125 -46.5t50 -139.5h-69q-7 121 -107 121q-52 0 -78 -30t-26 -85q0 -49 23.5 -77t80.5 -50
l41 -16q69 -27 104 -71t35 -123q0 -91 -47 -140.5t-136 -49.5q-88 0 -133.5 50z" />
    <glyph glyph-name="T" unicode="T" horiz-adv-x="368" 
d="M362 625h-142v-625h-72v625h-142v65h356v-65z" />
    <glyph glyph-name="U" unicode="U" horiz-adv-x="480" 
d="M147 15q-41 23 -64 65t-23 96v514h73v-510q0 -59 28.5 -90.5t78.5 -31.5t78.5 32t28.5 90v510h73v-514q0 -83 -50 -133.5t-130 -50.5q-52 0 -93 23z" />
    <glyph glyph-name="V" unicode="V" horiz-adv-x="423" 
d="M9 690h78l125 -576l124 576h78l-167 -690h-70z" />
    <glyph glyph-name="W" unicode="W" horiz-adv-x="655" 
d="M646 690l-134 -690h-78l-106 582l-105 -582h-78l-136 690h76l100 -580l97 580h96l98 -580l98 580h72z" />
    <glyph glyph-name="X" unicode="X" horiz-adv-x="416" 
d="M166 358l-144 332h82l105 -259l103 259h82l-145 -331l158 -359h-83l-116 286l-117 -286h-82z" />
    <glyph glyph-name="Y" unicode="Y" horiz-adv-x="392" 
d="M232 287v-287h-72v287l-151 403h80l107 -316l107 316h80z" />
    <glyph glyph-name="Z" unicode="Z" horiz-adv-x="385" 
d="M358 65v-65h-328v65l249 560h-238v65h310v-65l-250 -560h257z" />
    <glyph glyph-name="bracketleft" unicode="[" horiz-adv-x="253" 
d="M60 740h143v-65h-74v-694h74v-65h-143v824z" />
    <glyph glyph-name="backslash" unicode="\" horiz-adv-x="296" 
d="M50 690h65l131 -700h-65z" />
    <glyph glyph-name="bracketright" unicode="]" horiz-adv-x="252" 
d="M50 -19h73v694h-73v65h142v-824h-142v65z" />
    <glyph glyph-name="asciicircum" unicode="^" horiz-adv-x="420" 
d="M177 690h65l142 -410h-66l-108 320l-109 -320h-65z" />
    <glyph glyph-name="underscore" unicode="_" horiz-adv-x="416" 
d="M0 -54h416v-50h-416v50z" />
    <glyph glyph-name="grave" unicode="`" horiz-adv-x="501" 
d="M269 576l-109 129h74l91 -129h-56z" />
    <glyph glyph-name="a" unicode="a" horiz-adv-x="401" 
d="M304 485.5q38 -39.5 38 -110.5v-375h-65v48q-35 -56 -105 -56q-64 0 -98 40.5t-34 113.5q0 70 39.5 109.5t114.5 39.5h80v83q0 87 -80 87q-37 0 -57 -20t-20 -56v-8h-64v9q0 63 38.5 99t102.5 36q72 0 110 -39.5zM251.5 76.5q22.5 25.5 22.5 71.5v96h-73q-93 0 -93 -97
q0 -96 80 -96q41 0 63.5 25.5z" />
    <glyph glyph-name="b" unicode="b" horiz-adv-x="412" 
d="M127 47v-47h-68v690h68v-223q34 58 98 58q62 0 99.5 -43.5t37.5 -132.5v-181q0 -89 -37.5 -132.5t-98.5 -43.5q-65 0 -99 55zM273.5 81.5q20.5 28.5 20.5 94.5v165q0 123 -81 123q-42 0 -64 -31.5t-22 -92.5v-165q0 -60 22 -91t64 -31q40 0 60.5 28.5z" />
    <glyph glyph-name="c" unicode="c" horiz-adv-x="409" 
d="M91 34.5q-41 42.5 -41 133.5v181q0 91 41 133.5t115 42.5q73 0 113 -41t40 -124v-14h-68v14q0 104 -84 104q-44 0 -66.5 -28t-22.5 -95v-165q0 -67 22.5 -95t65.5 -28q85 0 85 104v14h68v-13q0 -83 -40 -124.5t-112 -41.5q-75 0 -116 42.5z" />
    <glyph glyph-name="d" unicode="d" horiz-adv-x="412" 
d="M87.5 35.5q-37.5 43.5 -37.5 132.5v181q0 89 37.5 132.5t98.5 43.5q65 0 99 -58v223h68v-690h-68v47q-34 -55 -99 -55q-61 0 -98.5 43.5zM263 84q22 31 22 91v165q0 124 -86 124q-81 0 -81 -123v-165q0 -66 20.5 -94.5t60.5 -28.5q42 0 64 31z" />
    <glyph glyph-name="e" unicode="e" horiz-adv-x="408" 
d="M118 238v-61q0 -68 23.5 -97t66.5 -29q82 0 82 103v4h67v-3q0 -81 -39.5 -122t-111.5 -41q-156 0 -156 184v167q0 90 40.5 136t112.5 46t113.5 -46t41.5 -136v-105h-240zM140 435.5q-22 -28.5 -22 -94.5v-51h173v53q0 65 -22.5 93t-64.5 28t-64 -28.5z" />
    <glyph glyph-name="f" unicode="f" horiz-adv-x="288" 
d="M185 619q-16 -17 -16 -55v-47h89v-53h-89v-464h-68v464h-62v53h62v38q0 66 33.5 100.5t97.5 34.5h26v-54h-20q-37 0 -53 -17z" />
    <glyph glyph-name="g" unicode="g" horiz-adv-x="412" 
d="M95.5 -127q-37.5 35 -39.5 96h65q2 -33 23 -52.5t57 -19.5q44 0 64 28t20 85v76q-33 -54 -99 -54q-61 0 -98.5 43.5t-37.5 131.5v143q0 88 37.5 131.5t98.5 43.5q66 0 99 -58v50h68v-501q0 -82 -37.5 -130t-114.5 -48q-68 0 -105.5 35zM263 124q22 31 22 91v126
q0 123 -86 123q-38 0 -59.5 -28t-21.5 -94v-127q0 -66 20.5 -94t60.5 -28q42 0 64 31z" />
    <glyph glyph-name="h" unicode="h" horiz-adv-x="416" 
d="M59 690h68v-218q16 25 42.5 39t57.5 14q62 0 96 -39.5t34 -111.5v-374h-68v371q0 45 -22 69t-59 24q-36 0 -58.5 -24t-22.5 -69v-371h-68v690z" />
    <glyph glyph-name="i" unicode="i" horiz-adv-x="199" 
d="M65 517h68v-517h-68v517zM65 689h69v-90h-69v90z" />
    <glyph glyph-name="j" unicode="j" horiz-adv-x="195" 
d="M61 689h69v-90h-69v90zM-25 -91h15q71 0 71 79v529h69v-532q0 -67 -35.5 -102t-102.5 -35h-17v61z" />
    <glyph glyph-name="k" unicode="k" horiz-adv-x="409" 
d="M197 256l-70 -103v-153h-68v690h68v-442l173 269h75l-136 -199l155 -318h-78z" />
    <glyph glyph-name="l" unicode="l" horiz-adv-x="234" 
d="M94.5 35q-35.5 35 -35.5 102v553h69v-550q0 -79 71 -79h15v-61h-17q-67 0 -102.5 35z" />
    <glyph glyph-name="m" unicode="m" horiz-adv-x="646" 
d="M59 517h67v-47q15 25 41.5 40t59.5 15q37 0 66 -17.5t46 -47.5q19 31 48.5 48t65.5 17q66 0 100 -39.5t34 -111.5v-374h-69v371q0 45 -21.5 69t-57.5 24q-37 0 -59.5 -24.5t-22.5 -67.5v-372h-68v371q0 44 -22 68.5t-59 24.5q-36 0 -58 -24.5t-22 -68.5v-371h-69v517z
" />
    <glyph glyph-name="n" unicode="n" horiz-adv-x="416" 
d="M59 517h66v-47q15 25 42 40t60 15q62 0 96 -40t34 -111v-374h-68v371q0 45 -22 69t-59 24q-36 0 -58.5 -24.5t-22.5 -68.5v-371h-68v517z" />
    <glyph glyph-name="o" unicode="o" horiz-adv-x="409" 
d="M91 34.5q-41 42.5 -41 133.5v181q0 91 41 133.5t115 42.5q72 0 112.5 -43t40.5 -133v-181q0 -90 -40.5 -133t-112.5 -43q-74 0 -115 42.5zM269 81.5q22 28.5 22 94.5v165q0 66 -22 94.5t-64 28.5t-64.5 -28t-22.5 -95v-165q0 -67 22.5 -95t64.5 -28t64 28.5z" />
    <glyph glyph-name="p" unicode="p" horiz-adv-x="412" 
d="M59 517h68v-50q34 58 98 58q62 0 99.5 -43.5t37.5 -132.5v-181q0 -89 -37.5 -132.5t-98.5 -43.5q-65 0 -99 54v-198h-68v669zM273.5 81.5q20.5 28.5 20.5 94.5v165q0 123 -81 123q-42 0 -64 -31.5t-22 -92.5v-165q0 -60 22 -91t64 -31q40 0 60.5 28.5z" />
    <glyph glyph-name="q" unicode="q" horiz-adv-x="412" 
d="M285 46q-34 -54 -99 -54q-61 0 -98.5 43.5t-37.5 132.5v181q0 89 37.5 132.5t99.5 43.5q64 0 98 -58v50h68v-669h-68v198zM263 84q22 31 22 91v165q0 124 -86 124q-81 0 -81 -123v-165q0 -66 20.5 -94.5t60.5 -28.5q42 0 64 31z" />
    <glyph glyph-name="r" unicode="r" horiz-adv-x="290" 
d="M59 517h66v-51q17 30 45 44.5t63 14.5q21 0 37 -4v-66q-27 9 -50 9q-41 0 -67 -26t-26 -71v-367h-68v517z" />
    <glyph glyph-name="s" unicode="s" horiz-adv-x="382" 
d="M80.5 31.5q-40.5 39.5 -40.5 107.5v6h63v-6q0 -42 24 -64.5t66 -22.5q39 0 62.5 20.5t23.5 62.5q0 33 -16 52t-54 35l-65 27q-99 41 -99 135q0 64 40.5 102.5t108.5 38.5t107.5 -39t39.5 -105v-13h-63v6q0 44 -22 68t-63 24q-37 0 -58.5 -20.5t-21.5 -56.5q0 -27 14 -47
t49 -35l65 -27q53 -22 79.5 -53t26.5 -87q0 -70 -41.5 -109t-114.5 -39q-70 0 -110.5 39.5z" />
    <glyph glyph-name="t" unicode="t" horiz-adv-x="295" 
d="M161 464v-325q0 -40 19 -59.5t58 -19.5h14v-60h-17q-142 0 -142 136v328h-66v53h66v108l68 31v-139h99v-53h-99z" />
    <glyph glyph-name="u" unicode="u" horiz-adv-x="416" 
d="M95.5 33.5q-36.5 41.5 -36.5 125.5v358h68v-312q0 -82 16.5 -117t65.5 -35q33 0 50 15t23.5 47t6.5 90v312h68v-358q0 -84 -36.5 -125.5t-112.5 -41.5t-112.5 41.5z" />
    <glyph glyph-name="v" unicode="v" horiz-adv-x="371" 
d="M15 517h74l97 -409l96 409h74l-137 -517h-68z" />
    <glyph glyph-name="w" unicode="w" horiz-adv-x="577" 
d="M15 517h74l78 -407l91 407h58l93 -407l78 407h75l-119 -517h-65l-91 391l-89 -391h-66z" />
    <glyph glyph-name="x" unicode="x" horiz-adv-x="349" 
d="M261 0l-88 192l-86 -192h-72l123 269l-114 248h73l79 -171l75 171h73l-115 -244l125 -273h-73z" />
    <glyph glyph-name="y" unicode="y" horiz-adv-x="371" 
d="M356 517l-151 -566q-15 -58 -51 -81.5t-99 -23.5h-10v61h17q39 0 60 15t29 50l4 16l-140 529h74l98 -395l95 395h74z" />
    <glyph glyph-name="z" unicode="z" horiz-adv-x="376" 
d="M326 455l-203 -393h203v-62h-276v62l203 393h-203v62h276v-62z" />
    <glyph glyph-name="braceleft" unicode="{" horiz-adv-x="307" 
d="M141 -56q-25 28 -25 85v194q0 40 -14.5 57.5t-51.5 18.5v63q37 1 51.5 18.5t14.5 59.5v187q0 57 25 85t77 28h39v-65h-25q-44 0 -44 -49v-170q0 -59 -11.5 -85.5t-45.5 -39.5q34 -15 45.5 -41t11.5 -85v-175q0 -49 44 -49h25v-65h-39q-52 0 -77 28z" />
    <glyph glyph-name="bar" unicode="|" horiz-adv-x="266" 
d="M100 740h66v-823h-66v823z" />
    <glyph glyph-name="braceright" unicode="}" horiz-adv-x="307" 
d="M50 -19h24q44 0 44 49v175q0 59 11.5 85t46.5 41q-35 13 -46.5 39.5t-11.5 85.5v170q0 49 -44 49h-24v65h39q52 0 77 -28t25 -85v-187q0 -42 14.5 -59.5t51.5 -18.5v-63q-37 -1 -51.5 -18.5t-14.5 -57.5v-194q0 -57 -25 -85t-77 -28h-39v65z" />
    <glyph glyph-name="asciitilde" unicode="~" horiz-adv-x="420" 
d="M238.5 223.5q-17.5 7.5 -39.5 21.5q-33 22 -52 22q-18 0 -31.5 -11t-31.5 -43l-54 33q22 46 50 68t63 22q21 0 38 -7.5t40 -22.5q19 -12 30 -17t22 -5q19 0 32 11t31 44l54 -33q-22 -47 -49.5 -68.5t-63.5 -21.5q-21 0 -38.5 7.5z" />
    <glyph glyph-name="uni00A0" unicode="&#xa0;" horiz-adv-x="175" 
 />
    <glyph glyph-name="exclamdown" unicode="&#xa1;" horiz-adv-x="204" 
d="M67 517h78v-97h-78v97zM78 325h57l18 -477h-92z" />
    <glyph glyph-name="cent" unicode="&#xa2;" horiz-adv-x="409" 
d="M291 346v14q0 86 -56 100v-403q56 16 56 100v14h68v-13q0 -74 -32.5 -115t-91.5 -49v-94h-53v93q-132 15 -132 175v181q0 83 34.5 126t97.5 49v88h53v-89q59 -8 91.5 -48.5t32.5 -114.5v-14h-68zM134.5 91q16.5 -29 47.5 -36v407q-31 -7 -47.5 -36t-16.5 -85v-165
q0 -56 16.5 -85z" />
    <glyph glyph-name="sterling" unicode="&#xa3;" horiz-adv-x="383" 
d="M357 66v-66h-314v68q25 12 34.5 35t9.5 61v139h-61v65h61v175q0 74 33.5 115.5t98.5 41.5q64 0 97 -40.5t33 -114.5h-70q0 48 -14.5 69t-43.5 21q-60 0 -60 -76v-191h117v-65h-117v-140q0 -33 -9 -56.5t-29 -40.5h234z" />
    <glyph glyph-name="currency" unicode="&#xa4;" horiz-adv-x="584" 
d="M407 162q-53 -35 -115 -35q-63 0 -115 35l-68 -67l-50 51l68 67q-34 49 -34 114q0 66 35 113l-68 69l50 50l67 -68q51 35 115 35q63 0 114 -35l68 68l50 -50l-68 -68q35 -51 35 -114q0 -65 -34 -114l68 -68l-50 -51zM383.5 233.5q36.5 37.5 36.5 93.5t-36.5 93t-91.5 37
q-56 0 -92 -37t-36 -93q0 -57 36 -94t92 -37q55 0 91.5 37.5z" />
    <glyph glyph-name="yen" unicode="&#xa5;" horiz-adv-x="389" 
d="M158 147h-121v59h121v67h-121v60h106l-135 357h83l105 -315l104 315h81l-135 -357h106v-60h-121v-67h121v-59h-121v-147h-73v147z" />
    <glyph glyph-name="brokenbar" unicode="&#xa6;" horiz-adv-x="266" 
d="M100 740h66v-352h-66v352zM100 271h66v-354h-66v354z" />
    <glyph glyph-name="section" unicode="&#xa7;" horiz-adv-x="428" 
d="M105 -128q-32 40 -32 122h69q0 -52 15.5 -75t55.5 -23q37 0 53.5 21.5t16.5 62.5q0 35 -9 55.5t-31.5 34t-65.5 25.5q-64 18 -90.5 61.5t-26.5 118.5q0 127 88 158q-39 16 -55 49.5t-16 84.5q0 70 35 109t104 39q73 0 104.5 -41.5t31.5 -119.5h-69q0 49 -14 72.5
t-52 23.5q-37 0 -52 -21t-15 -62q0 -48 22 -70.5t81 -39.5q64 -17 89.5 -60.5t25.5 -121.5q0 -126 -86 -155q41 -17 57.5 -51.5t16.5 -86.5q0 -72 -36.5 -111t-107.5 -39q-75 0 -107 40zM277 188.5q19 29.5 19 86.5q0 59 -18.5 88.5t-62.5 29.5q-45 0 -64 -30t-19 -88
q0 -57 19 -86.5t64 -29.5q43 0 62 29.5zM91 690z" />
    <glyph glyph-name="dieresis" unicode="&#xa8;" horiz-adv-x="501" 
d="M137 665h75v-86h-75v86zM289 665h75v-86h-75v86z" />
    <glyph glyph-name="copyright" unicode="&#xa9;" horiz-adv-x="746" 
d="M200.5 33q-72.5 43 -110.5 122t-38 185q0 107 38.5 186t111 121.5t171.5 42.5q101 0 173 -43t110 -122t38 -185q0 -107 -38 -186t-110.5 -121.5t-172.5 -42.5t-172.5 43zM571 118.5q69 79.5 69 221.5q0 143 -69 222t-198 79t-197.5 -79.5t-68.5 -221.5q0 -143 69 -222
t197 -79q129 0 198 79.5zM258 277v130q0 131 117 131q55 0 85 -30.5t30 -92.5v-11h-53v10q0 77 -61 77q-32 0 -48.5 -20.5t-16.5 -69.5v-118q0 -49 16.5 -70t48.5 -21q61 0 61 77v11h53v-11q0 -62 -30.5 -93t-84.5 -31q-117 0 -117 132z" />
    <glyph glyph-name="ordfeminine" unicode="&#xaa;" horiz-adv-x="294" 
d="M220 721q27 -27 27 -75v-216h-62v28q-13 -17 -27 -25t-36 -8q-42 0 -64 25.5t-22 71.5q0 43 27.5 67t76.5 24h42v38q0 41 -39 41q-18 0 -28 -9.5t-10 -26.5v-5h-60v3q0 45 27 69.5t72 24.5q49 0 76 -27zM170.5 494.5q11.5 12.5 11.5 34.5v38h-33q-24 0 -36 -10t-12 -33
q0 -42 38 -42q20 0 31.5 12.5zM137 847z" />
    <glyph glyph-name="guillemotleft" unicode="&#xab;" horiz-adv-x="422" 
d="M20 264l179 183v-76l-104 -107l104 -107v-76zM185 264l178 183v-76l-103 -107l103 -107v-76z" />
    <glyph glyph-name="logicalnot" unicode="&#xac;" horiz-adv-x="420" 
d="M311 264h-269v61h337v-170h-68v109z" />
    <glyph glyph-name="uni00AD" unicode="&#xad;" horiz-adv-x="375" 
d="M50 380h275v-65h-275v65z" />
    <glyph glyph-name="registered" unicode="&#xae;" horiz-adv-x="472" 
d="M107.5 359q-47.5 52 -47.5 140q0 87 48 138.5t128 51.5q82 0 129 -51.5t47 -138.5q0 -88 -47.5 -140t-128.5 -52t-128.5 52zM340 382q37 43 37 117t-37.5 116t-103.5 42q-67 0 -104 -42.5t-37 -115.5q0 -76 37 -118t104 -42t104 43zM179 606h62q62 0 62 -62
q0 -39 -29 -55l35 -95h-39l-31 87h-24v-87h-36v212zM238 514q16 0 22.5 7t6.5 24q0 16 -6.5 22.5t-22.5 6.5h-23v-60h23z" />
    <glyph glyph-name="macron" unicode="&#xaf;" horiz-adv-x="501" 
d="M135 652h231v-61h-231v61z" />
    <glyph glyph-name="degree" unicode="&#xb0;" horiz-adv-x="352" 
d="M87.5 488q-35.5 35 -35.5 88t35.5 88.5t88.5 35.5t88.5 -35.5t35.5 -88.5t-35.5 -88t-88.5 -35t-88.5 35zM227 523.5q20 20.5 20 52.5t-20 53t-51 21t-51 -21t-20 -53t20 -52.5t51 -20.5t51 20.5z" />
    <glyph glyph-name="plusminus" unicode="&#xb1;" horiz-adv-x="420" 
d="M381 349v-66h-138v-137h-65v137h-138v66h138v137h65v-137h138zM40 90h341v-66h-341v66z" />
    <glyph glyph-name="uni00B2" unicode="&#xb2;" horiz-adv-x="271" 
d="M32 490l115 178q12 19 17 33t5 32v20q0 19 -8.5 30t-25.5 11q-34 0 -34 -46v-22h-67v30q0 45 28 72t75 27q46 0 73.5 -27.5t27.5 -72.5v-24q0 -26 -8 -47t-25 -47l-93 -145h126v-62h-206v60z" />
    <glyph glyph-name="uni00B3" unicode="&#xb3;" horiz-adv-x="268" 
d="M56.5 450.5q-26.5 26.5 -26.5 72.5v25h66v-23q0 -19 9 -29.5t26 -10.5q36 0 36 46v36q0 25 -9.5 36.5t-30.5 11.5h-18v61h18q38 0 38 44v30q0 44 -34 44q-17 0 -25.5 -10.5t-8.5 -29.5v-23h-67v26q0 45 27.5 71.5t74.5 26.5q48 0 75 -27t27 -75v-24q0 -30 -10.5 -49.5
t-33.5 -30.5q26 -11 36 -31.5t10 -54.5v-35q0 -48 -28.5 -76t-75.5 -28q-49 0 -75.5 26.5z" />
    <glyph glyph-name="acute" unicode="&#xb4;" horiz-adv-x="501" 
d="M267 705h74l-109 -129h-56z" />
    <glyph glyph-name="uni00B5" unicode="&#xb5;" horiz-adv-x="413" 
d="M59 517h67v-373q0 -45 22 -68.5t58 -23.5q35 0 57.5 24.5t22.5 67.5v373h68v-517h-65v47q-15 -27 -40 -41t-55 -14q-42 0 -67 26v-172h-68v671z" />
    <glyph glyph-name="paragraph" unicode="&#xb6;" horiz-adv-x="520" 
d="M226 269q-75 7 -120.5 66t-45.5 145q0 58 24 106t69 76t105 28h172v-842h-66v777h-72v-777h-66v421z" />
    <glyph glyph-name="periodcentered" unicode="&#xb7;" horiz-adv-x="160" 
d="M41 315h78v-89h-78v89z" />
    <glyph glyph-name="cedilla" unicode="&#xb8;" horiz-adv-x="501" 
d="M253 12h65l-58 -164h-76z" />
    <glyph glyph-name="uni00B9" unicode="&#xb9;" horiz-adv-x="199" 
d="M83 770l-62 -50v79l62 49h71v-418h-71v340z" />
    <glyph glyph-name="ordmasculine" unicode="&#xba;" horiz-adv-x="295" 
d="M41 545v84q0 63 27.5 91t79.5 28t79 -28t27 -91v-84q0 -63 -27 -91.5t-79 -28.5q-107 0 -107 120zM189 544v86q0 60 -41 60q-42 0 -42 -60v-86q0 -60 42 -60q41 0 41 60zM141 847z" />
    <glyph glyph-name="guillemotright" unicode="&#xbb;" horiz-adv-x="422" 
d="M59 157l104 107l-104 107v76l179 -183l-179 -183v76zM224 157l104 107l-104 107v76l178 -183l-178 -183v76z" />
    <glyph glyph-name="onequarter" unicode="&#xbc;" horiz-adv-x="635" 
d="M83 272v340l-62 -50v79l62 49h71v-418h-71zM446 690l-248 -690h-63l248 690h63zM610 74h-31v-74h-70v74h-134v62l92 282h70l-92 -282h64v96h70v-96h31v-62z" />
    <glyph glyph-name="onehalf" unicode="&#xbd;" horiz-adv-x="644" 
d="M83 612l-62 -50v79l62 49h71v-418h-71v340zM383 690h63l-248 -690h-63zM405 60l115 178q12 19 17 33t5 32v20q0 19 -8.5 30t-25.5 11q-34 0 -34 -46v-22h-67v30q0 45 28 72t75 27q46 0 73.5 -27.5t27.5 -72.5v-24q0 -26 -8 -47t-25 -47l-93 -145h126v-62h-206v60z" />
    <glyph glyph-name="threequarters" unicode="&#xbe;" horiz-adv-x="662" 
d="M207.5 294q-28.5 -28 -75.5 -28q-49 0 -75.5 26.5t-26.5 72.5v25h66v-23q0 -19 9 -29.5t26 -10.5q36 0 36 46v36q0 25 -9.5 36.5t-30.5 11.5h-18v61h18q38 0 38 44v30q0 44 -34 44q-17 0 -25.5 -10.5t-8.5 -29.5v-23h-67v26q0 45 27.5 71.5t74.5 26.5q48 0 75 -27t27 -75
v-24q0 -30 -10.5 -49.5t-33.5 -30.5q26 -11 36 -31.5t10 -54.5v-35q0 -48 -28.5 -76zM497 690l-248 -690h-63l248 690h63zM637 74h-31v-74h-70v74h-134v62l92 282h70l-92 -282h64v96h70v-96h31v-62z" />
    <glyph glyph-name="questiondown" unicode="&#xbf;" horiz-adv-x="363" 
d="M145 517h78v-97h-78v97zM75 -120.5q-38 43.5 -38 119.5q0 38 10.5 68t39.5 79l34 57q17 29 22 47t5 47v35h73v-39q0 -35 -6.5 -57.5t-30.5 -61.5l-40 -66q-19 -31 -26.5 -54t-7.5 -55q0 -98 74 -98q43 0 59.5 29t16.5 94h73q-2 -188 -148 -188q-72 0 -110 43.5z" />
    <glyph glyph-name="Agrave" unicode="&#xc0;" horiz-adv-x="461" 
d="M331 176h-202l-44 -176h-76l188 690h67l188 -690h-77zM315 239l-85 341l-85 -341h170zM229 749l-109 129h74l91 -129h-56z" />
    <glyph glyph-name="Aacute" unicode="&#xc1;" horiz-adv-x="461" 
d="M331 176h-202l-44 -176h-76l188 690h67l188 -690h-77zM315 239l-85 341l-85 -341h170zM258 878h74l-109 -129h-56z" />
    <glyph glyph-name="Acircumflex" unicode="&#xc2;" horiz-adv-x="461" 
d="M331 176h-202l-44 -176h-76l188 690h67l188 -690h-77zM315 239l-85 341l-85 -341h170zM198 884h64l100 -143h-67l-63 90l-64 -90h-67z" />
    <glyph glyph-name="Atilde" unicode="&#xc3;" horiz-adv-x="461" 
d="M331 176h-202l-44 -176h-76l188 690h67l188 -690h-77zM315 239l-85 341l-85 -341h170zM123 814q18 19 31 26.5t31 7.5q15 0 25.5 -4.5t24.5 -13.5t24.5 -13.5t23.5 -4.5q15 0 25.5 7.5t29.5 29.5v-70q-16 -19 -29 -26.5t-32 -7.5q-16 0 -27.5 5t-27.5 14q-14 8 -22 12
t-18 4q-16 0 -28.5 -8t-30.5 -30v72z" />
    <glyph glyph-name="Adieresis" unicode="&#xc4;" horiz-adv-x="461" 
d="M331 176h-202l-44 -176h-76l188 690h67l188 -690h-77zM315 239l-85 341l-85 -341h170zM117 838h75v-86h-75v86zM269 838h75v-86h-75v86z" />
    <glyph glyph-name="Aring" unicode="&#xc5;" horiz-adv-x="461" 
d="M331 176h-202l-44 -176h-76l188 690q-25 10 -40 32t-15 51q0 38 25 63.5t63 25.5q39 0 64.5 -25.5t25.5 -63.5q0 -29 -15 -51t-41 -32l188 -690h-77zM195.5 737q13.5 -14 34.5 -14q22 0 35.5 14t13.5 36t-13.5 36.5t-35.5 14.5q-21 0 -34.5 -14.5t-13.5 -36.5t13.5 -36z
M315 239l-85 341l-85 -341h170z" />
    <glyph glyph-name="AE" unicode="&#xc6;" horiz-adv-x="688" 
d="M426 625v-241h193v-66h-193v-253h226v-65h-298v172h-195l-74 -172h-76l301 690h342v-65h-226zM354 236v391l-168 -391h168z" />
    <glyph glyph-name="Ccedilla" unicode="&#xc7;" 
d="M353 489v7q0 71 -30.5 104t-81.5 33q-58 0 -87 -36.5t-29 -114.5v-282q0 -142 116 -142q52 0 82 33t30 101v9h71v-10q0 -84 -36.5 -132.5t-98.5 -61.5l-53 -149h-76l61 145q-77 6 -123 58t-46 150v288q0 105 51.5 157.5t136.5 52.5q82 0 134 -50t52 -151v-9h-73z" />
    <glyph glyph-name="Egrave" unicode="&#xc8;" horiz-adv-x="403" 
d="M132 625v-241h202v-66h-202v-253h235v-65h-307v690h307v-65h-235zM211 749l-109 129h74l91 -129h-56z" />
    <glyph glyph-name="Eacute" unicode="&#xc9;" horiz-adv-x="403" 
d="M132 625v-241h202v-66h-202v-253h235v-65h-307v690h307v-65h-235zM240 878h74l-109 -129h-56z" />
    <glyph glyph-name="Ecircumflex" unicode="&#xca;" horiz-adv-x="403" 
d="M132 625v-241h202v-66h-202v-253h235v-65h-307v690h307v-65h-235zM180 884h64l100 -143h-67l-63 90l-64 -90h-67z" />
    <glyph glyph-name="Edieresis" unicode="&#xcb;" horiz-adv-x="403" 
d="M132 625v-241h202v-66h-202v-253h235v-65h-307v690h307v-65h-235zM99 838h75v-86h-75v86zM251 838h75v-86h-75v86z" />
    <glyph glyph-name="Igrave" unicode="&#xcc;" horiz-adv-x="204" 
d="M66 690h72v-690h-72v690zM100 749l-109 129h74l91 -129h-56z" />
    <glyph glyph-name="Iacute" unicode="&#xcd;" horiz-adv-x="204" 
d="M66 690h72v-690h-72v690zM129 878h74l-109 -129h-56z" />
    <glyph glyph-name="Icircumflex" unicode="&#xce;" horiz-adv-x="204" 
d="M66 690h72v-690h-72v690zM69 884h64l100 -143h-67l-63 90l-64 -90h-67z" />
    <glyph glyph-name="Idieresis" unicode="&#xcf;" horiz-adv-x="204" 
d="M66 690h72v-690h-72v690zM-12 838h75v-86h-75v86zM140 838h75v-86h-75v86z" />
    <glyph glyph-name="Eth" unicode="&#xd0;" horiz-adv-x="505" 
d="M402 638q51 -52 51 -157v-272q0 -104 -51 -156.5t-135 -52.5h-179v318h-58v65h58v307h179q84 0 135 -52zM380 474q0 76 -29 113.5t-84 37.5h-106v-242h107v-65h-107v-253h106q54 0 83.5 36t29.5 107v266z" />
    <glyph glyph-name="Ntilde" unicode="&#xd1;" horiz-adv-x="502" 
d="M442 690v-690h-73l-236 530v-530h-73v690h73l236 -531v531h73zM144 814q18 19 31 26.5t31 7.5q15 0 25.5 -4.5t24.5 -13.5t24.5 -13.5t23.5 -4.5q15 0 25.5 7.5t29.5 29.5v-70q-16 -19 -29 -26.5t-32 -7.5q-16 0 -27.5 5t-27.5 14q-14 8 -22 12t-18 4q-16 0 -28.5 -8
t-30.5 -30v72z" />
    <glyph glyph-name="Ograve" unicode="&#xd2;" 
d="M103 44.5q-51 52.5 -51 156.5v288q0 106 51 158t136 52t136 -52t51 -158v-288q0 -104 -51.5 -156.5t-135.5 -52.5q-85 0 -136 52.5zM323.5 93.5q29.5 35.5 29.5 106.5v282q0 76 -29 113.5t-84 37.5q-58 0 -86.5 -37t-28.5 -114v-282q0 -142 115 -142q54 0 83.5 35.5z
M237 749l-109 129h74l91 -129h-56z" />
    <glyph glyph-name="Oacute" unicode="&#xd3;" 
d="M103 44.5q-51 52.5 -51 156.5v288q0 106 51 158t136 52t136 -52t51 -158v-288q0 -104 -51.5 -156.5t-135.5 -52.5q-85 0 -136 52.5zM323.5 93.5q29.5 35.5 29.5 106.5v282q0 76 -29 113.5t-84 37.5q-58 0 -86.5 -37t-28.5 -114v-282q0 -142 115 -142q54 0 83.5 35.5z
M266 878h74l-109 -129h-56z" />
    <glyph glyph-name="Ocircumflex" unicode="&#xd4;" 
d="M103 44.5q-51 52.5 -51 156.5v288q0 106 51 158t136 52t136 -52t51 -158v-288q0 -104 -51.5 -156.5t-135.5 -52.5q-85 0 -136 52.5zM323.5 93.5q29.5 35.5 29.5 106.5v282q0 76 -29 113.5t-84 37.5q-58 0 -86.5 -37t-28.5 -114v-282q0 -142 115 -142q54 0 83.5 35.5z
M206 884h64l100 -143h-67l-63 90l-64 -90h-67z" />
    <glyph glyph-name="Otilde" unicode="&#xd5;" 
d="M103 44.5q-51 52.5 -51 156.5v288q0 106 51 158t136 52t136 -52t51 -158v-288q0 -104 -51.5 -156.5t-135.5 -52.5q-85 0 -136 52.5zM323.5 93.5q29.5 35.5 29.5 106.5v282q0 76 -29 113.5t-84 37.5q-58 0 -86.5 -37t-28.5 -114v-282q0 -142 115 -142q54 0 83.5 35.5z
M131 814q18 19 31 26.5t31 7.5q15 0 25.5 -4.5t24.5 -13.5t24.5 -13.5t23.5 -4.5q15 0 25.5 7.5t29.5 29.5v-70q-16 -19 -29 -26.5t-32 -7.5q-16 0 -27.5 5t-27.5 14q-14 8 -22 12t-18 4q-16 0 -28.5 -8t-30.5 -30v72z" />
    <glyph glyph-name="Odieresis" unicode="&#xd6;" 
d="M103 44.5q-51 52.5 -51 156.5v288q0 106 51 158t136 52t136 -52t51 -158v-288q0 -104 -51.5 -156.5t-135.5 -52.5q-85 0 -136 52.5zM323.5 93.5q29.5 35.5 29.5 106.5v282q0 76 -29 113.5t-84 37.5q-58 0 -86.5 -37t-28.5 -114v-282q0 -142 115 -142q54 0 83.5 35.5z
M125 838h75v-86h-75v86zM277 838h75v-86h-75v86z" />
    <glyph glyph-name="multiply" unicode="&#xd7;" horiz-adv-x="420" 
d="M63 172l104 104l-104 104l44 43l104 -103l103 103l43 -43l-103 -104l103 -104l-43 -43l-103 104l-104 -104z" />
    <glyph glyph-name="Oslash" unicode="&#xd8;" 
d="M391 626q35 -52 35 -137v-288q0 -104 -51.5 -156.5t-135.5 -52.5q-66 0 -113 33l-20 -45h-53l36 82q-37 53 -37 139v288q0 106 51 158t136 52q70 0 116 -34l20 45h53zM129 152l195 443q-28 38 -84 38q-58 0 -86.5 -37t-28.5 -114v-282q0 -29 4 -48zM349 531l-194 -439
q28 -34 85 -34q54 0 83.5 35.5t29.5 106.5v282q0 30 -4 49z" />
    <glyph glyph-name="Ugrave" unicode="&#xd9;" horiz-adv-x="480" 
d="M147 15q-41 23 -64 65t-23 96v514h73v-510q0 -59 28.5 -90.5t78.5 -31.5t78.5 32t28.5 90v510h73v-514q0 -83 -50 -133.5t-130 -50.5q-52 0 -93 23zM238 749l-109 129h74l91 -129h-56z" />
    <glyph glyph-name="Uacute" unicode="&#xda;" horiz-adv-x="480" 
d="M147 15q-41 23 -64 65t-23 96v514h73v-510q0 -59 28.5 -90.5t78.5 -31.5t78.5 32t28.5 90v510h73v-514q0 -83 -50 -133.5t-130 -50.5q-52 0 -93 23zM267 878h74l-109 -129h-56z" />
    <glyph glyph-name="Ucircumflex" unicode="&#xdb;" horiz-adv-x="480" 
d="M147 15q-41 23 -64 65t-23 96v514h73v-510q0 -59 28.5 -90.5t78.5 -31.5t78.5 32t28.5 90v510h73v-514q0 -83 -50 -133.5t-130 -50.5q-52 0 -93 23zM207 884h64l100 -143h-67l-63 90l-64 -90h-67z" />
    <glyph glyph-name="Udieresis" unicode="&#xdc;" horiz-adv-x="480" 
d="M147 15q-41 23 -64 65t-23 96v514h73v-510q0 -59 28.5 -90.5t78.5 -31.5t78.5 32t28.5 90v510h73v-514q0 -83 -50 -133.5t-130 -50.5q-52 0 -93 23zM126 838h75v-86h-75v86zM278 838h75v-86h-75v86z" />
    <glyph glyph-name="Yacute" unicode="&#xdd;" horiz-adv-x="392" 
d="M232 287v-287h-72v287l-151 403h80l107 -316l107 316h80zM227 878h74l-109 -129h-56z" />
    <glyph glyph-name="Thorn" unicode="&#xde;" horiz-adv-x="440" 
d="M370 513.5q43 -50.5 43 -150.5q0 -197 -178 -197h-103v-166h-72v690h72v-126h103q92 0 135 -50.5zM313.5 261.5q26.5 31.5 26.5 101.5q0 71 -26.5 103.5t-82.5 32.5h-99v-269h99q56 0 82.5 31.5z" />
    <glyph glyph-name="germandbls" unicode="&#xdf;" horiz-adv-x="413" 
d="M210 58h19q31 0 44.5 15t17 46.5t3.5 100.5q0 61 -3.5 91.5t-17.5 47.5t-45 17h-21v61h21q36 0 48.5 25t12.5 78q0 51 -20 74t-59 23q-82 0 -82 -92v-545h-69v522q0 87 35.5 132t116.5 45q67 0 107 -41t40 -113q0 -57 -13 -85t-47 -47q29 -15 42.5 -37t18 -57t4.5 -99
q0 -87 -8 -132.5t-35 -68.5t-83 -23h-27v62z" />
    <glyph glyph-name="agrave" unicode="&#xe0;" horiz-adv-x="401" 
d="M304 485.5q38 -39.5 38 -110.5v-375h-65v48q-35 -56 -105 -56q-64 0 -98 40.5t-34 113.5q0 70 39.5 109.5t114.5 39.5h80v83q0 87 -80 87q-37 0 -57 -20t-20 -56v-8h-64v9q0 63 38.5 99t102.5 36q72 0 110 -39.5zM251.5 76.5q22.5 25.5 22.5 71.5v96h-73q-93 0 -93 -97
q0 -96 80 -96q41 0 63.5 25.5zM199 576l-109 129h74l91 -129h-56z" />
    <glyph glyph-name="aacute" unicode="&#xe1;" horiz-adv-x="401" 
d="M304 485.5q38 -39.5 38 -110.5v-375h-65v48q-35 -56 -105 -56q-64 0 -98 40.5t-34 113.5q0 70 39.5 109.5t114.5 39.5h80v83q0 87 -80 87q-37 0 -57 -20t-20 -56v-8h-64v9q0 63 38.5 99t102.5 36q72 0 110 -39.5zM251.5 76.5q22.5 25.5 22.5 71.5v96h-73q-93 0 -93 -97
q0 -96 80 -96q41 0 63.5 25.5zM228 705h74l-109 -129h-56z" />
    <glyph glyph-name="acircumflex" unicode="&#xe2;" horiz-adv-x="401" 
d="M304 485.5q38 -39.5 38 -110.5v-375h-65v48q-35 -56 -105 -56q-64 0 -98 40.5t-34 113.5q0 70 39.5 109.5t114.5 39.5h80v83q0 87 -80 87q-37 0 -57 -20t-20 -56v-8h-64v9q0 63 38.5 99t102.5 36q72 0 110 -39.5zM251.5 76.5q22.5 25.5 22.5 71.5v96h-73q-93 0 -93 -97
q0 -96 80 -96q41 0 63.5 25.5zM168 711h64l100 -143h-67l-63 90l-64 -90h-67z" />
    <glyph glyph-name="atilde" unicode="&#xe3;" horiz-adv-x="401" 
d="M304 485.5q38 -39.5 38 -110.5v-375h-65v48q-35 -56 -105 -56q-64 0 -98 40.5t-34 113.5q0 70 39.5 109.5t114.5 39.5h80v83q0 87 -80 87q-37 0 -57 -20t-20 -56v-8h-64v9q0 63 38.5 99t102.5 36q72 0 110 -39.5zM251.5 76.5q22.5 25.5 22.5 71.5v96h-73q-93 0 -93 -97
q0 -96 80 -96q41 0 63.5 25.5zM93 641q18 19 31 26.5t31 7.5q15 0 25.5 -4.5t24.5 -13.5t24.5 -13.5t23.5 -4.5q15 0 25.5 7.5t29.5 29.5v-70q-16 -19 -29 -26.5t-32 -7.5q-16 0 -27.5 5t-27.5 14q-14 8 -22 12t-18 4q-16 0 -28.5 -8t-30.5 -30v72z" />
    <glyph glyph-name="adieresis" unicode="&#xe4;" horiz-adv-x="401" 
d="M304 485.5q38 -39.5 38 -110.5v-375h-65v48q-35 -56 -105 -56q-64 0 -98 40.5t-34 113.5q0 70 39.5 109.5t114.5 39.5h80v83q0 87 -80 87q-37 0 -57 -20t-20 -56v-8h-64v9q0 63 38.5 99t102.5 36q72 0 110 -39.5zM251.5 76.5q22.5 25.5 22.5 71.5v96h-73q-93 0 -93 -97
q0 -96 80 -96q41 0 63.5 25.5zM87 665h75v-86h-75v86zM239 665h75v-86h-75v86z" />
    <glyph glyph-name="aring" unicode="&#xe5;" horiz-adv-x="401" 
d="M304 485.5q38 -39.5 38 -110.5v-375h-65v48q-35 -56 -105 -56q-64 0 -98 40.5t-34 113.5q0 70 39.5 109.5t114.5 39.5h80v83q0 87 -80 87q-37 0 -57 -20t-20 -56v-8h-64v9q0 63 38.5 99t102.5 36q72 0 110 -39.5zM251.5 76.5q22.5 25.5 22.5 71.5v96h-73q-93 0 -93 -97
q0 -96 80 -96q41 0 63.5 25.5zM137 581.5q-25 25.5 -25 63.5t25 63.5t63 25.5q39 0 64.5 -25.5t25.5 -63.5t-25.5 -63.5t-64.5 -25.5q-38 0 -63 25.5zM235.5 609q13.5 14 13.5 36t-13.5 36.5t-35.5 14.5q-21 0 -34.5 -14.5t-13.5 -36.5t13.5 -36t34.5 -14q22 0 35.5 14z" />
    <glyph glyph-name="ae" unicode="&#xe6;" horiz-adv-x="633" 
d="M342 239v-62q0 -68 23.5 -97t66.5 -29q40 0 61.5 25.5t21.5 77.5v4h67v-3q0 -81 -39.5 -122t-110.5 -41q-86 0 -127 58q-20 -28 -51.5 -43t-71.5 -15q-68 0 -105 40t-37 112q0 69 39.5 108t114.5 39h80v87q0 87 -80 87q-37 0 -57 -20t-20 -56v-8h-64v9q0 63 38.5 99
t102.5 36q81 0 118 -49q40 49 116 49q72 0 113.5 -46t41.5 -136v-104h-241zM364.5 436q-22.5 -28 -22.5 -95v-50h173v52q0 65 -22 93t-64 28t-64.5 -28zM274 240h-73q-93 0 -93 -95q0 -94 80 -94q41 0 63.5 26t22.5 72v91z" />
    <glyph glyph-name="ccedilla" unicode="&#xe7;" horiz-adv-x="409" 
d="M291 346v14q0 104 -84 104q-44 0 -66.5 -28t-22.5 -95v-165q0 -67 22.5 -95t65.5 -28q85 0 85 104v14h68v-13q0 -66 -25.5 -105.5t-73.5 -53.5l-53 -151h-76l61 144q-142 10 -142 176v181q0 91 41 133.5t115 42.5q73 0 113 -41t40 -124v-14h-68z" />
    <glyph glyph-name="egrave" unicode="&#xe8;" horiz-adv-x="408" 
d="M118 238v-61q0 -68 23.5 -97t66.5 -29q82 0 82 103v4h67v-3q0 -81 -39.5 -122t-111.5 -41q-156 0 -156 184v167q0 90 40.5 136t112.5 46t113.5 -46t41.5 -136v-105h-240zM140 435.5q-22 -28.5 -22 -94.5v-51h173v53q0 65 -22.5 93t-64.5 28t-64 -28.5zM198 576l-109 129
h74l91 -129h-56z" />
    <glyph glyph-name="eacute" unicode="&#xe9;" horiz-adv-x="408" 
d="M118 238v-61q0 -68 23.5 -97t66.5 -29q82 0 82 103v4h67v-3q0 -81 -39.5 -122t-111.5 -41q-156 0 -156 184v167q0 90 40.5 136t112.5 46t113.5 -46t41.5 -136v-105h-240zM140 435.5q-22 -28.5 -22 -94.5v-51h173v53q0 65 -22.5 93t-64.5 28t-64 -28.5zM227 705h74
l-109 -129h-56z" />
    <glyph glyph-name="ecircumflex" unicode="&#xea;" horiz-adv-x="408" 
d="M118 238v-61q0 -68 23.5 -97t66.5 -29q82 0 82 103v4h67v-3q0 -81 -39.5 -122t-111.5 -41q-156 0 -156 184v167q0 90 40.5 136t112.5 46t113.5 -46t41.5 -136v-105h-240zM140 435.5q-22 -28.5 -22 -94.5v-51h173v53q0 65 -22.5 93t-64.5 28t-64 -28.5zM167 711h64
l100 -143h-67l-63 90l-64 -90h-67z" />
    <glyph glyph-name="edieresis" unicode="&#xeb;" horiz-adv-x="408" 
d="M118 238v-61q0 -68 23.5 -97t66.5 -29q82 0 82 103v4h67v-3q0 -81 -39.5 -122t-111.5 -41q-156 0 -156 184v167q0 90 40.5 136t112.5 46t113.5 -46t41.5 -136v-105h-240zM140 435.5q-22 -28.5 -22 -94.5v-51h173v53q0 65 -22.5 93t-64.5 28t-64 -28.5zM86 665h75v-86h-75
v86zM238 665h75v-86h-75v86z" />
    <glyph glyph-name="igrave" unicode="&#xec;" horiz-adv-x="198" 
d="M65 517h68v-517h-68v517zM97 576l-109 129h74l91 -129h-56z" />
    <glyph glyph-name="iacute" unicode="&#xed;" horiz-adv-x="198" 
d="M65 517h68v-517h-68v517zM126 705h74l-109 -129h-56z" />
    <glyph glyph-name="icircumflex" unicode="&#xee;" horiz-adv-x="198" 
d="M65 517h68v-517h-68v517zM66 711h64l100 -143h-67l-63 90l-64 -90h-67z" />
    <glyph glyph-name="idieresis" unicode="&#xef;" horiz-adv-x="198" 
d="M65 517h68v-517h-68v517zM-15 665h75v-86h-75v86zM137 665h75v-86h-75v86z" />
    <glyph glyph-name="eth" unicode="&#xf0;" horiz-adv-x="406" 
d="M341.5 397q14.5 -49 14.5 -117v-100q0 -189 -154 -189q-152 0 -152 187v113q0 181 136 181q35 0 57 -12l-56 96l-84 -27l-16 51l73 23l-52 90h76l40 -69l81 26l15 -51l-69 -22l38 -66q38 -65 52.5 -114zM288 299q0 112 -85 112t-85 -111v-134q0 -113 85 -113t85 113v133z
" />
    <glyph glyph-name="ntilde" unicode="&#xf1;" horiz-adv-x="416" 
d="M59 517h66v-47q15 25 42 40t60 15q62 0 96 -40t34 -111v-374h-68v371q0 45 -22 69t-59 24q-36 0 -58.5 -24.5t-22.5 -68.5v-371h-68v517zM100 641q18 19 31 26.5t31 7.5q15 0 25.5 -4.5t24.5 -13.5t24.5 -13.5t23.5 -4.5q15 0 25.5 7.5t29.5 29.5v-70q-16 -19 -29 -26.5
t-32 -7.5q-16 0 -27.5 5t-27.5 14q-14 8 -22 12t-18 4q-16 0 -28.5 -8t-30.5 -30v72z" />
    <glyph glyph-name="ograve" unicode="&#xf2;" horiz-adv-x="409" 
d="M91 34.5q-41 42.5 -41 133.5v181q0 91 41 133.5t115 42.5q72 0 112.5 -43t40.5 -133v-181q0 -90 -40.5 -133t-112.5 -43q-74 0 -115 42.5zM269 81.5q22 28.5 22 94.5v165q0 66 -22 94.5t-64 28.5t-64.5 -28t-22.5 -95v-165q0 -67 22.5 -95t64.5 -28t64 28.5zM203 576
l-109 129h74l91 -129h-56z" />
    <glyph glyph-name="oacute" unicode="&#xf3;" horiz-adv-x="409" 
d="M91 34.5q-41 42.5 -41 133.5v181q0 91 41 133.5t115 42.5q72 0 112.5 -43t40.5 -133v-181q0 -90 -40.5 -133t-112.5 -43q-74 0 -115 42.5zM269 81.5q22 28.5 22 94.5v165q0 66 -22 94.5t-64 28.5t-64.5 -28t-22.5 -95v-165q0 -67 22.5 -95t64.5 -28t64 28.5zM232 705h74
l-109 -129h-56z" />
    <glyph glyph-name="ocircumflex" unicode="&#xf4;" horiz-adv-x="409" 
d="M91 34.5q-41 42.5 -41 133.5v181q0 91 41 133.5t115 42.5q72 0 112.5 -43t40.5 -133v-181q0 -90 -40.5 -133t-112.5 -43q-74 0 -115 42.5zM269 81.5q22 28.5 22 94.5v165q0 66 -22 94.5t-64 28.5t-64.5 -28t-22.5 -95v-165q0 -67 22.5 -95t64.5 -28t64 28.5zM172 711h64
l100 -143h-67l-63 90l-64 -90h-67z" />
    <glyph glyph-name="otilde" unicode="&#xf5;" horiz-adv-x="409" 
d="M91 34.5q-41 42.5 -41 133.5v181q0 91 41 133.5t115 42.5q72 0 112.5 -43t40.5 -133v-181q0 -90 -40.5 -133t-112.5 -43q-74 0 -115 42.5zM269 81.5q22 28.5 22 94.5v165q0 66 -22 94.5t-64 28.5t-64.5 -28t-22.5 -95v-165q0 -67 22.5 -95t64.5 -28t64 28.5zM97 641
q18 19 31 26.5t31 7.5q15 0 25.5 -4.5t24.5 -13.5t24.5 -13.5t23.5 -4.5q15 0 25.5 7.5t29.5 29.5v-70q-16 -19 -29 -26.5t-32 -7.5q-16 0 -27.5 5t-27.5 14q-14 8 -22 12t-18 4q-16 0 -28.5 -8t-30.5 -30v72z" />
    <glyph glyph-name="odieresis" unicode="&#xf6;" horiz-adv-x="409" 
d="M91 34.5q-41 42.5 -41 133.5v181q0 91 41 133.5t115 42.5q72 0 112.5 -43t40.5 -133v-181q0 -90 -40.5 -133t-112.5 -43q-74 0 -115 42.5zM269 81.5q22 28.5 22 94.5v165q0 66 -22 94.5t-64 28.5t-64.5 -28t-22.5 -95v-165q0 -67 22.5 -95t64.5 -28t64 28.5zM91 665h75
v-86h-75v86zM243 665h75v-86h-75v86z" />
    <glyph glyph-name="divide" unicode="&#xf7;" horiz-adv-x="420" 
d="M177 378q-14 14 -14 34t14 33.5t34 13.5t33.5 -13.5t13.5 -33.5t-13.5 -34t-33.5 -14t-34 14zM40 309h341v-66h-341v66zM177 110q-14 14 -14 34t14 33.5t34 13.5t33.5 -13.5t13.5 -33.5t-13.5 -34t-33.5 -14t-34 14z" />
    <glyph glyph-name="oslash" unicode="&#xf8;" horiz-adv-x="409" 
d="M326 473q33 -44 33 -124v-181q0 -90 -40.5 -133t-112.5 -43q-57 0 -94 25l-22 -47h-40l34 73q-34 43 -34 125v181q0 91 41 133.5t115 42.5q57 0 92 -25l21 44h40zM123 125l145 311q-21 28 -63 28t-64.5 -28t-22.5 -95v-165q0 -28 5 -51zM287 390l-146 -310q23 -27 64 -27
q42 0 64 28.5t22 94.5v165q0 30 -4 49z" />
    <glyph glyph-name="ugrave" unicode="&#xf9;" horiz-adv-x="416" 
d="M95.5 33.5q-36.5 41.5 -36.5 125.5v358h68v-312q0 -82 16.5 -117t65.5 -35q33 0 50 15t23.5 47t6.5 90v312h68v-358q0 -84 -36.5 -125.5t-112.5 -41.5t-112.5 41.5zM206 576l-109 129h74l91 -129h-56z" />
    <glyph glyph-name="uacute" unicode="&#xfa;" horiz-adv-x="416" 
d="M95.5 33.5q-36.5 41.5 -36.5 125.5v358h68v-312q0 -82 16.5 -117t65.5 -35q33 0 50 15t23.5 47t6.5 90v312h68v-358q0 -84 -36.5 -125.5t-112.5 -41.5t-112.5 41.5zM235 705h74l-109 -129h-56z" />
    <glyph glyph-name="ucircumflex" unicode="&#xfb;" horiz-adv-x="416" 
d="M95.5 33.5q-36.5 41.5 -36.5 125.5v358h68v-312q0 -82 16.5 -117t65.5 -35q33 0 50 15t23.5 47t6.5 90v312h68v-358q0 -84 -36.5 -125.5t-112.5 -41.5t-112.5 41.5zM175 711h64l100 -143h-67l-63 90l-64 -90h-67z" />
    <glyph glyph-name="udieresis" unicode="&#xfc;" horiz-adv-x="416" 
d="M95.5 33.5q-36.5 41.5 -36.5 125.5v358h68v-312q0 -82 16.5 -117t65.5 -35q33 0 50 15t23.5 47t6.5 90v312h68v-358q0 -84 -36.5 -125.5t-112.5 -41.5t-112.5 41.5zM94 665h75v-86h-75v86zM246 665h75v-86h-75v86z" />
    <glyph glyph-name="yacute" unicode="&#xfd;" horiz-adv-x="371" 
d="M356 517l-151 -566q-15 -58 -51 -81.5t-99 -23.5h-10v61h17q39 0 60 15t29 50l4 16l-140 529h74l98 -395l95 395h74zM215 705h74l-109 -129h-56z" />
    <glyph glyph-name="thorn" unicode="&#xfe;" horiz-adv-x="412" 
d="M59 690h68v-223q34 58 98 58q62 0 99.5 -43.5t37.5 -132.5v-181q0 -89 -37.5 -132.5t-98.5 -43.5q-65 0 -99 55v-199h-68v842zM273.5 81.5q20.5 28.5 20.5 94.5v165q0 123 -81 123q-42 0 -64 -31.5t-22 -92.5v-165q0 -60 22 -91t64 -31q40 0 60.5 28.5z" />
    <glyph glyph-name="ydieresis" unicode="&#xff;" horiz-adv-x="371" 
d="M356 517l-151 -566q-15 -58 -51 -81.5t-99 -23.5h-10v61h17q39 0 60 15t29 50l4 16l-140 529h74l98 -395l95 395h74zM74 665h75v-86h-75v86zM226 665h75v-86h-75v86z" />
    <glyph glyph-name="dotlessi" unicode="&#x131;" horiz-adv-x="198" 
d="M65 517h68v-517h-68v517z" />
    <glyph glyph-name="OE" unicode="&#x152;" horiz-adv-x="683" 
d="M425 625v-175q1 -13 1 -41v-25h188v-66h-188v-29q0 -28 -1 -42v-182h222v-65h-287v42q-46 -50 -127 -50q-84 0 -132.5 52t-48.5 157v289q0 106 48.5 158t132.5 52q80 0 127 -48v38h287v-65h-222zM353 483q0 76 -29 113.5t-84 37.5q-58 0 -86.5 -37t-28.5 -114v-283
q0 -142 115 -142q54 0 83.5 35.5t29.5 106.5v283z" />
    <glyph glyph-name="oe" unicode="&#x153;" horiz-adv-x="650" 
d="M359 239v-62q0 -68 23.5 -97t66.5 -29q40 0 61.5 25.5t21.5 77.5v4h67v-3q0 -81 -40 -122t-112 -41q-82 0 -121 52q-39 -52 -120 -52q-74 0 -115 42.5t-41 133.5v181q0 91 41 133.5t115 42.5q83 0 120 -53q40 53 119 53q72 0 113.5 -46t41.5 -136v-104h-241zM269 81.5
q22 28.5 22 94.5v165q0 66 -22 94.5t-64 28.5t-64.5 -28t-22.5 -95v-165q0 -67 22.5 -95t64.5 -28t64 28.5zM381.5 436q-22.5 -28 -22.5 -95v-50h173v52q0 65 -22 93t-64 28t-64.5 -28z" />
    <glyph glyph-name="Scaron" unicode="&#x160;" horiz-adv-x="426" 
d="M73.5 43q-45.5 50 -47.5 146h71q3 -70 31.5 -100.5t81.5 -30.5q54 0 80.5 30.5t26.5 93.5q0 55 -23.5 83t-84.5 53l-40 16q-68 27 -102 69t-34 113q0 84 47.5 134t130.5 50q79 0 125 -46.5t50 -139.5h-69q-7 121 -107 121q-52 0 -78 -30t-26 -85q0 -49 23.5 -77t80.5 -50
l41 -16q69 -27 104 -71t35 -123q0 -91 -47 -140.5t-136 -49.5q-88 0 -133.5 50zM78 892h67l64 -90l63 90h67l-100 -143h-64z" />
    <glyph glyph-name="scaron" unicode="&#x161;" horiz-adv-x="382" 
d="M80.5 31.5q-40.5 39.5 -40.5 107.5v6h63v-6q0 -42 24 -64.5t66 -22.5q39 0 62.5 20.5t23.5 62.5q0 33 -16 52t-54 35l-65 27q-99 41 -99 135q0 64 40.5 102.5t108.5 38.5t107.5 -39t39.5 -105v-13h-63v6q0 44 -22 68t-63 24q-37 0 -58.5 -20.5t-21.5 -56.5q0 -27 14 -47
t49 -35l65 -27q53 -22 79.5 -53t26.5 -87q0 -70 -41.5 -109t-114.5 -39q-70 0 -110.5 39.5zM61 719h67l64 -90l63 90h67l-100 -143h-64z" />
    <glyph glyph-name="Ydieresis" unicode="&#x178;" horiz-adv-x="392" 
d="M232 287v-287h-72v287l-151 403h80l107 -316l107 316h80zM86 838h75v-86h-75v86zM238 838h75v-86h-75v86z" />
    <glyph glyph-name="Zcaron" unicode="&#x17d;" horiz-adv-x="385" 
d="M358 65v-65h-328v65l249 560h-238v65h310v-65l-250 -560h257zM65 892h67l64 -90l63 90h67l-100 -143h-64z" />
    <glyph glyph-name="zcaron" unicode="&#x17e;" horiz-adv-x="376" 
d="M326 455l-203 -393h203v-62h-276v62l203 393h-203v62h276v-62zM64 719h67l64 -90l63 90h67l-100 -143h-64z" />
    <glyph glyph-name="florin" unicode="&#x192;" horiz-adv-x="383" 
d="M10 -87h20q28 0 43.5 7.5t24.5 27t15 57.5l48 343h-73v64h82l17 124q12 81 47.5 117.5t108.5 36.5h30v-65h-30q-28 0 -43.5 -7.5t-24.5 -26.5t-15 -56l-17 -123h86v-64h-95l-49 -345q-11 -82 -47 -118.5t-109 -36.5h-19v65z" />
    <glyph glyph-name="circumflex" unicode="&#x2c6;" horiz-adv-x="501" 
d="M217 711h64l100 -143h-67l-63 90l-64 -90h-67z" />
    <glyph glyph-name="caron" unicode="&#x2c7;" horiz-adv-x="520" 
d="M130 719h67l64 -90l63 90h67l-100 -143h-64z" />
    <glyph glyph-name="dotaccent" unicode="&#x2d9;" horiz-adv-x="501" 
d="M216 685h69v-90h-69v90z" />
    <glyph glyph-name="ring" unicode="&#x2da;" horiz-adv-x="512" 
d="M192 581.5q-25 25.5 -25 63.5t25 63.5t63 25.5q39 0 64.5 -25.5t25.5 -63.5t-25.5 -63.5t-64.5 -25.5q-38 0 -63 25.5zM290.5 609q13.5 14 13.5 36t-13.5 36.5t-35.5 14.5q-21 0 -34.5 -14.5t-13.5 -36.5t13.5 -36t34.5 -14q22 0 35.5 14z" />
    <glyph glyph-name="tilde" unicode="&#x2dc;" horiz-adv-x="501" 
d="M143 641q18 19 31 26.5t31 7.5q15 0 25.5 -4.5t24.5 -13.5t24.5 -13.5t23.5 -4.5q15 0 25.5 7.5t29.5 29.5v-70q-16 -19 -29 -26.5t-32 -7.5q-16 0 -27.5 5t-27.5 14q-14 8 -22 12t-18 4q-16 0 -28.5 -8t-30.5 -30v72z" />
    <glyph glyph-name="gravecomb" unicode="&#x300;" horiz-adv-x="0" 
d="M-2 576l-109 129h74l91 -129h-56z" />
    <glyph glyph-name="acutecomb" unicode="&#x301;" horiz-adv-x="0" 
d="M27 705h74l-109 -129h-56z" />
    <glyph glyph-name="uni0302" unicode="&#x302;" horiz-adv-x="0" 
d="M-33 711h64l100 -143h-67l-63 90l-64 -90h-67z" />
    <glyph glyph-name="tildecomb" unicode="&#x303;" horiz-adv-x="0" 
d="M-108 641q18 19 31 26.5t31 7.5q15 0 25.5 -4.5t24.5 -13.5t24.5 -13.5t23.5 -4.5q15 0 25.5 7.5t29.5 29.5v-70q-16 -19 -29 -26.5t-32 -7.5q-16 0 -27.5 5t-27.5 14q-14 8 -22 12t-18 4q-16 0 -28.5 -8t-30.5 -30v72z" />
    <glyph glyph-name="uni0308" unicode="&#x308;" horiz-adv-x="0" 
d="M-114 665h75v-86h-75v86zM38 665h75v-86h-75v86z" />
    <glyph glyph-name="uni030A" unicode="&#x30a;" horiz-adv-x="0" 
d="M-64 581.5q-25 25.5 -25 63.5t25 63.5t63 25.5q39 0 64.5 -25.5t25.5 -63.5t-25.5 -63.5t-64.5 -25.5q-38 0 -63 25.5zM34.5 609q13.5 14 13.5 36t-13.5 36.5t-35.5 14.5q-21 0 -34.5 -14.5t-13.5 -36.5t13.5 -36t34.5 -14q22 0 35.5 14z" />
    <glyph glyph-name="endash" unicode="&#x2013;" horiz-adv-x="417" 
d="M0 380h417v-65h-417v65z" />
    <glyph glyph-name="emdash" unicode="&#x2014;" horiz-adv-x="833" 
d="M0 380h833v-65h-833v65z" />
    <glyph glyph-name="quoteleft" unicode="&#x2018;" horiz-adv-x="150" 
d="M109 489h-68v175l68 59v-234zM59 690z" />
    <glyph glyph-name="quoteright" unicode="&#x2019;" horiz-adv-x="150" 
d="M41 690h68v-175l-68 -59v234z" />
    <glyph glyph-name="quotesinglbase" unicode="&#x201a;" horiz-adv-x="150" 
d="M41 93h68v-175l-68 -59v234z" />
    <glyph glyph-name="quotedblleft" unicode="&#x201c;" horiz-adv-x="280" 
d="M109 489h-68v175l68 59v-234zM239 489h-68v175l68 59v-234zM92 690z" />
    <glyph glyph-name="quotedblright" unicode="&#x201d;" horiz-adv-x="280" 
d="M41 690h68v-175l-68 -59v234zM171 690h68v-175l-68 -59v234z" />
    <glyph glyph-name="quotedblbase" unicode="&#x201e;" horiz-adv-x="280" 
d="M171 93h68v-175l-68 -59v234zM41 93h68v-175l-68 -59v234z" />
    <glyph glyph-name="dagger" unicode="&#x2020;" horiz-adv-x="472" 
d="M413 379h-140v-531h-73v531h-141v66h141v245h73v-245h140v-66z" />
    <glyph glyph-name="daggerdbl" unicode="&#x2021;" horiz-adv-x="472" 
d="M273 384v-229h140v-66h-140v-241h-73v241h-141v66h141v229h-141v66h141v240h73v-240h140v-66h-140z" />
    <glyph glyph-name="bullet" unicode="&#x2022;" horiz-adv-x="422" 
d="M124 221q-35 35 -35 87q0 53 35 87.5t87 34.5q53 0 87.5 -34.5t34.5 -87.5q0 -52 -34.5 -87t-87.5 -35q-52 0 -87 35z" />
    <glyph glyph-name="ellipsis" unicode="&#x2026;" horiz-adv-x="574" 
d="M41 89h78v-89h-78v89zM455 89h78v-89h-78v89zM248 89h78v-89h-78v89z" />
    <glyph glyph-name="perthousand" unicode="&#x2030;" horiz-adv-x="969" 
d="M58.5 295.5q-25.5 31.5 -25.5 95.5v181q0 63 26 94t79 31q54 0 79.5 -31t25.5 -94v-181q0 -64 -25.5 -95.5t-79.5 -31.5t-79.5 31.5zM439 690h63l-248 -690h-63zM166 341q8 15 8 50v181q0 34 -8 48.5t-28 14.5t-28 -14.5t-8 -48.5v-181q0 -35 8 -50t28 -15t28 15z
M474.5 23.5q-25.5 31.5 -25.5 95.5v181q0 63 26 94t79 31q54 0 79.5 -31t25.5 -94v-181q0 -64 -25.5 -95.5t-79.5 -31.5t-79.5 31.5zM752.5 23.5q-25.5 31.5 -25.5 95.5v181q0 63 26 94t79 31q54 0 79.5 -31t25.5 -94v-181q0 -64 -25.5 -95.5t-79.5 -31.5t-79.5 31.5z
M582 69q8 15 8 50v181q0 34 -8 48.5t-28 14.5t-28 -14.5t-8 -48.5v-181q0 -35 8 -50t28 -15t28 15zM860 69q8 15 8 50v181q0 34 -8 48.5t-28 14.5t-28 -14.5t-8 -48.5v-181q0 -35 8 -50t28 -15t28 15z" />
    <glyph glyph-name="guilsinglleft" unicode="&#x2039;" horiz-adv-x="258" 
d="M20 264l179 183v-76l-104 -107l104 -107v-76z" />
    <glyph glyph-name="guilsinglright" unicode="&#x203a;" horiz-adv-x="268" 
d="M59 157l104 107l-104 107v76l179 -183l-179 -183v76z" />
    <glyph glyph-name="Euro" unicode="&#x20ac;" horiz-adv-x="455" 
d="M129 41q-36 49 -36 138v74h-63v62h63v66h-63v63h63v77q0 82 38.5 130.5t118.5 48.5q73 0 111.5 -42.5t40.5 -120.5h-68q-3 49 -22 73.5t-61 24.5q-85 0 -85 -109v-82h174l-12 -63h-162v-66h149l-12 -62h-137v-77q0 -58 18.5 -88.5t66.5 -30.5q41 0 60 24.5t23 74.5h69
q-2 -81 -42 -122.5t-111 -41.5q-85 0 -121 49z" />
    <glyph glyph-name="trademark" unicode="&#x2122;" horiz-adv-x="669" 
d="M115 630h-85v60h235v-60h-85v-334h-65v334zM318 690h65l81 -244h2l79 244h64v-394h-61v240h-2l-61 -179h-42l-61 179h-2v-240h-62v394z" />
    <glyph glyph-name="NULL" horiz-adv-x="600" 
 />
    <glyph glyph-name="t_t" horiz-adv-x="551" 
d="M417 454v-315q0 -40 19 -59.5t57 -19.5h15v-60h-17q-142 0 -142 136v318h-188v-315q0 -40 19 -59.5t58 -19.5h14v-60h-17q-142 0 -142 136v318h-66v53h66v118l68 31v-149h188v118l68 31v-149h99v-53h-99z" />
    <glyph glyph-name="zero.dnom" horiz-adv-x="275" 
d="M58.5 25.5q-25.5 31.5 -25.5 95.5v181q0 63 26 94t79 31q54 0 79.5 -31t25.5 -94v-181q0 -64 -25.5 -95.5t-79.5 -31.5t-79.5 31.5zM166 71q8 15 8 50v181q0 34 -8 48.5t-28 14.5t-28 -14.5t-8 -48.5v-181q0 -35 8 -50t28 -15t28 15z" />
    <glyph glyph-name="one.dnom" horiz-adv-x="199" 
d="M83 340l-62 -50v79l62 49h71v-418h-71v340z" />
    <glyph glyph-name="two.dnom" horiz-adv-x="271" 
d="M32 60l115 178q12 19 17 33t5 32v20q0 19 -8.5 30t-25.5 11q-34 0 -34 -46v-22h-67v30q0 45 28 72t75 27q46 0 73.5 -27.5t27.5 -72.5v-24q0 -26 -8 -47t-25 -47l-93 -145h126v-62h-206v60z" />
    <glyph glyph-name="three.dnom" horiz-adv-x="268" 
d="M56.5 20.5q-26.5 26.5 -26.5 72.5v25h66v-23q0 -19 9 -29.5t26 -10.5q36 0 36 46v36q0 25 -9.5 36.5t-30.5 11.5h-18v61h18q38 0 38 44v30q0 44 -34 44q-17 0 -25.5 -10.5t-8.5 -29.5v-23h-67v26q0 45 27.5 71.5t74.5 26.5q48 0 75 -27t27 -75v-24q0 -30 -10.5 -49.5
t-33.5 -30.5q26 -11 36 -31.5t10 -54.5v-35q0 -48 -28.5 -76t-75.5 -28q-49 0 -75.5 26.5z" />
    <glyph glyph-name="four.dnom" horiz-adv-x="283" 
d="M258 74h-31v-74h-70v74h-134v62l92 282h70l-92 -282h64v96h70v-96h31v-62z" />
    <glyph glyph-name="zero.numr" horiz-adv-x="275" 
d="M58.5 298.5q-25.5 31.5 -25.5 95.5v181q0 63 26 94t79 31q54 0 79.5 -31t25.5 -94v-181q0 -64 -25.5 -95.5t-79.5 -31.5t-79.5 31.5zM166 344q8 15 8 50v181q0 34 -8 48.5t-28 14.5t-28 -14.5t-8 -48.5v-181q0 -35 8 -50t28 -15t28 15z" />
    <glyph glyph-name="one.numr" horiz-adv-x="199" 
d="M83 613l-62 -50v79l62 49h71v-418h-71v340z" />
    <glyph glyph-name="two.numr" horiz-adv-x="271" 
d="M32 333l115 178q12 19 17 33t5 32v20q0 19 -8.5 30t-25.5 11q-34 0 -34 -46v-22h-67v30q0 45 28 72t75 27q46 0 73.5 -27.5t27.5 -72.5v-24q0 -26 -8 -47t-25 -47l-93 -145h126v-62h-206v60z" />
    <glyph glyph-name="three.numr" horiz-adv-x="268" 
d="M56.5 293.5q-26.5 26.5 -26.5 72.5v25h66v-23q0 -19 9 -29.5t26 -10.5q36 0 36 46v36q0 25 -9.5 36.5t-30.5 11.5h-18v61h18q38 0 38 44v30q0 44 -34 44q-17 0 -25.5 -10.5t-8.5 -29.5v-23h-67v26q0 45 27.5 71.5t74.5 26.5q48 0 75 -27t27 -75v-24q0 -30 -10.5 -49.5
t-33.5 -30.5q26 -11 36 -31.5t10 -54.5v-35q0 -48 -28.5 -76t-75.5 -28q-49 0 -75.5 26.5z" />
    <glyph glyph-name="four.numr" horiz-adv-x="283" 
d="M258 347h-31v-74h-70v74h-134v62l92 282h70l-92 -282h64v96h70v-96h31v-62z" />
    <glyph glyph-name="zero.sups" horiz-adv-x="275" 
d="M58.5 455.5q-25.5 31.5 -25.5 95.5v181q0 63 26 94t79 31q54 0 79.5 -31t25.5 -94v-181q0 -64 -25.5 -95.5t-79.5 -31.5t-79.5 31.5zM166 501q8 15 8 50v181q0 34 -8 48.5t-28 14.5t-28 -14.5t-8 -48.5v-181q0 -35 8 -50t28 -15t28 15z" />
    <glyph glyph-name="one.sups" horiz-adv-x="199" 
d="M83 770l-62 -50v79l62 49h71v-418h-71v340z" />
    <glyph glyph-name="two.sups" horiz-adv-x="271" 
d="M32 490l115 178q12 19 17 33t5 32v20q0 19 -8.5 30t-25.5 11q-34 0 -34 -46v-22h-67v30q0 45 28 72t75 27q46 0 73.5 -27.5t27.5 -72.5v-24q0 -26 -8 -47t-25 -47l-93 -145h126v-62h-206v60z" />
    <glyph glyph-name="three.sups" horiz-adv-x="268" 
d="M56.5 450.5q-26.5 26.5 -26.5 72.5v25h66v-23q0 -19 9 -29.5t26 -10.5q36 0 36 46v36q0 25 -9.5 36.5t-30.5 11.5h-18v61h18q38 0 38 44v30q0 44 -34 44q-17 0 -25.5 -10.5t-8.5 -29.5v-23h-67v26q0 45 27.5 71.5t74.5 26.5q48 0 75 -27t27 -75v-24q0 -30 -10.5 -49.5
t-33.5 -30.5q26 -11 36 -31.5t10 -54.5v-35q0 -48 -28.5 -76t-75.5 -28q-49 0 -75.5 26.5z" />
    <glyph glyph-name="four.sups" horiz-adv-x="283" 
d="M258 504h-31v-74h-70v74h-134v62l92 282h70l-92 -282h64v96h70v-96h31v-62z" />
    </font>
</defs>
</svg>
