<svg xmlns="http://www.w3.org/2000/svg" width="261" height="54.571" viewBox="0 0 261 54.571">
  <g id="Group_1938" data-name="Group 1938" transform="translate(-553 -52.904)">
    <g id="Group_1708" data-name="Group 1708" transform="translate(553 52.904)">
      <path id="Path_1" data-name="Path 1" d="M265.569,291.25a6.693,6.693,0,0,1-2.125,1.829c-3.71,2.257-7.486,4.4-11.256,6.553q-3.925,2.243-7.781,4.6a4.984,4.984,0,0,1-2.341.783c-.472.011-.559-.1-.5-.66a34.973,34.973,0,0,0,.166-3.55q-.014-9.763,0-19.526c0-.835-.077-1.663-.156-2.493a2.1,2.1,0,0,1,0-.716A8.26,8.26,0,0,1,242,277.2l.922.56s4.331,2.648,6.423,4.043c1.873.994,3.693,2.073,5.522,3.124a4.089,4.089,0,0,1,1.007.731.81.81,0,0,1,.279.9c-.643.481-1.391.784-2.074,1.2-.861.526-1.761.989-2.648,1.472a1.481,1.481,0,0,1-2.358-1.4c.009-.915-.067-1.829-.114-2.735a2.406,2.406,0,0,0-3.116-1.991,2.446,2.446,0,0,0-1.708,2.419q-.012,5.892,0,11.785a1.2,1.2,0,0,0,1.965,1.1q4.159-2.554,8.273-5.184c2.252-1.449,4.55-2.823,6.871-4.158a.948.948,0,0,1,.31-.126.673.673,0,0,1,.443.145,31.6,31.6,0,0,0,3.012,1.733A1.144,1.144,0,0,1,265.569,291.25Z" transform="translate(-218.291 -250.519)" fill="#ca0000"/>
      <path id="Path_2" data-name="Path 2" d="M339.767,164.834a34.516,34.516,0,0,1-3.952-2.244c-.057-.232.1-.4.192-.578a3.851,3.851,0,0,0,.438-1.854c.009-1.621,0-3.241,0-4.861,0-.466-.09-.925-.126-1.388a1.586,1.586,0,0,0-.453-.937,4.188,4.188,0,0,0-1.217-.915c-3.389-1.685-6.662-3.6-10.074-5.238l-.608-.289c-.177-.088-.338-.193-.324-.429.01-.033.036-.076.052-.069.467.193.818-.071,1.184-.289,1.8-1.059,3.6-2.132,5.371-3.24a.712.712,0,0,1,.338-.168c.622.211.747.361.738,1a9.046,9.046,0,0,0,.128,1.436,2.415,2.415,0,0,0,2.478,2.05,2.349,2.349,0,0,0,2.361-1.878,10.935,10.935,0,0,0,.116-3.257,3.448,3.448,0,0,0-.746-1.9.6.6,0,0,1-.165-.342c.1-.248.347-.317.548-.433.91-.53,1.835-1.032,2.747-1.557a.572.572,0,0,1,.494-.116,5.2,5.2,0,0,1,.77,3.108V161.6a18.371,18.371,0,0,1-.2,2.916A2.929,2.929,0,0,1,339.767,164.834Z" transform="translate(-292.489 -124.103)" fill="#9b9b9b"/>
      <path id="Path_3" data-name="Path 3" d="M.214,166.941a22.134,22.134,0,0,1-.222-4.069Q0,152.636-.009,142.4a4.909,4.909,0,0,1,.6-2.526.483.483,0,0,1,.355.106c1.05.627,2.063,1.311,3.08,1.982a.276.276,0,0,1,.141.182,16.876,16.876,0,0,0-.528,2.238,7.706,7.706,0,0,0,.165,2.859,2.332,2.332,0,0,0,2.66,1.829,2.349,2.349,0,0,0,2.14-2.118c.082-.522.082-1.053.193-1.572.046-.223.1-.443.35-.529a.229.229,0,0,1,.182.039c1.394,1.134,3.014,1.925,4.49,2.931a11.265,11.265,0,0,1,1.5,1.244c-.082.222-.3.283-.481.374-3.139,1.577-6.187,3.344-9.338,4.918a8.632,8.632,0,0,0-.963.631,1.838,1.838,0,0,0-.78,1.222,7.061,7.061,0,0,0-.165,1.379c.007,1.776-.02,3.552.1,5.327a6.934,6.934,0,0,0,.529,1.829.562.562,0,0,1-.339.433c-1.023.63-2.049,1.247-3.121,1.78C.586,167.045.387,167.2.214,166.941Z" transform="translate(0.01 -126.405)" fill="#3bc7dc"/>
      <path id="Path_4" data-name="Path 4" d="M2.286,295.33c.078.056.148.1.258.046A31.017,31.017,0,0,0,6.238,293.2c.233-.073.4.08.578.18,2.666,1.505,5.249,3.148,7.836,4.784,2.263,1.43,4.51,2.883,6.81,4.252.111.066.219.133.33.2,1.109.649,1.992.152,1.993-1.133,0-4.615-.029-9.232.019-13.847.015-1.455.07-2.913.083-4.37a.969.969,0,0,1,.052-.331,9.873,9.873,0,0,1,1.9-1.006s-.295,15.868-.179,23.658a24.929,24.929,0,0,1-.178,3.066c-.028.261-.187.658.35.634-.244.166-.455.024-.674-.07a53.44,53.44,0,0,1-5.511-3.113c-3.126-1.816-6.27-3.6-9.4-5.408-1.939-1.119-3.875-2.245-5.8-3.392a9.239,9.239,0,0,1-1.989-1.653C2.379,295.56,2.265,295.481,2.286,295.33Z" transform="translate(-2.063 -254.794)" fill="#720000"/>
      <path id="Path_5" data-name="Path 5" d="M267.73,13.243l-3.295,1.836c-.152.084-.313.152-.47.228-.214.114-.368-.043-.53-.128-2.406-1.251-4.712-2.674-7.017-4.1-2.183-1.348-4.409-2.621-6.584-3.982a6.169,6.169,0,0,0-1.251-.612,1.253,1.253,0,0,0-1.789,1.079A9.068,9.068,0,0,0,246.683,9c.006,3.623.02,7.246-.006,10.869-.009,1.251.125,2.5.108,3.746-.01.608.481.866.841,1.215a.28.28,0,0,1-.077.475c-.834.491-2.61,1.829-2.61,1.829l-.218.078-.059-1.034s-.193-14.514-.193-21.771c0-1.454.1-2.907.072-4.362.185-.12.342.022.5.069A20.425,20.425,0,0,1,249.456,2.4c2.771,1.636,5.593,3.176,8.356,4.823,2.914,1.733,5.905,3.338,8.751,5.186C266.966,12.669,267.343,12.964,267.73,13.243Z" transform="translate(-220.938 0)" fill="#504f4f"/>
      <path id="Path_6" data-name="Path 6" d="M29.3.49c.244.139.136.374.136.565q0,10.678-.017,21.357c0,1.6.032,3.206.05,4.813,0,.2.008.434.008.434l-.394.21-1.415.629c-.254-.232-.158-.54-.158-.815q-.009-9.356,0-18.711a3.091,3.091,0,0,0-.236-1.361,1.214,1.214,0,0,0-1.552-.689,5.614,5.614,0,0,0-1.2.6c-3.894,2.326-7.76,4.7-11.665,7.013-.84.5-1.678,1.015-2.544,1.454-.149.075-.289.218-.481.124a2.276,2.276,0,0,1-.826-.467q-1.36-.866-2.707-1.733a22.571,22.571,0,0,1,3.561-2.435c4.386-2.529,8.782-5.044,13.164-7.58,1.415-.818,2.791-1.7,4.2-2.53A9.66,9.66,0,0,1,29.3.49Z" transform="translate(-5.693 -0.443)" fill="#00a6bf"/>
      <path id="Path_7" data-name="Path 7" d="M267.268,83.475a1.761,1.761,0,0,1-1.024-1.784c.017-4.731-.015-9.462-.023-14.192a6.227,6.227,0,0,1,.122-1.626,1.332,1.332,0,0,1,1.8-1.008,5.725,5.725,0,0,1,1.307.595c4.585,2.73,9.071,5.629,13.764,8.181.137.074.235.224.413.218a4.305,4.305,0,0,1,1.085,3.08,13.9,13.9,0,0,1-.14,2.346,2.6,2.6,0,0,1-3.867,1.783,2.391,2.391,0,0,1-1.3-2,4.659,4.659,0,0,1-.087-1.146.923.923,0,0,0-.693-1.091c-.252.07-.427-.1-.615-.209-1.449-.855-2.878-1.744-4.338-2.581a3.074,3.074,0,0,0-1.261-.437.479.479,0,0,0-.565.394,4.891,4.891,0,0,0-.175,1.09,25.988,25.988,0,0,0,.029,3.6c.062.606,0,1.217.081,1.822a.653.653,0,0,0,.4.385c2.837,1.307,5.549,2.858,8.314,4.3.7.364,1.387.735,2.094,1.075a3.112,3.112,0,0,1,2.1,3.015c-.031,2.03.089,4.063-.065,6.093a3.628,3.628,0,0,1-.694,1.659c-5.253,2.986-10.259,6.375-15.413,9.514a1.448,1.448,0,0,1-1.582.117,1.314,1.314,0,0,1-.585-1.281c-.009-3.718-.032-7.436-.041-11.155a6.532,6.532,0,0,1,.1-1.338,2.55,2.55,0,0,1,5.04.451c.043.928.062,1.858.1,2.787a1.274,1.274,0,0,0,1.94,1.117c1.664-.9,3.315-1.818,4.971-2.729.967-1.1.592-2.427.591-3.679,0-.447-.385-.727-.746-.943q-5.123-3.041-10.35-5.9A3.409,3.409,0,0,1,267.268,83.475Z" transform="translate(-240.594 -58.552)" fill="#fbfbfb"/>
      <path id="Path_8" data-name="Path 8" d="M249.844,258.93l.374.209c2.732,1.51,5.454,3.038,8.149,4.613.816.481,1.625.963,2.449,1.43a1.617,1.617,0,0,1,.978,1.659,12.369,12.369,0,0,1-.108,2.247,1.337,1.337,0,0,1-.674.891,1.334,1.334,0,0,0-.762-1.092c-1.475-.866-2.937-1.761-4.44-2.578q-3.735-2.027-7.354-4.251c-.491-.3-1-.562-1.508-.842,0-.144-.008.047-.008.047l2.944-2.06A.854.854,0,0,0,249.844,258.93Z" transform="translate(-223.17 -234.007)" fill="#9b9b9b"/>
      <path id="Path_9" data-name="Path 9" d="M321.466,162.138a3.441,3.441,0,0,1-.28-.759c-.014-1.568-.156-3.134-.067-4.7a11.792,11.792,0,0,1,.207-1.469.46.46,0,0,1,.536-.42,2.778,2.778,0,0,1,1.36.416c1.666.986,5.185,3.064,5.185,3.064s-1.2.622-1.724.943c-1.473.9-2.968,1.761-4.442,2.66A2.477,2.477,0,0,1,321.466,162.138Z" transform="translate(-290.183 -139.888)" fill="#504f4f"/>
      <path id="Path_10" data-name="Path 10" d="M36.478,74.335c5.165-2.913,10.16-6.112,15.29-9.084a1.7,1.7,0,0,1,1.411-.282,1.574,1.574,0,0,1,1.077,1.551c.062.7.076,1.409.076,2.118q0,9.041-.007,18.082c-.017.206-.047.413-.048.619q-.032,8.9-.059,17.807a5.092,5.092,0,0,1-.016.528,1.284,1.284,0,0,1-2.032,1.034c-2.668-1.568-5.264-3.255-7.879-4.909-2.562-1.62-5.136-3.218-7.77-4.716a5.46,5.46,0,0,1-.666-3.1,39.818,39.818,0,0,1,.046-5.095,2.373,2.373,0,0,1,1.051-1.849,33.939,33.939,0,0,1,3.034-1.665c2.555-1.373,5.122-2.723,7.684-4.082a1.717,1.717,0,0,1,.775-.541.692.692,0,0,0,.433-.674c-.007-1.76,0-3.522-.006-5.282a1.608,1.608,0,0,0-.071-.473c-.243-.794-.512-.917-1.245-.539-1.836.949-3.59,2.04-5.351,3.118a1,1,0,0,1-.613.241c-.481.245-.32.725-.373,1.1a12.076,12.076,0,0,1-.213,1.416,2.58,2.58,0,0,1-4.912.068A7.989,7.989,0,0,1,36.478,74.335Z" transform="translate(-32.346 -58.66)" fill="#fbfbfb"/>
      <path id="Path_11" data-name="Path 11" d="M96.06,156.285c2.081-1.324,4.181-2.613,6.386-3.725a.36.36,0,0,1,.526.117,1.979,1.979,0,0,1,.481,1.317c-.024,1.778-.024,3.557-.013,5.334a.6.6,0,0,1-.4.665,9.27,9.27,0,0,0-.9.443c-.467-.013-.636-.447-.946-.674-1.306-.976-2.768-1.706-4.107-2.628A3.512,3.512,0,0,1,96.06,156.285Z" transform="translate(-86.813 -137.816)" fill="#00a6bf"/>
      <path id="Path_12" data-name="Path 12" d="M104.206,323s.121,4.326.023,6.345a1.384,1.384,0,0,1-2.173,1.239c-1.492-.811-3-1.6-4.428-2.511-.174-.111-.64-.533-.793-.651s.674-.528,1.047-.793c.806-.578,1.692-1.023,2.539-1.534a34.593,34.593,0,0,1,3.15-1.7A6.822,6.822,0,0,0,104.206,323Z" transform="translate(-87.496 -291.91)" fill="#720000"/>
      <path id="Path_13" data-name="Path 13" d="M100.594,289.362a2.837,2.837,0,0,0-.885.353c-1.717.839-3.327,1.867-4.979,2.823a2.569,2.569,0,0,0-1.223,1.245,1.721,1.721,0,0,1-.662-1.423,12.737,12.737,0,0,1,.1-2.3c.02-.247.2-.344.373-.464a58.891,58.891,0,0,1,5.445-3.243q.713-.4,1.422-.8c.2-.116.344-.179.347.165C100.537,286.927,100.57,288.141,100.594,289.362Z" transform="translate(-83.885 -257.983)" fill="#3bc7dc"/>
    </g>
    <text id="Auctionsoftware.com" transform="translate(611 92)" font-size="31" font-family="DINCondensed-Bold, DIN Condensed" font-weight="700"><tspan x="0" y="0">Auctionsoftware.com</tspan></text>
  </g>
</svg>
