<svg xmlns="http://www.w3.org/2000/svg" width="103.92" height="80.133" viewBox="0 0 103.92 80.133">
  <g id="Group_2007" data-name="Group 2007" transform="translate(-332.373 -1859.33)">
    <path id="Path_15101" data-name="Path 15101" d="M171.216,198.784l-16.783-10.6V145.963a1.593,1.593,0,0,0-1.593-1.593h-3.186a1.593,1.593,0,1,0,0,3.186h1.593v39.828H90.707V147.556H92.7a1.593,1.593,0,1,0,0-3.186H89.114a1.593,1.593,0,0,0-1.593,1.593v42.219l-16.783,10.6a1.593,1.593,0,0,0,.852,2.939H85.928a1.593,1.593,0,0,0,0-3.186H77.1l12.618-7.966h62.514l12.618,7.966H93.893a1.593,1.593,0,1,0,0,3.186h76.47a1.593,1.593,0,0,0,.852-2.939Z" transform="translate(263.004 1737.139)" fill="#7ccdff" stroke="#003058" stroke-width="1.2"/>
    <path id="Path_15102" data-name="Path 15102" d="M246.219,64.108,251.867,51.2l3.417-7.814h0a1.6,1.6,0,0,0,.135-.645l-.055-14.9a1.683,1.683,0,0,0-.741-1.307,1.593,1.593,0,0,0-2,.136l-10.993,10.18a1.585,1.585,0,0,0-.383.534l-3.425,7.838-2.43,5.576c.294-4.134.055-8.419-1.792-10.252l-.1-.08h0a8.913,8.913,0,0,0,1-6.373c-1.068-4.66-5.759-7.5-5.959-7.623a1.593,1.593,0,0,0-2.27,2.007,1.355,1.355,0,0,1-.326,1.458,8.429,8.429,0,0,0-3.911,5.688h0a7.967,7.967,0,0,0,1.011,4.963c-1.824,1.84-2.063,6.109-1.768,10.22l-2.43-5.576-3.433-7.831a1.6,1.6,0,0,0-.383-.533l-11.008-10.2a1.648,1.648,0,0,0-2.031-.112,1.593,1.593,0,0,0-.686,1.282l-.055,14.9a1.594,1.594,0,0,0,.135.645l3.417,7.814,5.648,12.912h0a19.069,19.069,0,0,1,1.872-3.681L208.343,51.4l2.621-1.115,3.314,7.583h0a19.337,19.337,0,0,1,2.493-2.262L213.9,49.037l2.621-1.115,2.676,6.118h0a20.425,20.425,0,0,1,5.369-1.944c-.1-.972-.167-1.912-.207-2.8a10.6,10.6,0,0,1,7.966-.04c-.04.892-.112,1.832-.207,2.8A20.422,20.422,0,0,1,237.482,54l2.676-6.118L242.779,49,239.9,55.569h0a19.323,19.323,0,0,1,2.493,2.262l3.314-7.583,2.621,1.115-3.983,9.025h0a19.07,19.07,0,0,1,1.872,3.72ZM204.439,41.63l.04-10.2,7.575,7-.661,1.593L208.8,37.942h0a1.593,1.593,0,0,0-2.589,1.2l-.08,3.114Zm2.653,6.858-1.3-2.963,1.314.486a1.593,1.593,0,0,0,2.151-1.449l.055-2.119,1.745,1.4a1.593,1.593,0,0,0,2.469-.629l.47-1.139L215.28,45Zm18.1-12.45a5.529,5.529,0,0,1,2.668-3.56l.159-.127h0a4.789,4.789,0,0,0,1.06-1.41,8.235,8.235,0,0,1,2.31,3.856,5.871,5.871,0,0,1-.845,4.4,12.625,12.625,0,0,0-4.588,0,4.9,4.9,0,0,1-.765-3.154Zm3.146,9.32a14.85,14.85,0,0,0-3.919.526,5.349,5.349,0,0,1,.892-3.082c.844-.836,5.2-.836,6.046,0a5.171,5.171,0,0,1,.892,3.082,14.857,14.857,0,0,0-3.911-.526Zm23.85-13.932.048,10.2-1.688.622-.08-3.114a1.593,1.593,0,0,0-2.589-1.2l-2.605,2.087-.661-1.593ZM241.392,44.968l1.282-2.891.462,1.123a1.593,1.593,0,0,0,2.469.629l1.745-1.4.063,2.134a1.593,1.593,0,0,0,2.143,1.449l1.314-.486-1.3,2.963Z" transform="translate(155.645 1833.763)" fill="#7ccdff" stroke="#003058" stroke-width="1.2"/>
    <path id="Path_15103" data-name="Path 15103" d="M278.431,183.75a15.932,15.932,0,1,0,11.265,4.666A15.931,15.931,0,0,0,278.431,183.75Zm0,28.676a12.746,12.746,0,1,1,9.012-3.733A12.742,12.742,0,0,1,278.431,212.426Z" transform="translate(105.55 1704.929)" fill="#7ccdff" stroke="#003058" stroke-width="1.2"/>
    <path id="Path_15104" data-name="Path 15104" d="M307.065,215.69a1.6,1.6,0,0,0-1.378.8l-7.966,13.86a1.594,1.594,0,0,0,1.378,2.39h15.931a1.594,1.594,0,0,0,1.378-2.39l-7.966-13.86A1.6,1.6,0,0,0,307.065,215.69Zm-5.242,13.86,5.242-9.081,5.242,9.081Z" transform="translate(76.916 1678.804)" fill="#7ccdff" stroke="#003058" stroke-width="1.2"/>
  </g>
</svg>
