<svg xmlns="http://www.w3.org/2000/svg" width="44.033" height="53.974" viewBox="0 0 44.033 53.974">
  <path id="Path_15100" data-name="Path 15100" d="M190.387,110.04h19.778a.682.682,0,0,0,.678-.683V62.215a.682.682,0,0,0-.678-.683H190.387a1.366,1.366,0,0,1,0-2.733h19.778a3.417,3.417,0,0,1,3.411,3.416v47.142a3.417,3.417,0,0,1-3.411,3.416H190.387a1.366,1.366,0,1,1,0-2.733Zm-19.478-25.62h26.643l-9.383-9.383A1.366,1.366,0,1,1,190.1,73.1L201.817,84.82a1.366,1.366,0,0,1,0,1.932L190.1,98.467a1.366,1.366,0,1,1-1.932-1.932l9.382-9.383H170.909a1.366,1.366,0,1,1,0-2.733Z" transform="translate(-169.543 -58.799)" fill="#7ccdff"/>
</svg>
