<svg xmlns="http://www.w3.org/2000/svg" width="86.857" height="78.272" viewBox="0 0 86.857 78.272">
  <g id="Group_2008" data-name="Group 2008" transform="translate(-294.89 -2009.5)">
    <path id="Path_15105" data-name="Path 15105" d="M176.431,297.336h54.376a1.431,1.431,0,0,0,1.431-1.431v-5.724a1.431,1.431,0,0,0-1.431-1.431H176.431A1.431,1.431,0,0,0,175,290.181V295.9a1.431,1.431,0,0,0,1.431,1.431Zm52.945-2.862h-2.862v-2.862h2.862Zm-51.514-2.862h45.791v2.862H177.862Z" transform="translate(134.7 1761.317)" fill="#7ccdff" stroke="#003058" stroke-width="1"/>
    <path id="Path_15106" data-name="Path 15106" d="M290.2,179.367a1.431,1.431,0,0,0,1.411,1.2h14.31a1.431,1.431,0,0,0,1.412-1.2l1.4-8.374.939-1.878h1.978a1.431,1.431,0,1,0,0-2.862h-2.862a1.43,1.43,0,0,0-1.28.791l-1.036,2.071H290.18a1.431,1.431,0,0,0-1.411,1.666Zm15.463-7.39-.954,5.724H292.824l-.954-5.724Z" transform="translate(39.553 1863.781)" fill="#7ccdff" stroke="#003058" stroke-width="1"/>
    <path id="Path_15107" data-name="Path 15107" d="M167.352,358.75H150.181a1.431,1.431,0,0,0-1.431,1.431v11.448a1.431,1.431,0,0,0,1.431,1.431h17.171a1.431,1.431,0,0,0,1.431-1.431V360.181a1.431,1.431,0,0,0-1.431-1.431ZM165.921,370.2h-14.31v-8.586h14.31Z" transform="translate(156.657 1702.765)" fill="#7ccdff" stroke="#003058" stroke-width="1"/>
    <path id="Path_15108" data-name="Path 15108" d="M307.352,358.75H290.181a1.431,1.431,0,0,0-1.431,1.431v11.448a1.431,1.431,0,0,0,1.431,1.431h17.171a1.431,1.431,0,0,0,1.431-1.431V360.181a1.431,1.431,0,0,0-1.431-1.431ZM305.921,370.2h-14.31v-8.586h14.31Z" transform="translate(39.552 1702.765)" fill="#7ccdff" stroke="#003058" stroke-width="1"/>
    <path id="Path_15109" data-name="Path 15109" d="M447.352,358.75H430.181a1.431,1.431,0,0,0-1.431,1.431v11.448a1.431,1.431,0,0,0,1.431,1.431h17.171a1.431,1.431,0,0,0,1.431-1.431V360.181a1.431,1.431,0,0,0-1.431-1.431ZM445.921,370.2h-14.31v-8.586h14.31Z" transform="translate(-77.552 1702.765)" fill="#7ccdff" stroke="#003058" stroke-width="1"/>
    <path id="Path_15110" data-name="Path 15110" d="M91.793,121.021h77.272a4.3,4.3,0,0,0,4.293-4.293V48.043a4.3,4.3,0,0,0-4.293-4.293H91.793A4.3,4.3,0,0,0,87.5,48.043v68.686a4.3,4.3,0,0,0,4.293,4.293Zm77.272-2.862H91.793a1.432,1.432,0,0,1-1.431-1.431V58.059H170.5v58.669A1.432,1.432,0,0,1,169.064,118.159ZM91.793,46.612h77.272a1.432,1.432,0,0,1,1.431,1.431V55.2H90.362V48.043A1.432,1.432,0,0,1,91.793,46.612Z" transform="translate(207.891 1966.25)" fill="#7ccdff" stroke="#003058" stroke-width="1"/>
    <path id="Path_15111" data-name="Path 15111" d="M195.362,80.181a1.431,1.431,0,1,1-1.431-1.431,1.431,1.431,0,0,1,1.431,1.431" transform="translate(120.062 1936.974)" fill="#7ccdff" stroke="#003058" stroke-width="1"/>
    <path id="Path_15112" data-name="Path 15112" d="M160.362,80.181a1.431,1.431,0,1,1-1.431-1.431,1.431,1.431,0,0,1,1.431,1.431" transform="translate(149.338 1936.974)" fill="#7ccdff" stroke="#003058" stroke-width="1"/>
    <path id="Path_15113" data-name="Path 15113" d="M125.362,80.181a1.431,1.431,0,1,1-1.431-1.431,1.431,1.431,0,0,1,1.431,1.431" transform="translate(178.614 1936.974)" fill="#7ccdff" stroke="#003058" stroke-width="1"/>
    <path id="Path_15114" data-name="Path 15114" d="M167.517,463.75h-8.586a1.431,1.431,0,0,0,0,2.862h8.586a1.431,1.431,0,0,0,0-2.862Z" transform="translate(149.338 1614.936)" fill="#7ccdff" stroke="#003058" stroke-width="1"/>
    <path id="Path_15115" data-name="Path 15115" d="M247.862,465.181a1.431,1.431,0,1,1-1.431-1.431,1.431,1.431,0,0,1,1.431,1.431" transform="translate(76.148 1614.936)" fill="#7ccdff" stroke="#003058" stroke-width="1"/>
    <path id="Path_15116" data-name="Path 15116" d="M307.517,463.75h-8.586a1.431,1.431,0,0,0,0,2.862h8.586a1.431,1.431,0,1,0,0-2.862Z" transform="translate(32.233 1614.936)" fill="#7ccdff" stroke="#003058" stroke-width="1"/>
    <path id="Path_15117" data-name="Path 15117" d="M387.862,465.181a1.431,1.431,0,1,1-1.431-1.431,1.431,1.431,0,0,1,1.431,1.431" transform="translate(-40.957 1614.936)" fill="#7ccdff" stroke="#003058" stroke-width="1"/>
    <path id="Path_15118" data-name="Path 15118" d="M447.517,463.75h-8.586a1.431,1.431,0,0,0,0,2.862h8.586a1.431,1.431,0,0,0,0-2.862Z" transform="translate(-84.871 1614.936)" fill="#7ccdff" stroke="#003058" stroke-width="1"/>
    <path id="Path_15119" data-name="Path 15119" d="M527.862,465.181a1.431,1.431,0,1,1-1.431-1.431,1.431,1.431,0,0,1,1.431,1.431" transform="translate(-158.062 1614.936)" fill="#7ccdff" stroke="#003058" stroke-width="1"/>
    <path id="Path_15120" data-name="Path 15120" d="M309.112,255.181a1.431,1.431,0,1,1-1.431-1.431,1.431,1.431,0,0,1,1.431,1.431" transform="translate(24.914 1790.593)" fill="#7ccdff" stroke="#003058" stroke-width="1"/>
    <path id="Path_15121" data-name="Path 15121" d="M379.112,255.181a1.431,1.431,0,1,1-1.431-1.431,1.431,1.431,0,0,1,1.431,1.431" transform="translate(-33.638 1790.593)" fill="#7ccdff" stroke="#003058" stroke-width="1"/>
  </g>
</svg>
