<svg xmlns="http://www.w3.org/2000/svg" width="55.974" height="70.37" viewBox="0 0 55.974 70.37">
  <g id="Group_1" data-name="Group 1" transform="translate(-146.225 -51.5)">
    <path id="Path_1" data-name="Path 1" d="M300.152,222.8a17.555,17.555,0,1,1,12.411-5.142A17.438,17.438,0,0,1,300.152,222.8Zm0-32.794A15.249,15.249,0,1,0,315.4,205.26,15.266,15.266,0,0,0,300.152,190.011Z" transform="translate(-125.94 -125.779)" fill="#33599c"/>
    <path id="Path_2" data-name="Path 2" d="M403.929,350.761l-6.129-6.129,1.622-1.622,4.507,4.507,9.725-9.717,1.622,1.622Z" transform="translate(-232.326 -264.394)" fill="#33599c"/>
    <path id="Path_3" data-name="Path 3" d="M174.212,107.478a6.761,6.761,0,0,1-3.191-.8,5.882,5.882,0,0,1-.6-.36,6.467,6.467,0,0,1-1-.826l-2.923-2.923a4.445,4.445,0,0,0-3.16-1.308h-4.132a6.779,6.779,0,0,1-6.772-6.771V90.354a4.477,4.477,0,0,0-1.308-3.16L148.2,84.271a6.775,6.775,0,0,1,0-9.572l2.923-2.923a4.5,4.5,0,0,0,1.308-3.16V64.484a6.779,6.779,0,0,1,6.772-6.771h4.132A4.445,4.445,0,0,0,166.5,56.4l2.923-2.923a6.779,6.779,0,0,1,9.58,0l2.923,2.923a4.414,4.414,0,0,0,3.16,1.308h4.132a6.779,6.779,0,0,1,6.772,6.771v4.132a4.445,4.445,0,0,0,1.308,3.16l2.923,2.923a6.775,6.775,0,0,1,0,9.572L197.3,87.194a4.445,4.445,0,0,0-1.308,3.16v4.132a6.779,6.779,0,0,1-6.772,6.771h-4.132a4.445,4.445,0,0,0-3.16,1.308L179,105.488a6.788,6.788,0,0,1-1.6,1.186A6.761,6.761,0,0,1,174.212,107.478ZM159.2,60a4.482,4.482,0,0,0-4.476,4.476v4.132a6.72,6.72,0,0,1-1.982,4.782l-2.923,2.923a4.48,4.48,0,0,0,0,6.328l2.923,2.923a6.724,6.724,0,0,1,1.982,4.79v4.132a4.482,4.482,0,0,0,4.476,4.476h4.132a6.75,6.75,0,0,1,4.79,1.982l2.923,2.923a4.545,4.545,0,0,0,.666.551c.122.084.252.161.39.237a4.472,4.472,0,0,0,4.216,0c.138-.069.268-.153.39-.23a4.175,4.175,0,0,0,.666-.551l2.923-2.923a6.724,6.724,0,0,1,4.79-1.982h4.132a4.482,4.482,0,0,0,4.476-4.476V90.361a6.737,6.737,0,0,1,1.982-4.79l2.923-2.923a4.48,4.48,0,0,0,0-6.328L195.674,73.4a6.724,6.724,0,0,1-1.982-4.79V64.477A4.482,4.482,0,0,0,189.216,60h-4.132a6.737,6.737,0,0,1-4.79-1.982L177.372,55.1a4.479,4.479,0,0,0-6.328,0l-2.923,2.923A6.724,6.724,0,0,1,163.332,60H159.2Z" transform="translate(0)" fill="#33599c"/>
    <path id="Path_4" data-name="Path 4" d="M240.151,694.8l-5.279-6.488-8.271,1.255,6.825-17.667h4.132a6.751,6.751,0,0,1,4.79,1.982l2.923,2.923a4.542,4.542,0,0,0,.666.551l.757.513Zm-4.323-8.96,3.611,4.438,4.484-11.6c-.092-.084-.184-.168-.268-.253l-2.923-2.923a4.445,4.445,0,0,0-3.16-1.308h-2.563l-4.836,12.51Z" transform="translate(-74.225 -572.931)" fill="#33599c"/>
    <path id="Path_5" data-name="Path 5" d="M541.342,694.708l-6.542-16.94.757-.513a4.536,4.536,0,0,0,.666-.551l2.923-2.923a6.724,6.724,0,0,1,4.79-1.982h4.132l6.825,17.667-8.271-1.255Zm-3.772-16.121,4.484,11.607,3.611-4.438,5.654.857-4.836-12.51H543.92a4.446,4.446,0,0,0-3.16,1.308l-2.923,2.923C537.753,678.418,537.662,678.5,537.57,678.587Z" transform="translate(-358.844 -572.838)" fill="#33599c"/>
  </g>
</svg>
