<svg xmlns="http://www.w3.org/2000/svg" width="70.19" height="70.276" viewBox="0 0 70.19 70.276">
  <g id="Group_2" data-name="Group 2" transform="translate(-1260.384 -1173)">
    <path id="Path_6" data-name="Path 6" d="M36.747,57.475A3.413,3.413,0,0,0,33.273,54H5.475A3.413,3.413,0,0,0,2,57.475v5.791H36.747Zm-2.316,3.475H4.316V57.475a1.094,1.094,0,0,1,1.158-1.158h27.8a1.094,1.094,0,0,1,1.158,1.158Z" transform="translate(1258.384 1179.199)" fill="#ac6b67"/>
    <path id="Path_7" data-name="Path 7" d="M31.481,53.633V52.475A3.413,3.413,0,0,0,28.007,49H9.475A3.413,3.413,0,0,0,6,52.475v1.158H8.316V52.475a1.094,1.094,0,0,1,1.158-1.158H28.007a1.094,1.094,0,0,1,1.158,1.158v1.158Z" transform="translate(1259.017 1178.408)" fill="#ac6b67"/>
    <path id="Path_8" data-name="Path 8" d="M40,7V18l8.571,6.139,1.39-1.853-7.644-5.444V7Z" transform="translate(1264.397 1171.762)" fill="#ac6b67"/>
    <path id="Path_9" data-name="Path 9" d="M47.433,47.19a1.051,1.051,0,0,1,.811-.347h4.98a1.051,1.051,0,0,1,.811.347l15.52,15.52,1.622-1.622-15.4-15.52a3.334,3.334,0,0,0-2.432-1.042H50.1l-13.32-13.32,4.054-4.054h2.316L45,25.3a2.239,2.239,0,0,0,0-3.243h0L35.04,12.095a2.239,2.239,0,0,0-3.243,0l-1.853,1.853v2.316L13.265,32.943H10.948L9.095,34.8a2.239,2.239,0,0,0,0,3.243h0L19.056,48A2.239,2.239,0,0,0,22.3,48h0l1.853-1.853V43.831l6.37-6.37,11.7,11.7-.695.579a4.895,4.895,0,0,0,0,6.834l.347.347h0L52.992,67a3.427,3.427,0,0,0,4.749-.116l1.39-1.39a1.12,1.12,0,0,1,1.622,0h0l5.328,5.328L67.7,69.2l-5.328-5.328a3.358,3.358,0,0,0-4.865,0l-1.39,1.39a1.12,1.12,0,0,1-1.622,0l-.463-.463,2.2-2.2-1.622-1.622-2.2,2.2-1.969-1.737,2.316-2.316L51.139,57.5,48.707,59.93l-2.432-2.2a4.633,4.633,0,0,0,2.085-1.158l1.506-1.506a1.12,1.12,0,0,1,1.622,0h0L53.8,57.382a3.334,3.334,0,0,0,2.432,1.042h3.822V56.108H56.351a1.052,1.052,0,0,1-.811-.347l-2.316-2.316a3.358,3.358,0,0,0-4.865,0L46.738,54.95a2.539,2.539,0,0,1-3.591-3.591ZM33.418,13.716l9.961,9.961-1.158,1.158h-1.39L32.26,16.265v-1.39ZM31.1,18.349l7.644,7.644L22.994,41.746,15.349,34.1ZM20.677,46.379l-9.961-9.961,1.158-1.158h1.39l8.571,8.571v1.39Zm11.467-10.54,3.011-3.011,11.93,11.93a3,3,0,0,0-1.274.811l-1.969,1.969Z" transform="translate(1259.397 1172.458)" fill="#ac6b67"/>
    <path id="Path_10" data-name="Path 10" d="M36.486,33.153A16.2,16.2,0,1,0,30,8.25l1.853,1.39A13.866,13.866,0,0,1,53.744,26.667a13.99,13.99,0,0,1-16.331,4.285Z" transform="translate(1262.815 1170.975)" fill="#ac6b67"/>
  </g>
</svg>
