<svg xmlns="http://www.w3.org/2000/svg" width="61.857" height="70.21" viewBox="0 0 61.857 70.21">
  <g id="Group_3" data-name="Group 3" transform="translate(-2182.156 -825)">
    <path id="Path_11" data-name="Path 11" d="M231.848,176.156a1.1,1.1,0,0,0-.395-.014,2.617,2.617,0,0,1-2.315-2.6,1.152,1.152,0,0,0-2.3,0,4.926,4.926,0,0,0,3.622,4.744v1.152a1.152,1.152,0,1,0,2.3,0V178.36a4.918,4.918,0,0,0-1.008-9.731,2.615,2.615,0,1,1,2.615-2.615,1.152,1.152,0,0,0,2.3,0,4.926,4.926,0,0,0-3.91-4.814v-1.048a1.152,1.152,0,1,0-2.3,0v1.119a4.918,4.918,0,0,0,1.3,9.661,2.613,2.613,0,1,1,.1,5.225Z" transform="translate(1982.052 687.162)" fill="#b877a6"/>
    <path id="Path_12" data-name="Path 12" d="M144.992,135.192a16.7,16.7,0,1,0,16.7-16.7A16.7,16.7,0,0,0,144.992,135.192Zm16.7-14.4a14.4,14.4,0,1,1-14.4,14.4A14.4,14.4,0,0,1,161.692,120.8Z" transform="translate(2052.112 721.838)" fill="#b877a6"/>
    <path id="Path_13" data-name="Path 13" d="M95.181,342.945l-9.022,4.262a7.349,7.349,0,0,0-6.264-3.865l-8.328-.229a8.8,8.8,0,0,1-3.785-.978l-.847-.439a14.946,14.946,0,0,0-13.845.014l.053-1.92a1.152,1.152,0,0,0-1.119-1.183l-9.132-.251a1.152,1.152,0,0,0-1.183,1.12l-.551,20.04a1.152,1.152,0,0,0,1.12,1.183l9.132.251h.032a1.152,1.152,0,0,0,1.152-1.12l.026-.959,2.372-1.27a4.074,4.074,0,0,1,3.037-.332l14.167,3.977.075.018a15.172,15.172,0,0,0,3.114.321,15.37,15.37,0,0,0,6.419-1.4,1.163,1.163,0,0,0,.143-.079l20.541-13.287a1.152,1.152,0,0,0,.377-1.534A5.817,5.817,0,0,0,95.181,342.945ZM43.49,358.429l.488-17.738,6.83.188-.488,17.738Zm37.274-.3a13.057,13.057,0,0,1-7.985.891L58.65,355.053a6.368,6.368,0,0,0-4.747.519l-1.212.649.324-11.794a12.658,12.658,0,0,1,12.86-.686l.847.439a11.12,11.12,0,0,0,4.781,1.235l8.328.229a5.052,5.052,0,0,1,4.8,4.025l-12.406-.342a1.152,1.152,0,0,0-.063,2.3l13.69.377h.032a1.152,1.152,0,0,0,1.151-1.12,7.345,7.345,0,0,0-.111-1.494l9.253-4.372.027-.013a3.518,3.518,0,0,1,3.979.557Z" transform="translate(2141 533.624)" fill="#b877a6"/>
    <path id="Path_14" data-name="Path 14" d="M255.3,24.092V13.152a1.152,1.152,0,0,0-2.3,0V24.092a1.152,1.152,0,0,0,2.3,0Z" transform="translate(1959.652 813)" fill="#b877a6"/>
    <path id="Path_15" data-name="Path 15" d="M315.3,58.334V53.152a1.152,1.152,0,0,0-2.3,0v5.182a1.152,1.152,0,0,0,2.3,0Z" transform="translate(1908.29 778.758)" fill="#b877a6"/>
    <path id="Path_16" data-name="Path 16" d="M195.3,58.334V53.152a1.152,1.152,0,0,0-2.3,0v5.182a1.152,1.152,0,1,0,2.3,0Z" transform="translate(2011.015 778.758)" fill="#b877a6"/>
  </g>
</svg>
