<svg xmlns="http://www.w3.org/2000/svg" width="58.831" height="70.86" viewBox="0 0 58.831 70.86">
  <g id="noun_Shop_Local_476754" data-name="noun_Shop Local_476754" transform="translate(-50.97 -24.965)">
    <path id="Path_17" data-name="Path 17" d="M126.986,47.189a1.025,1.025,0,0,1-1.025-1.025V35.606a8.44,8.44,0,0,0-16.88,0V46.164a1.025,1.025,0,1,1-2.051,0V35.606a10.491,10.491,0,1,1,20.981,0V46.164a1.025,1.025,0,0,1-1.025,1.025Z" transform="translate(-43.172)" fill="#ae5ea9" stroke="#ae5ea9" stroke-width="0.3"/>
    <path id="Path_18" data-name="Path 18" d="M180.486,47.189a1.025,1.025,0,0,1-1.025-1.025V35.606a8.44,8.44,0,0,0-16.88,0V46.164a1.025,1.025,0,1,1-2.051,0V35.606a10.491,10.491,0,1,1,20.981,0V46.164A1.025,1.025,0,0,1,180.486,47.189Z" transform="translate(-84.482)" fill="#ae5ea9" stroke="#ae5ea9" stroke-width="0.3"/>
    <path id="Path_19" data-name="Path 19" d="M147.364,189.807c-.576,0-.786-.328-1.208-.98-.212-.326-.508-.8-.861-1.356-.7-1.114-1.627-2.6-2.552-4.085-1.845-2.962-3.677-5.937-3.677-5.937-.093-.153-.18-.305-.262-.456a9.582,9.582,0,0,1-.818-2.051,9.727,9.727,0,1,1,17.942,2.051l-.014.025-.228.412-.016.027-3.682,5.937c-.923,1.485-1.85,2.962-2.552,4.085-.353.56-.647,1.028-.859,1.353C148.15,189.479,147.939,189.807,147.364,189.807Zm0-25.117a7.68,7.68,0,0,0-7.4,9.717,7.519,7.519,0,0,0,.643,1.606c.066.121.137.244.21.365,2.119,3.433,5.117,8.268,6.546,10.528,1.429-2.26,4.42-7.081,6.546-10.519l.228-.385a7.557,7.557,0,0,0,.636-1.595,7.672,7.672,0,0,0-7.4-9.715Zm7.658,11.811Z" transform="translate(-66.808 -106.192)" fill="#ae5ea9" stroke="#ae5ea9" stroke-width="0.3"/>
    <path id="Path_20" data-name="Path 20" d="M165.26,198.008a4.349,4.349,0,1,1,3.076-7.425h0a4.349,4.349,0,0,1-3.076,7.425Zm0-6.648a2.3,2.3,0,1,0,1.624.684h0a2.278,2.278,0,0,0-1.624-.681Z" transform="translate(-84.777 -126.785)" fill="#ae5ea9" stroke="#ae5ea9" stroke-width="0.3"/>
    <path id="Path_21" data-name="Path 21" d="M95.5,164.571H65.269A14.165,14.165,0,0,1,51.12,150.422V115.365a1.025,1.025,0,0,1,1.025-1.025h56.481a1.025,1.025,0,0,1,1.025,1.025v35.057A14.165,14.165,0,0,1,95.5,164.571ZM53.171,116.391v34.032a12.112,12.112,0,0,0,12.1,12.1H95.5a12.112,12.112,0,0,0,12.1-12.1V116.391Z" transform="translate(0 -68.896)" fill="#ae5ea9" stroke="#ae5ea9" stroke-width="0.3"/>
  </g>
</svg>
