<svg id="ach" xmlns="http://www.w3.org/2000/svg" width="588" height="508.484" viewBox="0 0 588 508.484">
  <path id="Path_1563" data-name="Path 1563" d="M800.813,0c26.7,45.158,52.45,90.875,78.88,136.181,3.822,5.88,4.939,12.936,4.851,19.845V319.137c-36.28-12.848-76.7-15.082-113.513-3.028-19.7,6.056-37.485,16.787-54.331,28.43q.088-95.918,0-191.894c0-4.675.147-9.526,3.028-13.465Q760.432,69.722,800.813,0Z" transform="translate(-505.99)" fill="#515db4"/>
  <path id="Path_1564" data-name="Path 1564" d="M0,1110.915Q74.264,982.8,149,854.9c.941,85.436.353,170.932.323,256.368-49.745-.441-99.548,0-149.323-.353" transform="translate(0 -603.559)" fill="#515db4"/>
  <path id="Path_1565" data-name="Path 1565" d="M1493.991,856.4c50.421,85,98.9,171.167,148.529,256.662-49.568.176-99.107-.294-148.646,0-.176-85.583-.441-171.137.118-256.662" transform="translate(-1054.519 -604.618)" fill="#515db4"/>
  <path id="Path_1566" data-name="Path 1566" d="M803.741,1239.347c27.842-4.733,56.83,1.5,81.056,15.788.706,42.307-.5,84.643,1.147,126.89-53.949.206-107.927-.176-161.876-.382-5.615-22.344-8.232-46.158-1.94-68.678,10-37.514,43.218-67.649,81.614-73.618" transform="translate(-507.242 -873.876)" fill="#515db4"/>
</svg>
