<svg fill="#000000" xmlns="http://www.w3.org/2000/svg"  viewBox="0 0 80 80" width="80px" height="80px"><path d="M 28.015625 5.988281 C 27.664063 5.980469 27.332031 6.160156 27.144531 6.457031 C 26.957031 6.757813 26.945313 7.132813 27.105469 7.445313 L 29.78125 12.796875 C 28.640625 13.449219 27.578125 14.183594 26.625 14.984375 C 23.207031 17.875 21 21.550781 21 25 L 21 27.109375 C 20.15625 26.457031 19.144531 26 18 26 C 15.25 26 13 28.25 13 31 L 13 49 C 13 51.75 15.25 54 18 54 C 19.144531 54 20.15625 53.542969 21 52.890625 L 21 57 C 21 58.644531 22.355469 60 24 60 L 27 60 L 27 69 C 27 71.75 29.25 74 32 74 C 34.75 74 37 71.75 37 69 L 37 60 L 43 60 L 43 69 C 43 71.75 45.25 74 48 74 C 50.75 74 53 71.75 53 69 L 53 60 L 56 60 C 57.644531 60 59 58.644531 59 57 L 59 52.890625 C 59.84375 53.542969 60.855469 54 62 54 C 64.75 54 67 51.75 67 49 L 67 31 C 67 28.25 64.75 26 62 26 C 60.855469 26 59.84375 26.457031 59 27.109375 L 59 25 C 59 21.550781 56.792969 17.875 53.375 14.984375 C 52.421875 14.183594 51.359375 13.449219 50.21875 12.796875 L 52.894531 7.445313 C 53.058594 7.128906 53.042969 6.746094 52.847656 6.445313 C 52.652344 6.144531 52.3125 5.96875 51.953125 5.988281 C 51.589844 6.007813 51.265625 6.222656 51.105469 6.554688 L 48.4375 11.882813 C 45.902344 10.722656 43.042969 10 40 10 C 36.957031 10 34.097656 10.722656 31.5625 11.882813 L 28.894531 6.554688 C 28.730469 6.214844 28.390625 5.996094 28.015625 5.988281 Z M 40 12 C 44.703125 12 48.988281 13.902344 52.082031 16.515625 C 55.175781 19.125 57 22.449219 57 25 L 57 31 L 59 31 C 59 29.332031 60.332031 28 62 28 C 63.667969 28 65 29.332031 65 31 L 65 49 C 65 50.667969 63.667969 52 62 52 C 60.332031 52 59 50.667969 59 49 L 57 49 L 57 57 C 57 57.566406 56.566406 58 56 58 L 51 58 L 51 69 C 51 70.667969 49.667969 72 48 72 C 46.332031 72 45 70.667969 45 69 L 45 58 L 35 58 L 35 69 C 35 70.667969 33.667969 72 32 72 C 30.332031 72 29 70.667969 29 69 L 29 58 L 24 58 C 23.433594 58 23 57.566406 23 57 L 23 49 L 21 49 C 21 50.667969 19.667969 52 18 52 C 16.332031 52 15 50.667969 15 49 L 15 31 C 15 29.332031 16.332031 28 18 28 C 19.667969 28 21 29.332031 21 31 L 23 31 L 23 25 C 23 22.449219 24.824219 19.125 27.917969 16.515625 C 31.011719 13.902344 35.296875 12 40 12 Z M 32.996094 17 C 31.894531 17 31 17.890625 31 18.996094 C 31 20.105469 31.894531 21 32.996094 21 C 34.105469 21 35 20.105469 35 18.996094 C 35 17.890625 34.105469 17 32.996094 17 Z M 46.996094 17 C 45.894531 17 45 17.890625 45 18.996094 C 45 20.105469 45.894531 21 46.996094 21 C 48.105469 21 49 20.105469 49 18.996094 C 49 17.890625 48.105469 17 46.996094 17 Z M 26 24 C 25.449219 24 25 24.449219 25 25 C 25 25.550781 25.449219 26 26 26 C 26.550781 26 27 25.550781 27 25 C 27 24.449219 26.550781 24 26 24 Z M 30 24 C 29.449219 24 29 24.449219 29 25 C 29 25.550781 29.449219 26 30 26 C 30.550781 26 31 25.550781 31 25 C 31 24.449219 30.550781 24 30 24 Z M 34 24 C 33.449219 24 33 24.449219 33 25 C 33 25.550781 33.449219 26 34 26 C 34.550781 26 35 25.550781 35 25 C 35 24.449219 34.550781 24 34 24 Z M 38 24 C 37.449219 24 37 24.449219 37 25 C 37 25.550781 37.449219 26 38 26 C 38.550781 26 39 25.550781 39 25 C 39 24.449219 38.550781 24 38 24 Z M 42 24 C 41.449219 24 41 24.449219 41 25 C 41 25.550781 41.449219 26 42 26 C 42.550781 26 43 25.550781 43 25 C 43 24.449219 42.550781 24 42 24 Z M 46 24 C 45.449219 24 45 24.449219 45 25 C 45 25.550781 45.449219 26 46 26 C 46.550781 26 47 25.550781 47 25 C 47 24.449219 46.550781 24 46 24 Z M 50 24 C 49.449219 24 49 24.449219 49 25 C 49 25.550781 49.449219 26 50 26 C 50.550781 26 51 25.550781 51 25 C 51 24.449219 50.550781 24 50 24 Z M 54 24 C 53.449219 24 53 24.449219 53 25 C 53 25.550781 53.449219 26 54 26 C 54.550781 26 55 25.550781 55 25 C 55 24.449219 54.550781 24 54 24 Z M 22 33 C 21.449219 33 21 33.449219 21 34 C 21 34.550781 21.449219 35 22 35 C 22.550781 35 23 34.550781 23 34 C 23 33.449219 22.550781 33 22 33 Z M 58 33 C 57.449219 33 57 33.449219 57 34 C 57 34.550781 57.449219 35 58 35 C 58.550781 35 59 34.550781 59 34 C 59 33.449219 58.550781 33 58 33 Z M 22 37 C 21.449219 37 21 37.449219 21 38 C 21 38.550781 21.449219 39 22 39 C 22.550781 39 23 38.550781 23 38 C 23 37.449219 22.550781 37 22 37 Z M 58 37 C 57.449219 37 57 37.449219 57 38 C 57 38.550781 57.449219 39 58 39 C 58.550781 39 59 38.550781 59 38 C 59 37.449219 58.550781 37 58 37 Z M 22 41 C 21.449219 41 21 41.449219 21 42 C 21 42.550781 21.449219 43 22 43 C 22.550781 43 23 42.550781 23 42 C 23 41.449219 22.550781 41 22 41 Z M 58 41 C 57.449219 41 57 41.449219 57 42 C 57 42.550781 57.449219 43 58 43 C 58.550781 43 59 42.550781 59 42 C 59 41.449219 58.550781 41 58 41 Z M 22 45 C 21.449219 45 21 45.449219 21 46 C 21 46.550781 21.449219 47 22 47 C 22.550781 47 23 46.550781 23 46 C 23 45.449219 22.550781 45 22 45 Z M 58 45 C 57.449219 45 57 45.449219 57 46 C 57 46.550781 57.449219 47 58 47 C 58.550781 47 59 46.550781 59 46 C 59 45.449219 58.550781 45 58 45 Z M 32 58 C 31.449219 58 31 58.449219 31 59 C 31 59.550781 31.449219 60 32 60 C 32.550781 60 33 59.550781 33 59 C 33 58.449219 32.550781 58 32 58 Z M 48 58 C 47.449219 58 47 58.449219 47 59 C 47 59.550781 47.449219 60 48 60 C 48.550781 60 49 59.550781 49 59 C 49 58.449219 48.550781 58 48 58 Z"/></svg>