<svg xmlns="http://www.w3.org/2000/svg" xmlns:xlink="http://www.w3.org/1999/xlink" width="31.254" height="27.61" viewBox="0 0 31.254 27.61">
  <defs>
    <linearGradient id="linear-gradient" x1="0.5" x2="0.5" y2="1" gradientUnits="objectBoundingBox">
      <stop offset="0" stop-color="#f955b2"/>
      <stop offset="1" stop-color="#8b1558"/>
    </linearGradient>
  </defs>
  <g id="logo_4_" data-name="logo (4)" transform="translate(0.003 -8.296)">
    <path id="Path_107" data-name="Path 107" d="M65.3,240.116a13.311,13.311,0,0,1,4.038,9.772V263.7H63.417v-2.435a13.911,13.911,0,0,1-17.663-1.6,14.592,14.592,0,0,1-1.538-1.815l-4.377.38,3.8-1.54,7.471-3.241c.145-.063.295-.115.477-.185l1.162,2.926,8.344-3.225L57.867,244.6l-8.339,3.223,1.089,2.93c-.259.107-.485.215-.721.3q-3.847,1.31-7.694,2.617h0l-4.116,1.3,3.821-2.7a14.747,14.747,0,0,1-.194-2.365,13.787,13.787,0,0,1,13.81-13.81,13.309,13.309,0,0,1,9.777,4.022Zm-7.158,1.679a1.3,1.3,0,0,0-1.747-.708c-.64.225-1.267.486-1.9.73L48.6,244.093a5.568,5.568,0,0,0-.637.293,1.349,1.349,0,0,0-.6.837,1.323,1.323,0,0,0,1.635,1.524,8.144,8.144,0,0,0,.922-.338l7.006-2.708c.153-.059.3-.122.453-.19a1.29,1.29,0,0,0,.764-1.716ZM53.9,259.769a8.321,8.321,0,0,0,1.193-.407q3.241-1.247,6.477-2.5c.305-.118.615-.229.908-.373a1.291,1.291,0,0,0,.709-1.635,1.275,1.275,0,0,0-1.652-.779c-.863.293-1.709.637-2.56.965-1.854.716-3.7,1.441-5.561,2.151a1.453,1.453,0,0,0-1.019,1.048,1.3,1.3,0,0,0,1.5,1.53Z" transform="translate(-38.089 -227.796)" fill="url(#linear-gradient)"/>
  </g>
</svg>
