<svg xmlns="http://www.w3.org/2000/svg" width="376.731" height="323.763" viewBox="0 0 376.731 323.763">
  <g id="Logo_design" data-name="Logo design" transform="translate(-83.527 -77.83)">
    <path id="Path_1546" data-name="Path 1546" d="M1037.615,750.273h-25.971L992.71,708H995.5l11.286,25.2.645,1.439a1.762,1.762,0,0,0,1.607,1.041h2.742a1.759,1.759,0,0,0,1.6-2.48L1002.1,708h16.59Z" transform="translate(-662.81 -459.404)" fill="#fff"/>
    <path id="Path_1547" data-name="Path 1547" d="M1035.794,749.114h-25.971a.677.677,0,0,1-.618-.4l-18.934-42.279a.677.677,0,0,1,.618-.954h2.788a.677.677,0,0,1,.618.4l11.923,26.643a1.084,1.084,0,0,0,.989.639h2.742a1.084,1.084,0,0,0,.987-1.526l-11.3-25.2a.677.677,0,0,1,.618-.954h16.59a.677.677,0,0,1,.618.4l18.934,42.273a.677.677,0,0,1-.6.959Zm-25.532-1.355h24.486l-18.327-40.919h-15.1l10.858,24.253a2.439,2.439,0,0,1-2.222,3.433h-2.742a2.439,2.439,0,0,1-2.225-1.442l-11.753-26.242h-1.3Z" transform="translate(-660.989 -457.567)" fill="#262424"/>
    <path id="Path_1548" data-name="Path 1548" d="M1012.955,750.273H986.981L968.05,708h9.465l.3.677h6.6l-.3-.677h9.907Z" transform="translate(-644.832 -459.404)" fill="#fff"/>
    <path id="Path_1549" data-name="Path 1549" d="M1011.7,748.195l-18.934-42.273a.675.675,0,0,0-.618-.4H966.179a.677.677,0,0,0-.618.954l18.931,42.273a.675.675,0,0,0,.618.4h25.974a.677.677,0,0,0,.621-.954Zm-26.153-.4-18.324-40.919h24.486l18.327,40.919Z" transform="translate(-642.975 -457.596)" fill="#262424"/>
    <rect id="Rectangle_226" data-name="Rectangle 226" width="90.869" height="7.948" rx="3.974" transform="translate(294.366 289.333)" fill="#fff"/>
    <path id="Path_1550" data-name="Path 1550" d="M946.956,865.143H864.035a4.653,4.653,0,0,1,0-9.3h82.921a4.653,4.653,0,0,1,0,9.3Zm-82.921-7.948a3.3,3.3,0,0,0,0,6.593h82.921a3.3,3.3,0,0,0,0-6.593Z" transform="translate(-565.693 -567.182)" fill="#262424"/>
    <rect id="Rectangle_227" data-name="Rectangle 227" width="47.558" height="7.948" rx="3.974" transform="translate(337.678 289.333)" fill="#fff"/>
    <path id="Path_1551" data-name="Path 1551" d="M1063.475,865.143h-39.61a4.653,4.653,0,0,1,0-9.3h39.61a4.653,4.653,0,0,1,0,9.3Zm-39.61-7.948a3.3,3.3,0,0,0,0,6.593h39.61a3.3,3.3,0,0,0,0-6.593Z" transform="translate(-682.212 -567.182)" fill="#262424"/>
    <rect id="Rectangle_228" data-name="Rectangle 228" width="206.072" height="142.258" rx="21.91" transform="translate(235.086 107.852)" fill="#fff"/>
    <path id="Path_1552" data-name="Path 1552" d="M841.133,329.733h-194.2a6.623,6.623,0,0,1-6.615-6.615V192.735a6.623,6.623,0,0,1,6.615-6.615h194.2a6.623,6.623,0,0,1,6.615,6.615V323.118A6.623,6.623,0,0,1,841.133,329.733Zm-194.2-142.266a5.265,5.265,0,0,0-5.26,5.26V323.118a5.268,5.268,0,0,0,5.26,5.26h194.2a5.268,5.268,0,0,0,5.26-5.26V192.735a5.268,5.268,0,0,0-5.26-5.26h-194.2Z" transform="translate(-405.911 -78.945)" fill="#262424"/>
    <rect id="Rectangle_229" data-name="Rectangle 229" width="206.072" height="142.258" rx="21.91" transform="translate(229.219 107.852)" fill="#fff"/>
    <path id="Path_1553" data-name="Path 1553" d="M819.482,329.733h-194.2a6.623,6.623,0,0,1-6.615-6.615V192.735a6.623,6.623,0,0,1,6.615-6.615h194.2a6.623,6.623,0,0,1,6.615,6.615V323.118A6.623,6.623,0,0,1,819.482,329.733Zm-194.2-142.266a5.265,5.265,0,0,0-5.26,5.26V323.118a5.268,5.268,0,0,0,5.26,5.26h194.2a5.268,5.268,0,0,0,5.26-5.26V192.735a5.268,5.268,0,0,0-5.26-5.26h-194.2Z" transform="translate(-390.128 -78.945)" fill="#262424"/>
    <rect id="Rectangle_230" data-name="Rectangle 230" width="192.523" height="128.709" rx="5.91" transform="translate(235.994 114.627)" fill="#fff"/>
    <path id="Path_1554" data-name="Path 1554" d="M835.269,341.184H645.949a2.282,2.282,0,0,1-2.279-2.279V213.4a2.282,2.282,0,0,1,2.279-2.279h189.32a2.282,2.282,0,0,1,2.279,2.279V338.905A2.282,2.282,0,0,1,835.269,341.184ZM645.949,212.467a.924.924,0,0,0-.924.924V338.905a.924.924,0,0,0,.924.924h189.32a.924.924,0,0,0,.924-.924V213.4a.924.924,0,0,0-.924-.924H645.949Z" transform="translate(-408.354 -97.171)" fill="#262424"/>
    <path id="Path_1555" data-name="Path 1555" d="M838.693,619v17.256a1.6,1.6,0,0,1-1.6,1.6H647.772a1.6,1.6,0,0,1-1.6-1.6V619H838.693Z" transform="translate(-410.176 -394.522)" fill="#fff"/>
    <path id="Path_1556" data-name="Path 1556" d="M835.269,636.713H645.949a2.282,2.282,0,0,1-2.279-2.279V617.177a.677.677,0,0,1,.677-.677H836.871a.677.677,0,0,1,.677.677v17.256A2.282,2.282,0,0,1,835.269,636.713ZM645.038,617.855v16.579a.924.924,0,0,0,.924.924h189.32a.924.924,0,0,0,.924-.924V617.855H645.025Z" transform="translate(-408.354 -392.699)" fill="#262424"/>
    <path id="Path_1557" data-name="Path 1557" d="M838.693,215.221v6.9H646.17v-6.9a1.6,1.6,0,0,1,1.6-1.6h189.32a1.6,1.6,0,0,1,1.6,1.6Z" transform="translate(-410.176 -98.993)" fill="#fff"/>
    <path id="Path_1558" data-name="Path 1558" d="M836.87,220.978H644.347a.677.677,0,0,1-.677-.677v-6.9a2.282,2.282,0,0,1,2.279-2.279h189.32a2.282,2.282,0,0,1,2.279,2.279v6.9A.678.678,0,0,1,836.87,220.978Zm-191.856-1.355H836.182v-6.233a.924.924,0,0,0-.924-.924H645.949a.924.924,0,0,0-.924.924v6.233Z" transform="translate(-408.354 -97.171)" fill="#262424"/>
    <path id="Path_1559" data-name="Path 1559" d="M1206.46,245V363.6a1.6,1.6,0,0,1-1.6,1.6H1150.64V245h55.823Z" transform="translate(-777.943 -121.87)" fill="#fff"/>
    <path id="Path_1560" data-name="Path 1560" d="M1203.036,364.061h-54.218a.677.677,0,0,1-.677-.677V243.177a.677.677,0,0,1,.677-.677h55.823a.677.677,0,0,1,.677.677v118.6A2.282,2.282,0,0,1,1203.036,364.061Zm-53.541-1.355h53.541a.924.924,0,0,0,.924-.924V243.855h-54.468V362.706Z" transform="translate(-776.121 -120.047)" fill="#262424"/>
    <rect id="Rectangle_231" data-name="Rectangle 231" width="38.661" height="68.648" rx="9" transform="translate(381.276 129.816)" fill="#70a340"/>
    <rect id="Rectangle_232" data-name="Rectangle 232" width="38.661" height="4.878" rx="2.439" transform="translate(381.276 214.88)" fill="#8bb1b2"/>
    <rect id="Rectangle_233" data-name="Rectangle 233" width="38.661" height="4.878" rx="2.439" transform="translate(381.276 223.779)" fill="#8bb1b2"/>
    <rect id="Rectangle_234" data-name="Rectangle 234" width="136.703" height="5.42" transform="translate(235.994 221.768)" fill="#fff"/>
    <path id="Path_1561" data-name="Path 1561" d="M781.051,613.275h-136.7a.677.677,0,0,1-.677-.677v-5.42a.677.677,0,0,1,.677-.677h136.7a.677.677,0,0,1,.677.677v5.42A.677.677,0,0,1,781.051,613.275ZM645.017,611.92H780.365v-4.065H645.025v4.065Z" transform="translate(-408.354 -385.409)" fill="#262424"/>
    <path id="Path_1562" data-name="Path 1562" d="M849.488,604.5h25.38a.78.78,0,0,1,.78.78v6.3a.781.781,0,0,1-.778.78H849.488a.778.778,0,0,1-.778-.778v-6.3A.78.78,0,0,1,849.488,604.5Z" transform="translate(-557.831 -383.951)" fill="#8bb1b2"/>
    <path id="Path_1563" data-name="Path 1563" d="M832.384,372.952h-20.6l-9.032-14.79H783.9l-9.032,14.79h-20.6l28.757-47.089L793.327,309l10.3,16.863-10.3,16.866h20.6l9.425,15.433Z" transform="translate(-488.983 -168.527)" fill="#8bb1b2"/>
    <path id="Path_1564" data-name="Path 1564" d="M291.456,1120.817,280.448,1138.6l-4.948-8.349,8.289-15.6Z" transform="translate(-139.952 -755.866)" fill="#fff"/>
    <path id="Path_1565" data-name="Path 1565" d="M278.639,1137.446h0a.677.677,0,0,1-.577-.333l-4.948-8.352a.677.677,0,0,1-.016-.664l8.289-15.6a.677.677,0,0,1,1.022-.211l7.669,6.157a.678.678,0,0,1,.152.883l-11.007,17.787A.678.678,0,0,1,278.639,1137.446Zm-4.17-9.045,4.184,7.062,10.1-16.327-6.563-5.271Z" transform="translate(-138.143 -754.031)" fill="#262424"/>
    <path id="Path_1566" data-name="Path 1566" d="M306.252,1174.8c-1.03-.937-3.493-2.609-4.422-3.626A126.271,126.271,0,0,1,287.988,1153l-15.563,1.019c-.485,10.362-.271,20.085-.073,25.714.114,3.135.233,5,.233,5h36.77v-3.572A8.679,8.679,0,0,0,306.252,1174.8Z" transform="translate(-137.495 -783.816)" fill="#3f364b"/>
    <ellipse id="Ellipse_2" data-name="Ellipse 2" cx="2.414" cy="4.363" rx="2.414" ry="4.363" transform="translate(136.863 380.199)" fill="#64606a"/>
    <path id="Path_1567" data-name="Path 1567" d="M309.946,1233.016v3.572h-36.77s-.119-1.864-.236-5h31.54a27.459,27.459,0,0,0-.813-7.457c1.084.889,2.482,1.881,3.189,2.526A8.711,8.711,0,0,1,309.946,1233.016Z" transform="translate(-138.085 -835.672)" fill="#fff"/>
    <path id="Path_1568" data-name="Path 1568" d="M308.122,1235.424h-36.77a.677.677,0,0,1-.677-.634c0-.019-.122-1.9-.236-5.019a.677.677,0,0,1,.677-.7h30.873a25.37,25.37,0,0,0-.813-6.59.677.677,0,0,1,1.084-.715c.436.355.924.729,1.4,1.084.71.542,1.382,1.06,1.824,1.463a9.38,9.38,0,0,1,3.325,6.861v3.572a.678.678,0,0,1-.683.68Zm-36.13-1.355h35.453v-2.894a8.049,8.049,0,0,0-2.881-5.859c-.382-.35-.992-.813-1.642-1.317a29.584,29.584,0,0,1,.415,5.777.677.677,0,0,1-.677.65H271.821c.065,1.683.125,2.938.171,3.642Z" transform="translate(-136.262 -833.83)" fill="#262424"/>
    <path id="Path_1569" data-name="Path 1569" d="M309.957,769.762q-.377.434-.794.845l-30.673,30.518-15.866-7.406,20.416-36.133s-26.014-36.854-27.461-44.078-3.973-43.179,13.731-43.179S289.994,694,289.994,694l22.093,55.262.992,2.482A17.462,17.462,0,0,1,309.957,769.762Z" transform="translate(-124.684 -431.942)" fill="#3f364b"/>
    <path id="Path_1570" data-name="Path 1570" d="M287.318,771.25v10.772a3.314,3.314,0,0,1-1.642,2.862l-6.352,3.715-6.352-3.715a3.314,3.314,0,0,1-1.642-2.862V771.25Z" transform="translate(-136.912 -505.514)" fill="#584c68"/>
    <path id="Path_1571" data-name="Path 1571" d="M338.987,891.4a.677.677,0,0,1-.542-1.084l24.036-32.274-19.6-50.132a.678.678,0,0,1,1.263-.493L363.88,857.9a.678.678,0,0,1-.087.65l-24.261,32.578A.678.678,0,0,1,338.987,891.4Z" transform="translate(-185.741 -531.568)" fill="#262424"/>
    <path id="Path_1572" data-name="Path 1572" d="M308.538,1120.439a.675.675,0,0,1-.29-.065l-13.24-6.254a.677.677,0,0,1,.569-1.222l13.24,6.254a.677.677,0,0,1-.279,1.287Z" transform="translate(-153.932 -754.554)" fill="#262424"/>
    <path id="Path_1573" data-name="Path 1573" d="M380.2,992.241h-.041l-14.985-.889a.679.679,0,0,1,.079-1.355l14.985.878a.683.683,0,1,1-.038,1.366Z" transform="translate(-204.857 -664.984)" fill="#262424"/>
    <path id="Path_1574" data-name="Path 1574" d="M446.417,982.1a11.707,11.707,0,0,1-4.677-9.736c0-5.184,2.889-9.541,6.794-10.766l.992,2.482A17.462,17.462,0,0,1,446.417,982.1Z" transform="translate(-261.143 -644.283)" fill="#584c68"/>
    <path id="Path_1575" data-name="Path 1575" d="M791.864,1110.5l14.446,15.129-9.3,2.71L784,1116.394Z" transform="translate(-510.657 -752.833)" fill="#fff"/>
    <path id="Path_1576" data-name="Path 1576" d="M795.186,1127.192a.678.678,0,0,1-.458-.179l-13.007-11.945a.677.677,0,0,1,.051-1.041l7.859-5.894a.677.677,0,0,1,.9.073l14.446,15.129a.677.677,0,0,1-.3,1.119l-9.3,2.71a.678.678,0,0,1-.184.027Zm-11.948-12.571,12.124,11.135,7.859-2.293-13.259-13.888Z" transform="translate(-508.835 -751.009)" fill="#262424"/>
    <path id="Path_1577" data-name="Path 1577" d="M839.635,1169.625c-1.03-.937-3.493-2.61-4.422-3.626a147.775,147.775,0,0,1-15.069-20.1l-14.338,2.943c-.485,10.362-.271,20.085-.073,25.714.114,3.135.233,5,.233,5h36.773v-3.572A8.688,8.688,0,0,0,839.635,1169.625Z" transform="translate(-526.338 -778.64)" fill="#3f364b"/>
    <ellipse id="Ellipse_3" data-name="Ellipse 3" cx="2.414" cy="4.363" rx="2.414" ry="4.363" transform="translate(281.4 380.199)" fill="#64606a"/>
    <path id="Path_1578" data-name="Path 1578" d="M843.335,1233.023v3.572H806.563s0-.116-.019-.341c-.019-.271-.043-.726-.07-1.322a2.594,2.594,0,0,0-.019-.377c-.019-.133,0-.271-.019-.409-.033-.713-.071-1.569-.106-2.55h31.54a27.442,27.442,0,0,0-.813-7.455c.049.041.1.081.149.119l.06.046c.442.355.919.718,1.374,1.065l.16.122.3.236c.45.349.854.672,1.144.935a11.353,11.353,0,0,1,1.022,1.057,8.869,8.869,0,0,1,1.821,3.374c.019.07.038.138.054.211q.049.211.089.423a7.179,7.179,0,0,1,.1,1.3Z" transform="translate(-526.935 -835.679)" fill="#fff"/>
    <path id="Path_1579" data-name="Path 1579" d="M841.534,1235.443H804.761a.677.677,0,0,1-.675-.629s0-.122-.019-.358-.043-.721-.07-1.325v-.06a1.988,1.988,0,0,0-.016-.306v-.084a2.246,2.246,0,0,0-.016-.328c-.032-.724-.07-1.583-.106-2.566a.677.677,0,0,1,.677-.7H835.4a25.353,25.353,0,0,0-.813-6.588.677.677,0,0,1,1.084-.71l.119.095c.022.016.062.046.1.076.415.333.881.688,1.333,1.032l.165.125.306.239c.572.444.927.734,1.19.973a12.073,12.073,0,0,1,1.084,1.122,9.513,9.513,0,0,1,1.957,3.634v.032c.019.07.038.138.054.211.032.144.065.293.092.442a7.876,7.876,0,0,1,.127,1.423v3.572A.677.677,0,0,1,841.534,1235.443Zm-36.133-1.355h35.456v-2.894a6.523,6.523,0,0,0-.106-1.173c-.024-.127-.052-.271-.084-.393a.678.678,0,0,0-.038-.154v-.032a8.164,8.164,0,0,0-1.694-3.1,10.7,10.7,0,0,0-.959-.995c-.3-.271-.745-.623-1.1-.9l-.306-.239-.16-.122-.073-.057a29.548,29.548,0,0,1,.415,5.777.677.677,0,0,1-.677.65H805.233c.027.688.054,1.306.079,1.843a2.393,2.393,0,0,0,.016.341v.068a2.041,2.041,0,0,0,.016.314v.06C805.368,1233.484,805.384,1233.825,805.4,1234.088Z" transform="translate(-525.134 -833.85)" fill="#262424"/>
    <path id="Path_1580" data-name="Path 1580" d="M472.445,788.675l-12.1,10.658s-34.686-20.053-39.382-23.665-13.549-15.536-13.549-15.536-49.861-34.144-58.351-43c-4.729-4.929-5.983-14.6-6.168-22.2a24,24,0,0,1,23.576-24.581h.658c21.318,0,22.763,28.545,22.763,28.545l35.363,38.458L440,753.39Z" transform="translate(-189.075 -431.957)" fill="#3f364b"/>
    <path id="Path_1581" data-name="Path 1581" d="M366.136,798.835a.675.675,0,0,1-.4-.133c-10.026-7.393-16.395-12.465-18.917-15.107-4.823-5.027-6.108-14.758-6.338-22.036a.678.678,0,0,1,1.355-.043c.222,7.046,1.436,16.424,5.962,21.137,2.471,2.577,8.777,7.609,18.744,14.953a.677.677,0,0,1-.4,1.23Z" transform="translate(-187.322 -497.939)" fill="#262424"/>
    <path id="Path_1582" data-name="Path 1582" d="M654.668,933.627c-.068.073-.138.144-.209.214-3.111,3.027-9.045,1.978-13.257-2.347s-5.105-10.284-2-13.313a5.679,5.679,0,0,1,.715-.591Z" transform="translate(-403.749 -612.199)" fill="#584c68"/>
    <path id="Path_1583" data-name="Path 1583" d="M547.507,867.686a.675.675,0,0,1-.4-.13l-22.063-16.072a68.585,68.585,0,0,1-16.11-16.53l-1.42-2.057-45.479-44.214a.677.677,0,0,1-.206-.485V777.177a.677.677,0,1,1,1.355,0v10.734L508.5,831.973a.683.683,0,0,1,.084.1l1.458,2.111a67.239,67.239,0,0,0,15.782,16.2l22.063,16.072a.677.677,0,0,1-.385,1.225Z" transform="translate(-275.789 -509.342)" fill="#262424"/>
    <path id="Path_1584" data-name="Path 1584" d="M767.67,1107.38a.677.677,0,0,1-.455-1.182l9.755-8.807a.677.677,0,1,1,.908,1.005l-9.755,8.807A.676.676,0,0,1,767.67,1107.38Z" transform="translate(-498.256 -743.141)" fill="#262424"/>
    <path id="Path_1585" data-name="Path 1585" d="M395.988,771.25v10.772a3.314,3.314,0,0,1-1.642,2.862l-6.352,3.71-6.352-3.715A3.314,3.314,0,0,1,380,782.022V771.25Z" transform="translate(-216.134 -505.514)" fill="#584c68"/>
    <path id="Path_1586" data-name="Path 1586" d="M95.092,649.25,88.25,663.815l16.124,4.945.542-17.072Z" transform="translate(-3.443 -416.574)" fill="#fff"/>
    <path id="Path_1587" data-name="Path 1587" d="M102.56,667.619a.671.671,0,0,1-.2-.03l-16.124-4.945a.678.678,0,0,1-.412-.935l6.842-14.565a.677.677,0,0,1,.778-.368l9.823,2.439a.677.677,0,0,1,.515.68l-.542,17.072a.677.677,0,0,1-.683.653Zm-15.175-6.04,14.53,4.458.5-15.638-8.753-2.168Z" transform="translate(-1.63 -414.755)" fill="#262424"/>
    <path id="Path_1588" data-name="Path 1588" d="M98.225,678.036l-5.292-1.626a3.32,3.32,0,0,0-3.918,1.626l-2.591,4.913a3.32,3.32,0,0,0-.171,2.71h0a3.319,3.319,0,0,0,2.059,1.981l6.661,2.209a3.32,3.32,0,0,0,3.574-1l.783-.919a3.319,3.319,0,0,0,.778-1.843l.428-4.572A3.32,3.32,0,0,0,98.225,678.036Z" transform="translate(-1.833 -436.267)" fill="#fff"/>
    <path id="Path_1589" data-name="Path 1589" d="M94.2,688.836a4.016,4.016,0,0,1-1.268-.206l-6.672-2.217a4,4,0,0,1-2.276-5.658l2.591-4.913a4,4,0,0,1,4.718-1.954l5.292,1.626a4.016,4.016,0,0,1,2.8,4.192l-.428,4.571a3.978,3.978,0,0,1-.938,2.217l-.783.919A3.981,3.981,0,0,1,94.2,688.836Zm-4.086-13.771a2.645,2.645,0,0,0-2.339,1.409l-2.59,4.9a2.642,2.642,0,0,0,1.5,3.74l6.672,2.222a2.631,2.631,0,0,0,2.845-.794l.783-.919a2.629,2.629,0,0,0,.618-1.466l.428-4.571a2.653,2.653,0,0,0-1.848-2.772h0L90.9,675.19A2.634,2.634,0,0,0,90.118,675.065Z" transform="translate(0 -434.406)" fill="#262424"/>
    <path id="Path_1590" data-name="Path 1590" d="M131.634,688.157h0a2.331,2.331,0,0,1,1.807,2.141l.238,4.425a4.642,4.642,0,0,1-1.436,3.647l-1.024.967a2.33,2.33,0,0,1-2.363.507l-.271-.095a2.331,2.331,0,0,1-1.355-1.217l-.3-.648a4.642,4.642,0,0,1,0-3.9L129,689.466A2.33,2.33,0,0,1,131.634,688.157Z" transform="translate(-31.327 -444.897)" fill="#fff"/>
    <path id="Path_1591" data-name="Path 1591" d="M127.764,698.817a3.015,3.015,0,0,1-.989-.168l-.271-.095a3.024,3.024,0,0,1-1.742-1.572l-.3-.648a5.311,5.311,0,0,1-.014-4.466l2.076-4.523a3.019,3.019,0,0,1,3.412-1.68h0a3.024,3.024,0,0,1,2.333,2.761l.252,4.425a5.309,5.309,0,0,1-1.658,4.17l-1.024.967A3,3,0,0,1,127.764,698.817Zm1.493-11.869a1.661,1.661,0,0,0-1.507.965l-2.076,4.523a3.956,3.956,0,0,0,0,3.328l.3.65a1.664,1.664,0,0,0,.957.864l.271.095a1.648,1.648,0,0,0,1.677-.36l1.024-.967a3.954,3.954,0,0,0,1.236-3.108l-.252-4.425a1.661,1.661,0,0,0-1.282-1.518h0a1.625,1.625,0,0,0-.344-.049Z" transform="translate(-29.476 -443.068)" fill="#262424"/>
    <path id="Path_1592" data-name="Path 1592" d="M125.243,655.283l2.268,10.3a2.729,2.729,0,0,1-.84,2.615h0a2.729,2.729,0,0,1-2.71.542l-6.555-2.238a1.878,1.878,0,0,1-1.211-2.252h0a1.878,1.878,0,0,1,1.848-1.4l2.826.043-1.9-3.4a1.878,1.878,0,0,1,.081-1.956l2.241-3.349Z" transform="translate(-23.771 -420.169)" fill="#fff"/>
    <path id="Path_1593" data-name="Path 1593" d="M123.066,667.789a3.4,3.4,0,0,1-1.1-.182l-6.563-2.238a2.566,2.566,0,0,1-1.626-3.065,2.536,2.536,0,0,1,2.515-1.91l1.656.027-1.328-2.387a2.547,2.547,0,0,1,.111-2.661l2.241-3.349a.678.678,0,0,1,.742-.271l3.929,1.084a.677.677,0,0,1,.482.507l2.268,10.3a3.4,3.4,0,0,1-3.328,4.149Zm-6.829-6.04a1.2,1.2,0,0,0-.388,2.339l6.555,2.238a2.051,2.051,0,0,0,2.666-2.382l-2.168-9.9-3.065-.845-1.981,2.943a1.2,1.2,0,0,0-.051,1.249l1.9,3.4a.677.677,0,0,1-.6,1.005l-2.826-.043h-.019Z" transform="translate(-21.992 -418.38)" fill="#262424"/>
    <path id="Path_1594" data-name="Path 1594" d="M180.051,451.551c-.36,15.9-41.008,24.21-41.008,24.21S127.12,489.67,120.074,498.7l-11.744-2.528s4.2-15.27,8.942-29.331c1.163-3.444,2.355-6.815,3.523-9.872,0,0,3.455-2.26,8.975-5.238,9.2-4.964,24.118-11.923,38.358-13.731C168.128,438,180.412,435.655,180.051,451.551Z" transform="translate(-18.082 -262.482)" fill="#70a340"/>
    <circle id="Ellipse_4" data-name="Ellipse 4" cx="1.265" cy="1.265" r="1.265" transform="translate(92.638 229.898)" fill="#fff"/>
    <path id="Path_1595" data-name="Path 1595" d="M116.593,640.386a1.943,1.943,0,1,1,1.943-1.943A1.943,1.943,0,0,1,116.593,640.386Zm0-2.531a.588.588,0,1,0,.588.588A.588.588,0,0,0,116.593,637.855Z" transform="translate(-22.689 -407.28)" fill="#262424"/>
    <path id="Path_1596" data-name="Path 1596" d="M151.046,500.617c-2.916,2.916-6.71,4.16-9.736,3.493,1.163-3.444,2.355-6.815,3.523-9.872,0,0,3.455-2.26,8.975-5.238C155.678,492.181,154.61,497.054,151.046,500.617Z" transform="translate(-42.125 -299.75)" fill="#8ac552"/>
    <path id="Path_1597" data-name="Path 1597" d="M187.964,549.594a.675.675,0,0,1-.444-.168l-10.23-8.942a.677.677,0,0,1,.892-1.019l10.23,8.942a.677.677,0,0,1-.447,1.187Z" transform="translate(-68.201 -336.43)" fill="#262424"/>
    <path id="Path_1598" data-name="Path 1598" d="M127.84,632.134a.679.679,0,0,1-.163-.019l-10.658-2.62a.678.678,0,0,1,.322-1.317L128,630.8a.677.677,0,0,1-.16,1.336Z" transform="translate(-24.04 -401.198)" fill="#262424"/>
    <path id="Path_1599" data-name="Path 1599" d="M416.23,338.669s3.612,5.195,8.942,5.195,9.3-21.9-.182-23.757S409.455,329.049,416.23,338.669Z" transform="translate(-240.441 -176.471)" fill="#fff"/>
    <path id="Path_1600" data-name="Path 1600" d="M423.33,342.7c-5.612,0-9.333-5.246-9.484-5.485-3.563-5.059-4.019-10.915-1.187-15.283a9.972,9.972,0,0,1,10.636-4.336c5.42,1.057,6.729,7.75,6.157,13.66C428.9,336.808,426.582,342.7,423.33,342.7Zm-8.4-6.257c.035.049,3.485,4.9,8.387,4.9,2.008,0,4.233-4.772,4.758-10.213.515-5.319-.542-11.316-5.07-12.194a8.642,8.642,0,0,0-9.238,3.74c-2,3.081-2.71,8.27,1.16,13.769h0Z" transform="translate(-238.598 -174.634)" fill="#262424"/>
    <path id="Path_1601" data-name="Path 1601" d="M404.75,404.339l1.694-10.839,7.257,1.978-.211,8.861Z" transform="translate(-234.177 -230.129)" fill="#fff"/>
    <path id="Path_1602" data-name="Path 1602" d="M411.666,403.209h-8.739a.677.677,0,0,1-.669-.783l1.694-10.839a.677.677,0,0,1,.848-.542l7.257,1.978a.677.677,0,0,1,.5.669l-.211,8.861A.677.677,0,0,1,411.666,403.209Zm-7.948-1.355h7.287l.184-7.669-6.027-1.639Z" transform="translate(-232.354 -228.321)" fill="#262424"/>
    <path id="Path_1603" data-name="Path 1603" d="M406.427,322.388s-.995-4.382-4.065-3.3-2.891,6.008-.677,7.406l-2.816,4.916H391.3s-6.105-8.167-6.826-13.316,4.246-5.555,4.246-5.555.9-4.425,4.515-5.192,13.549,1.309,13.549,1.309,1.932-3.07,3.558-3.038,1.591,3.423,1.591,3.423,2.135-2.778,3.455-1.929-.913,12.262-7.588,10.162C407.8,317.274,408.706,321.949,406.427,322.388Z" transform="translate(-219.346 -166.062)" fill="#262424"/>
    <path id="Path_1604" data-name="Path 1604" d="M380.75,420.67s2.1-5.42,10.23-5.42a11.978,11.978,0,0,1,10.975,6.842h-21.2Z" transform="translate(-216.681 -245.985)" fill="#fff"/>
    <path id="Path_1605" data-name="Path 1605" d="M400.132,420.947h-21.2a.677.677,0,0,1-.677-.677v-1.423a.677.677,0,0,1,.046-.244c.092-.238,2.366-5.853,10.861-5.853a12.752,12.752,0,0,1,11.6,7.26.678.678,0,0,1-.626.938ZM379.6,419.592h19.411a11.193,11.193,0,0,0-9.858-5.487c-7,0-9.213,4.135-9.552,4.878Z" transform="translate(-214.858 -244.162)" fill="#262424"/>
    <path id="Path_1606" data-name="Path 1606" d="M319.534,525.623a75.782,75.782,0,0,1-10.39,2.788v-10.8a2.469,2.469,0,0,0-4.935,0V529.23c-31.385,4.306-63.529-7.943-63.529-7.943,7.859-56,23.933-87.257,23.933-87.257,15.256-3.6,56,0,56,0C321.338,469.982,319.534,525.623,319.534,525.623Z" transform="translate(-114.567 -258.511)" fill="#70a340"/>
    <path id="Path_1607" data-name="Path 1607" d="M285.7,471.929a.677.677,0,0,1-.648-.878,225.63,225.63,0,0,1,10.338-27.64.677.677,0,0,1,1.228.572,226.2,226.2,0,0,0-10.273,27.464A.677.677,0,0,1,285.7,471.929Z" transform="translate(-146.89 -266.243)" fill="#262424"/>
    <path id="Path_1608" data-name="Path 1608" d="M347.846,532.968h-.024a.677.677,0,0,1-.653-.7c1.612-46.192,14.839-80.276,14.975-80.618a.677.677,0,0,1,1.26.5c-.133.336-13.278,34.223-14.88,80.168A.677.677,0,0,1,347.846,532.968Z" transform="translate(-192.199 -272.224)" fill="#262424"/>
    <path id="Path_1609" data-name="Path 1609" d="M497.535,763.156a.679.679,0,0,1-.095-1.355c2.008-.287,4.051-.615,6.073-.981a.677.677,0,1,1,.241,1.333c-2.041.369-4.1.7-6.124.989Z" transform="translate(-301.289 -497.903)" fill="#262424"/>
    <path id="Path_1610" data-name="Path 1610" d="M299.137,749.957a130.839,130.839,0,0,1-29.18-3.152,75.806,75.806,0,0,1-15.321-4.962.677.677,0,1,1,.6-1.214c.211.106,21.679,10.474,56.812,7.4a.68.68,0,1,1,.119,1.355C307.573,749.784,303.221,749.957,299.137,749.957Z" transform="translate(-124.467 -483.141)" fill="#262424"/>
    <path id="Path_1611" data-name="Path 1611" d="M1394,486.5h3.523a1.919,1.919,0,0,1,1.919,1.919v1.854a1.919,1.919,0,0,1-1.919,1.919H1394V486.5Z" transform="translate(-955.357 -297.927)" fill="#fff"/>
    <path id="Path_1612" data-name="Path 1612" d="M1395.7,491.046h-3.523a.677.677,0,0,1-.677-.677v-5.691a.677.677,0,0,1,.677-.677h3.523a2.6,2.6,0,0,1,2.6,2.6v1.854A2.6,2.6,0,0,1,1395.7,491.046Zm-2.845-1.355h2.845a1.241,1.241,0,0,0,1.241-1.241V486.6a1.241,1.241,0,0,0-1.241-1.241h-2.845Z" transform="translate(-953.534 -296.105)" fill="#262424"/>
    <path id="Path_1613" data-name="Path 1613" d="M974.559,210.187v14.145a81.021,81.021,0,0,1-23.726,57.282,114.382,114.382,0,0,1-80.89,33.508,32.84,32.84,0,0,1-31.624-41.7l33.4-119.314a118.8,118.8,0,0,0,4.4-32.044,42.884,42.884,0,0,0-85.769,0v7.092H789v-7.092a44.238,44.238,0,0,1,88.476,0,120.2,120.2,0,0,1-4.451,32.407L839.62,273.8a31.491,31.491,0,0,0,30.323,39.97,112.34,112.34,0,0,0,79.94-33.109,79.127,79.127,0,0,0,23.332-56.327V210.187a18.739,18.739,0,0,0-14.6-18.194.678.678,0,1,1,.29-1.325A20,20,0,0,1,974.559,210.187Z" transform="translate(-514.302)" fill="#262424"/>
    <path id="Path_1614" data-name="Path 1614" d="M768.655,269.75h-3.431v.558a10.839,10.839,0,0,0-7.414,10.3v17.739a10.839,10.839,0,0,0,7.414,10.3v.558h3.431a10.839,10.839,0,0,0,10.839-10.839V280.595A10.839,10.839,0,0,0,768.655,269.75Z" transform="translate(-491.564 -139.913)" fill="#fff"/>
    <path id="Path_1615" data-name="Path 1615" d="M766.832,308H763.4a.677.677,0,0,1-.677-.677v-.068a11.506,11.506,0,0,1-7.414-10.766V278.736a11.506,11.506,0,0,1,7.414-10.777v-.081a.677.677,0,0,1,.677-.677h3.431a11.536,11.536,0,0,1,11.522,11.522v17.739A11.536,11.536,0,0,1,766.832,308Zm-2.764-1.355h2.764A10.178,10.178,0,0,0,777,296.474V278.736a10.178,10.178,0,0,0-10.167-10.167h-2.764a.677.677,0,0,1-.453.523,10.154,10.154,0,0,0-6.951,9.644v17.739a10.154,10.154,0,0,0,6.962,9.644A.677.677,0,0,1,764.068,306.642Z" transform="translate(-489.741 -138.054)" fill="#262424"/>
    <rect id="Rectangle_235" data-name="Rectangle 235" width="22.435" height="40.783" rx="11.217" transform="translate(262.442 129.16)" fill="#70a340"/>
    <path id="Path_1616" data-name="Path 1616" d="M746.222,333.99l-2.71-7.2a12.736,12.736,0,0,1-.93-6.485l.542-4.7a1.135,1.135,0,0,1,1.371-.978h0a1.135,1.135,0,0,1,.862.843l1.355,5.672,1.531-6.5,2.694-7.4a1.447,1.447,0,0,1,1.775-.889h0a1.447,1.447,0,0,1,1.011,1.626l-1.287,7.945a.813.813,0,0,0,.542.9h0a.813.813,0,0,0,1-.49l2.377-6.474a1.572,1.572,0,0,1,2.577-.58l3.821,3.753a3.349,3.349,0,0,1,.921,3.116l-1.742,7.485a12.343,12.343,0,0,1-1.5,3.65l-7.317,12.07Z" transform="translate(-480.398 -166.554)" fill="#fff"/>
    <path id="Path_1617" data-name="Path 1617" d="M751.346,338.259a.677.677,0,0,1-.415-.141l-6.913-5.363a.678.678,0,0,1-.219-.3l-2.685-7.186a13.43,13.43,0,0,1-.984-6.8l.542-4.7a1.813,1.813,0,0,1,3.563-.214l.7,2.9.878-3.731a.681.681,0,0,1,.022-.076l2.693-7.4a2.125,2.125,0,0,1,4.092,1.065l-1.287,7.945a.13.13,0,0,0,.249.065l2.377-6.474a2.249,2.249,0,0,1,3.685-.829l3.821,3.753a4,4,0,0,1,1.108,3.745l-1.745,7.49a13.007,13.007,0,0,1-1.58,3.851l-7.317,12.067A.677.677,0,0,1,751.346,338.259ZM745,331.813l6.162,4.78,6.924-11.419a11.652,11.652,0,0,0,1.417-3.452l1.742-7.485a2.653,2.653,0,0,0-.737-2.479L756.687,308a.894.894,0,0,0-1.466.331l-2.374,6.46a1.485,1.485,0,0,1-2.859-.748l1.287-7.945a.77.77,0,1,0-1.49-.385l-2.68,7.363-1.52,6.463a.677.677,0,0,1-.659.523h0a.677.677,0,0,1-.659-.52l-1.355-5.672a.458.458,0,0,0-.71-.271.452.452,0,0,0-.19.32l-.542,4.7a12.073,12.073,0,0,0,.889,6.13v.027Z" transform="translate(-478.61 -164.783)" fill="#262424"/>
    <path id="Path_1618" data-name="Path 1618" d="M488.667,419.688c1.588-4.807,5.574-10.251,11.864-11.216,9.755,1.339,33.331,5.3,33.331,5.3s15.468-9.82,24.844-16.4L569.2,404.4s-8.476,12.194-17.115,24.261c-2.119,2.954-4.244,5.829-6.26,8.4,0,0-3.964,1.152-10.113,2.387-10.246,2.059-26.556,4.352-40.7,1.924C495.01,441.386,483.678,434.785,488.667,419.688Z" transform="translate(-294.429 -232.95)" fill="#70a340"/>
    <path id="Path_1619" data-name="Path 1619" d="M493.213,472.45a.675.675,0,0,1-.341-.092,17.072,17.072,0,0,1-5.276-5.42c-2.092-3.349-4.029-9.032-1.368-17.072,1.642-4.973,5.084-8.994,9.214-10.758a.68.68,0,0,1,.542,1.247c-3.769,1.626-6.926,5.328-8.449,9.937-4.761,14.408,5.932,20.836,6.04,20.9a.677.677,0,0,1-.36,1.26Z" transform="translate(-292.631 -263.336)" fill="#262424"/>
    <circle id="Ellipse_5" data-name="Ellipse 5" cx="1.265" cy="1.265" r="1.265" transform="translate(268.959 173.647) rotate(-73.01)" fill="#fff"/>
    <path id="Path_1620" data-name="Path 1620" d="M768.391,425.015a1.946,1.946,0,0,1-1.859-2.526h0a1.943,1.943,0,1,1,1.859,2.526Zm-.566-2.116a.588.588,0,1,0,.287-.347.588.588,0,0,0-.287.347Z" transform="translate(-497.857 -250.271)" fill="#262424"/>
    <path id="Path_1621" data-name="Path 1621" d="M671.286,510.5c3.639-1.938,7.631-2.019,10.333-.5-2.119,2.954-4.244,5.829-6.26,8.4,0,0-3.964,1.152-10.113,2.387C664.382,517.21,666.826,512.863,671.286,510.5Z" transform="translate(-423.957 -314.288)" fill="#8ac552"/>
    <path id="Path_1622" data-name="Path 1622" d="M667.573,472.375a.677.677,0,0,1-.577-.32l-7.17-11.541a.678.678,0,0,1,1.152-.715l7.17,11.541a.677.677,0,0,1-.574,1.035Z" transform="translate(-420.057 -278.228)" fill="#262424"/>
    <path id="Path_1623" data-name="Path 1623" d="M745.334,422.121a.675.675,0,0,1-.4-.127l-9.427-6.8a.678.678,0,0,1,.791-1.1l9.433,6.8a.677.677,0,0,1-.4,1.225Z" transform="translate(-475.102 -245.051)" fill="#262424"/>
    <path id="Path_1624" data-name="Path 1624" d="M462.512,787.053a.677.677,0,0,1-.257-1.3,6.138,6.138,0,0,0,3.824-5.691v-5.382a.677.677,0,1,1,1.355,0v5.371a7.487,7.487,0,0,1-4.664,6.959A.677.677,0,0,1,462.512,787.053Z" transform="translate(-275.793 -507.519)" fill="#262424"/>
    <path id="Path_1625" data-name="Path 1625" d="M252.737,267.679a.677.677,0,0,1-.677-.677v-4.574a.677.677,0,0,1,1.355,0V267A.677.677,0,0,1,252.737,267.679Z" transform="translate(-122.864 -134.081)" fill="#262424"/>
    <path id="Path_1626" data-name="Path 1626" d="M265.886,288.565h-4.569a.677.677,0,1,1,0-1.355h4.569a.677.677,0,1,1,0,1.355Z" transform="translate(-129.119 -152.641)" fill="#262424"/>
    <path id="Path_1627" data-name="Path 1627" d="M252.737,301.719a.677.677,0,0,1-.677-.677v-4.574a.677.677,0,1,1,1.355,0v4.574A.677.677,0,0,1,252.737,301.719Z" transform="translate(-122.864 -158.896)" fill="#262424"/>
    <path id="Path_1628" data-name="Path 1628" d="M231.857,288.565h-4.58a.677.677,0,1,1,0-1.355h4.58a.677.677,0,1,1,0,1.355Z" transform="translate(-104.303 -152.641)" fill="#262424"/>
    <path id="Path_1629" data-name="Path 1629" d="M888.5,1008.719a.678.678,0,0,1-.677-.677v-4.574a.677.677,0,0,1,1.355,0v4.574A.678.678,0,0,1,888.5,1008.719Z" transform="translate(-586.343 -674.311)" fill="#262424"/>
    <path id="Path_1630" data-name="Path 1630" d="M901.652,1029.6h-4.574a.677.677,0,0,1,0-1.355h4.574a.677.677,0,0,1,0,1.355Z" transform="translate(-592.598 -692.872)" fill="#262424"/>
    <path id="Path_1631" data-name="Path 1631" d="M888.5,1042.759a.678.678,0,0,1-.677-.677v-4.574a.677.677,0,0,1,1.355,0v4.574A.678.678,0,0,1,888.5,1042.759Z" transform="translate(-586.343 -699.126)" fill="#262424"/>
    <path id="Path_1632" data-name="Path 1632" d="M867.612,1029.6h-4.574a.677.677,0,0,1,0-1.355h4.574a.677.677,0,0,1,0,1.355Z" transform="translate(-567.782 -692.872)" fill="#262424"/>
    <circle id="Ellipse_6" data-name="Ellipse 6" cx="4.447" cy="4.447" r="4.447" transform="translate(406.944 343.082)" fill="#dd9144"/>
    <circle id="Ellipse_7" data-name="Ellipse 7" cx="3.699" cy="3.699" r="3.699" transform="translate(118.682 333.847)" fill="#dd9144"/>
  </g>
</svg>
