<svg xmlns="http://www.w3.org/2000/svg" width="174.784" height="179.65" viewBox="0 0 174.784 179.65">
  <g id="emptyCart" transform="translate(-69.169 -41.16)">
    <path id="Path_25" data-name="Path 25" d="M157.647,80.643a2.472,2.472,0,0,1-.059-3.423l16-17.268a2.473,2.473,0,0,1,3.569-.062l1.381,1.391a2.472,2.472,0,0,1-.087,3.569L161.07,80.726a2.473,2.473,0,0,1-3.423-.083Z" fill="#5e6672"/>
    <path id="Path_26" data-name="Path 26" d="M147.521,74.757a1.621,1.621,0,0,1-.852-2.077l5.662-14.359a1.622,1.622,0,0,1,2.166-.888l1.174.521a1.622,1.622,0,0,1,.868.93,1.6,1.6,0,0,1,.094.642,1.615,1.615,0,0,1-.165.628l-6.836,13.838a1.621,1.621,0,0,1-2.111.764Z" fill="#5e6672"/>
    <path id="Path_27" data-name="Path 27" d="M137.218,77.1c-1.305.235-2.614-.885-2.968-2.538L127.971,45.21c-.375-1.754.465-3.423,1.849-3.672l1.929-.347c1.384-.249,2.754,1.022,3.014,2.8l4.351,29.7C139.359,75.364,138.523,76.869,137.218,77.1Z" fill="#5e6672"/>
    <path id="Path_28" data-name="Path 28" d="M238.712,104.731l-27.694-3.57a2.3,2.3,0,0,0-2.3,1.256l-7.364,14.54-30.826,61.651a3.066,3.066,0,0,1-3.666,1.544l-83.67-26.707a1.53,1.53,0,0,0-2,1.475l.038,3.474a2.3,2.3,0,0,0,1.6,2.165l88.525,28.256a5.876,5.876,0,0,1,3.961,4.372l.029.138a5.83,5.83,0,0,1-7.506,6.455L70.767,168.756a2.293,2.293,0,0,1-1.589-2.394l7.6-82.959a3.063,3.063,0,0,1,3.643-2.732l116.289,22.749,7.49-14.885a2.31,2.31,0,0,1,2.338-1.237l33.913,4.343a2.291,2.291,0,0,1,1.985,2.585l-1.156,8.53a2.3,2.3,0,0,1-2.566,1.976Z" fill="#596371"/>
    <path id="Path_29" data-name="Path 29" d="M81.465,139.242l9.476,3.024,9.09-46.092L85.483,93.941Z" fill="#9da5b1"/>
    <path id="Path_30" data-name="Path 30" d="M155.813,162.972,165.289,166l24.505-51.613-10.437-2.528Z" fill="#9da5b1"/>
    <path id="Path_31" data-name="Path 31" d="M119.368,151.34l8.746,2.791L146.851,105.5l-14.315-2.963Z" fill="#9da5b1"/>
    <path id="Path_32" data-name="Path 32" d="M108.281,98l14.314,2.962-12.7,47.348-9.476-3.025Z" fill="#9da5b1"/>
    <path id="Path_33" data-name="Path 33" d="M170.377,109.793l-14.314-2.963-17.744,50.558,8.747,2.792Z" fill="#9da5b1"/>
    <path id="Path_34" data-name="Path 34" d="M83.293,198.708A11.094,11.094,0,1,0,72.2,187.613,11.094,11.094,0,0,0,83.293,198.708Z" fill="#676f7d"/>
    <path id="Path_35" data-name="Path 35" d="M152.539,220.81a11.094,11.094,0,1,0-11.094-11.094A11.094,11.094,0,0,0,152.539,220.81Z" fill="#676f7d"/>
    <path id="Path_36" data-name="Path 36" d="M243.694,91.181l-29.228-3.659a.3.3,0,0,0-.33.257l-1.771,14.151a.294.294,0,0,0,.256.33l29.228,3.659a.3.3,0,0,0,.33-.257l1.771-14.15A.3.3,0,0,0,243.694,91.181Z" fill="#676f7d"/>
  </g>
</svg>
