<svg xmlns="http://www.w3.org/2000/svg" xmlns:xlink="http://www.w3.org/1999/xlink" width="20" height="20" viewBox="0 0 20 20"><defs><clipPath id="a"><rect width="20" height="20" transform="translate(-2092 -108)" fill="#fff" stroke="#707070" stroke-width="1"/></clipPath></defs><g transform="translate(2092 108)" clip-path="url(#a)"><g transform="translate(-2092 -108)"><path d="M4.432,12.086l-.7,2.6-2.544.054A10.017,10.017,0,0,1,1.118,5.4h0l2.265.415.992,2.252a5.968,5.968,0,0,0,.056,4.018Z" fill="#fbbb00"/><path d="M19.825,8.132A10,10,0,0,1,16.26,17.8h0l-2.853-.146L13,15.131a5.96,5.96,0,0,0,2.564-3.043H10.22V8.132h9.605Z" fill="#518ef8"/><path d="M16.26,17.8h0A10,10,0,0,1,1.192,14.739l3.241-2.653A5.947,5.947,0,0,0,13,15.131Z" fill="#28b446"/><path d="M16.383,2.3l-3.24,2.652A5.947,5.947,0,0,0,4.376,8.068L1.119,5.4h0A10,10,0,0,1,16.383,2.3Z" fill="#f14336"/></g></g></svg>