<svg id="Group_122" data-name="Group 122" xmlns="http://www.w3.org/2000/svg" xmlns:xlink="http://www.w3.org/1999/xlink" width="201" height="36.667" viewBox="0 0 201 36.667">
  <defs>
    <linearGradient id="linear-gradient" x1="0.5" x2="0.5" y2="1" gradientUnits="objectBoundingBox">
      <stop offset="0" stop-color="#f955b2"/>
      <stop offset="1" stop-color="#8b1558"/>
    </linearGradient>
  </defs>
  <path id="Path_107" data-name="Path 107" d="M65.3,240.116a13.311,13.311,0,0,1,4.038,9.772V263.7H63.417v-2.435a13.911,13.911,0,0,1-17.663-1.6,14.592,14.592,0,0,1-1.538-1.815l-4.377.38,3.8-1.54,7.471-3.241c.145-.063.295-.115.477-.185l1.162,2.926,8.344-3.225-3.226-8.366-8.339,3.223,1.089,2.93c-.259.107-.485.215-.721.3q-3.847,1.31-7.694,2.617h0l-4.116,1.3,3.821-2.7a14.747,14.747,0,0,1-.194-2.365,13.787,13.787,0,0,1,13.81-13.81A13.309,13.309,0,0,1,65.3,240.116Zm-7.158,1.679a1.3,1.3,0,0,0-1.747-.708c-.64.225-1.267.486-1.9.73q-2.947,1.137-5.893,2.276a5.569,5.569,0,0,0-.637.293,1.349,1.349,0,0,0-.605.837,1.323,1.323,0,0,0,1.635,1.524,8.146,8.146,0,0,0,.922-.338l7.006-2.708c.153-.059.3-.122.453-.19A1.29,1.29,0,0,0,58.14,241.795Zm-4.246,17.974a8.324,8.324,0,0,0,1.193-.407q3.241-1.247,6.477-2.5c.305-.118.615-.229.908-.373a1.291,1.291,0,0,0,.709-1.635,1.275,1.275,0,0,0-1.652-.779c-.863.293-1.709.637-2.56.965-1.854.716-3.7,1.441-5.561,2.151a1.453,1.453,0,0,0-1.019,1.048A1.3,1.3,0,0,0,53.893,259.769Zm26.435-21.239V251.7c0,3.829,2.093,6.739,6.075,6.739,3.829,0,6.433-3.216,6.433-7.045V238.529h6.177v25.219H93.449l-.408-3.421c-2.6,2.553-5,3.778-8.526,3.778-6.024,0-10.414-4.544-10.414-12.354V238.529Zm45.794,21.952a12.95,12.95,0,0,1-9.7,3.982c-7.3,0-13.375-4.39-13.375-13.324s6.075-13.324,13.375-13.324a11.953,11.953,0,0,1,9.087,3.727l-3.931,4.135a7.644,7.644,0,0,0-5.054-1.991,7.08,7.08,0,0,0-7.249,7.453c0,4.8,3.267,7.352,7.147,7.352a7.567,7.567,0,0,0,5.513-2.093Zm11.537-29.048v7.147H144.6v5.36h-6.994v10.874c0,2.4,1.327,3.573,3.267,3.573a7.119,7.119,0,0,0,3.012-.766l1.736,5.309A13.919,13.919,0,0,1,140.467,264c-5.462.2-9.036-2.91-9.036-9.189V243.941h-4.7v-5.36h4.7V232.1Zm18.378,0c0,4.849-7.351,4.849-7.351,0S156.038,226.583,156.038,231.433Zm-6.79,6.994V263.7h6.228v-25.27Zm37.42,12.712c0,7.249-4.952,13.12-13.12,13.12s-13.069-5.871-13.069-13.12c0-7.2,5-13.12,13.018-13.12A12.723,12.723,0,0,1,186.668,251.139Zm-19.961,0c0,3.829,2.3,7.4,6.841,7.4s6.841-3.573,6.841-7.4c0-3.778-2.655-7.453-6.841-7.453C169.055,243.685,166.707,247.361,166.707,251.139ZM209.488,263.7V250.526c0-3.829-2.093-6.739-6.075-6.739-3.829,0-6.433,3.216-6.433,7.045V263.7H190.8V238.478h5.564l.408,3.42c2.553-2.5,5.105-3.778,8.27-3.778,5.922,0,10.67,4.441,10.67,12.354V263.7Z" transform="translate(-38.089 -227.796)" fill="url(#linear-gradient)"/>
  <g id="Group_111" data-name="Group 111" transform="translate(182.619 10.733)">
    <path id="Path_108" data-name="Path 108" d="M735.881,272.39a1.853,1.853,0,0,1,0-3.706A1.853,1.853,0,0,1,735.881,272.39Z" transform="translate(-733.976 -268.684)" fill="#0c4a60"/>
    <path id="Path_109" data-name="Path 109" d="M747.595,295.047H734.856v-3.14h12.739Zm3.526-3.423a1.853,1.853,0,0,0,0,3.706A1.853,1.853,0,0,0,751.121,291.624Z" transform="translate(-734.573 -285.602)" fill="#0c4a60"/>
    <path id="Path_110" data-name="Path 110" d="M740.391,327.471a6.6,6.6,0,1,1,6.614-6.64A6.414,6.414,0,0,1,740.391,327.471Zm0-10.062a3.459,3.459,0,1,0,0,6.9,3.583,3.583,0,0,0,3.758-3.448A3.486,3.486,0,0,0,740.391,317.409Z" transform="translate(-733.777 -302.303)" fill="#0c4a60"/>
  </g>
</svg>
