<svg xmlns="http://www.w3.org/2000/svg" width="60.034" height="62.461" viewBox="0 0 60.034 62.461">
  <g id="mailbox" transform="translate(-9.946)">
    <path id="Path_5060" data-name="Path 5060" d="M365.684,8.311l-1.865-3.377a.65.65,0,0,1,0-.63L365.678.966A.65.65,0,0,0,365.11,0H348.2a1.354,1.354,0,0,0-1.354,1.354V14.7h3.88V9.275h14.388A.65.65,0,0,0,365.684,8.311Z" transform="translate(-295.785)" fill="#dfdfdf"/>
    <g id="Group_11931" data-name="Group 11931" transform="translate(9.946 18.576)">
      <g id="Group_11929" data-name="Group 11929" transform="translate(23.486 0)">
        <circle id="Ellipse_544" data-name="Ellipse 544" cx="2.196" cy="2.196" r="2.196" transform="translate(17.372 15.501)" fill="#dfdfdf"/>
        <path id="Path_5061" data-name="Path 5061" d="M235.819,185.065a1.661,1.661,0,0,0,1.661-1.661V166.462a14.2,14.2,0,0,0-13.574-14.239v11.93a6.077,6.077,0,1,1-3.88,0v-11.94H202.4a16.654,16.654,0,0,1,6,12.8v20.049Z" transform="translate(-202.398 -152.213)" fill="#dfdfdf"/>
        <path id="Path_5062" data-name="Path 5062" d="M207.064,453.2v1.823a5.331,5.331,0,1,0,10.663,0V453.2Z" transform="translate(-206.495 -416.467)" fill="#dfdfdf"/>
      </g>
      <g id="Group_11930" data-name="Group 11930">
        <path id="Path_5063" data-name="Path 5063" d="M80.434,321.084h8.4v4.1h-8.4Z" transform="translate(-71.832 -300.475)" fill="#dfdfdf"/>
        <path id="Path_5064" data-name="Path 5064" d="M22.674,152.212A12.894,12.894,0,0,0,9.946,165.156V183.4a1.661,1.661,0,0,0,1.661,1.661H35.552V165.015A12.817,12.817,0,0,0,22.674,152.212Zm7.79,26.467a1.757,1.757,0,0,1-1.757,1.757H16.791a1.757,1.757,0,0,1-1.757-1.757v-7.616a1.757,1.757,0,0,1,1.757-1.757H28.707a1.757,1.757,0,0,1,1.757,1.757v7.616Z" transform="translate(-9.946 -152.212)" fill="#dfdfdf"/>
      </g>
    </g>
  </g>
</svg>
