<svg id="maintenance" xmlns="http://www.w3.org/2000/svg" width="24" height="24" viewBox="0 0 24 24">
  <g id="Group_320" data-name="Group 320">
    <rect id="Rectangle_227" data-name="Rectangle 227" width="24" height="24" fill="none"/>
  </g>
  <g id="Group_322" data-name="Group 322">
    <g id="Group_321" data-name="Group 321">
      <path id="Path_1556" data-name="Path 1556" d="M9,15c-2.67,0-8,1.34-8,4v2H17V19C17,16.34,11.67,15,9,15Z" fill="#515db4"/>
      <path id="Path_1557" data-name="Path 1557" d="M22.1,6.84c.01-.11.02-.22.02-.34a1.87,1.87,0,0,0-.03-.34l.74-.58a.17.17,0,0,0,.04-.22l-.7-1.21a.181.181,0,0,0-.21-.08l-.86.35a2.662,2.662,0,0,0-.59-.34l-.13-.93A.182.182,0,0,0,20.2,3H18.8a.165.165,0,0,0-.17.15l-.13.93a3.123,3.123,0,0,0-.59.34l-.87-.35a.166.166,0,0,0-.21.08l-.7,1.21a.168.168,0,0,0,.04.22l.74.58a1.942,1.942,0,0,0,0,.68l-.74.58a.17.17,0,0,0-.04.22l.7,1.21a.181.181,0,0,0,.21.08l.87-.35a2.662,2.662,0,0,0,.59.34l.13.93a.165.165,0,0,0,.17.15h1.4a.165.165,0,0,0,.17-.15l.13-.93a3.123,3.123,0,0,0,.59-.34l.87.35a.166.166,0,0,0,.21-.08l.7-1.21a.168.168,0,0,0-.04-.22Zm-2.6.91A1.25,1.25,0,1,1,20.75,6.5,1.25,1.25,0,0,1,19.5,7.75Z" fill="#515db4"/>
      <path id="Path_1558" data-name="Path 1558" d="M19.92,11.68l-.5-.87a.122.122,0,0,0-.15-.06l-.62.25a1.755,1.755,0,0,0-.42-.24l-.09-.66A.15.15,0,0,0,18,10H17a.119.119,0,0,0-.12.11l-.09.66a2.175,2.175,0,0,0-.42.24l-.62-.25a.118.118,0,0,0-.15.06l-.5.87a.123.123,0,0,0,.03.16l.53.41a1.942,1.942,0,0,0-.02.24,1.791,1.791,0,0,0,.02.24l-.53.41a.125.125,0,0,0-.03.16l.5.87a.122.122,0,0,0,.15.06l.62-.25a1.755,1.755,0,0,0,.42.24l.09.66A.119.119,0,0,0,17,15h1a.113.113,0,0,0,.12-.11l.09-.66a2.175,2.175,0,0,0,.42-.24l.62.25a.118.118,0,0,0,.15-.06l.5-.87a.123.123,0,0,0-.03-.16l-.52-.41a1.942,1.942,0,0,0,.02-.24,1.791,1.791,0,0,0-.02-.24l.53-.41A.153.153,0,0,0,19.92,11.68ZM17.5,13.33a.83.83,0,1,1,.83-.83A.834.834,0,0,1,17.5,13.33Z" fill="#515db4"/>
      <path id="Path_1559" data-name="Path 1559" d="M4.74,9h8.53a.491.491,0,0,0,.49-.49V8.49A.491.491,0,0,0,13.27,8H13a4,4,0,0,0-2-3.45V5.5a.5.5,0,0,1-1,0V4.14A4.091,4.091,0,0,0,9,4a4.091,4.091,0,0,0-1,.14V5.5a.5.5,0,0,1-1,0V4.55A4,4,0,0,0,5,8H4.74a.491.491,0,0,0-.49.49v.03A.489.489,0,0,0,4.74,9Z" fill="#515db4"/>
      <path id="Path_1560" data-name="Path 1560" d="M9,13a4,4,0,0,0,3.86-3H5.14A4,4,0,0,0,9,13Z" fill="#515db4"/>
    </g>
  </g>
</svg>
