<svg xmlns="http://www.w3.org/2000/svg" width="121.5" height="235.394" viewBox="0 0 121.5 235.394"><g transform="translate(-244.463 -3805.885)"><path d="M330.55,2288.338l5.32-8.164,7.775-4.517h85.333l11.565,6.555,3.608,9.35v202.606l-3.608,10.021-11.565,3.632H345.7l-9.831-3.632-5.32-5.1-1.849-6.993Z" transform="translate(-81.797 1531.248)" fill="#fff"/><g transform="translate(244.463 3805.885)"><g transform="translate(0 0)"><path d="M338.579,74.555c0-2.809.01-5.473-.016-8.138,0-.243-.212-.675-.366-.7-.858-.112-.87-.67-.866-1.327.016-2.4.005-4.8,0-7.2,0-.546-.027-1.033.734-1.2.237-.05.493-.678.5-1.044.039-4.193-.008-8.387.044-12.578A17.765,17.765,0,0,1,350.6,25.912a23.3,23.3,0,0,1,7.863-1.059c12.426.024,24.851-.024,37.277-.029q16.868-.007,33.734.024c3.922.007,7.852-.094,11.764.132a17.642,17.642,0,0,1,15.577,12.972,28.3,28.3,0,0,1,.718,6.441c.067,10.863.025,21.726.024,32.59,0,.621-.172,1.3.807,1.464.2.034.395.76.4,1.168.014,7.242,0,14.485-.009,21.727,0,1.143.048,2.288,0,3.429-.03.786.434,1.854-.983,2.039-.113.015-.2.677-.2,1.039q-.023,8.686-.016,17.374,0,57.862-.015,115.725c-.009,7.424-2.985,13.376-9.624,17.138-3.357,1.9-7.069,2.136-10.847,2.13q-34.307-.056-68.612-.025-5.888,0-11.777,0a17.54,17.54,0,0,1-17.85-15.618,32.75,32.75,0,0,1-.238-4.328q-.018-62.15-.023-124.3c0-.695.428-1.68-.867-1.847-.111-.014-.223-.531-.224-.815q-.021-7.891-.005-15.781c0-.256.045-.714.152-.741,1.648-.4.833-1.706.924-2.61.075-.747.466-1.824-.945-1.988-.125-.014-.263-.592-.264-.909-.02-5.183,0-10.365-.037-15.547C337.3,74.845,337.716,74.571,338.579,74.555Zm114.847,67.421h-.005q0-22.357,0-44.715,0-26.7,0-53.41a26.336,26.336,0,0,0-.2-3.184,13.875,13.875,0,0,0-13.37-11.96c-2.935-.028-5.87-.025-8.805-.035-2.667-.009-3.569.749-4.067,3.418a6.717,6.717,0,0,1-6.612,5.537q-22.073.011-44.145-.015a7.62,7.62,0,0,1-2.558-.466c-2.674-.979-3.88-3.1-4.387-5.789a2.957,2.957,0,0,0-3.3-2.653c-2.822-.017-5.643-.069-8.463-.015a16.987,16.987,0,0,0-3.954.429A14.264,14.264,0,0,0,343,43.273c.083,24.092.033,48.185.033,72.277q0,62.672,0,125.346a14.909,14.909,0,0,0,.12,2.163,14.085,14.085,0,0,0,14.454,12.118c3.885-.106,7.776-.025,11.664-.025q35.053,0,70.106-.039a14.023,14.023,0,0,0,14.045-14.438Q453.431,191.326,453.427,141.976Z" transform="translate(-337.302 -24.822)"/></g></g></g></svg>