<svg xmlns="http://www.w3.org/2000/svg" width="98.775" height="79.329" viewBox="0 0 98.775 79.329">
  <path id="plane" d="M21.438,34.251,35.2,25.4,24.461,12.72c-.7-.827-1.4-1.665-2.117-2.482a3.769,3.769,0,0,1,.017-5.583c.147-.16.313-.3.472-.45C28.68-1.262,27.364-.607,33.92,1.728c5.991,2.133,11.893,4.588,17.646,7.3,3.777,1.781,6.792,2.2,10.449-.607a37.1,37.1,0,0,1,16.79-7.288,33.8,33.8,0,0,1,14.847.639c6.713,1.9,6.425,8.762,3.225,12.012a37.093,37.093,0,0,1-5.731,4.626c-5.164,3.481-10.38,6.89-15.673,10.176a6.02,6.02,0,0,0-2.967,4.164c-2.552,11.364-5.22,22.7-7.874,34.044a36.632,36.632,0,0,1-1.1,3.516,6.929,6.929,0,0,1-3.676,4.1c-3.135,1.5-6.28,2.986-9.475,4.354-3.305,1.416-5.027.139-4.818-3.454Q46.351,61.752,47.15,48.2c.029-.5,0-1,0-1.848-.964.551-1.749,1-2.53,1.448C37.095,52.141,29.749,56.86,21.566,59.91a43.431,43.431,0,0,1-10.057,2.463c-3.345.389-5.937-1.263-7.4-4.528A30.651,30.651,0,0,1,1.348,47.627C.97,42.648.6,37.667.305,32.683.139,29.864,1.4,28,4.031,26.707c6.04-2.961,5.365-2.532,9.427,1.009,2.348,2.046,4.761,4.022,7.151,6.021a7.438,7.438,0,0,0,.829.514Zm28.9,39.16.572.261a37.99,37.99,0,0,1,4.328-1.945c2.539-.795,3.214-2.742,3.793-5.023q4.724-18.6,9.636-37.148a10.5,10.5,0,0,1,5.011-6.526c4.531-2.713,8.886-5.725,13.266-8.685,2.1-1.418,4.147-2.927,6.1-4.536,1.65-1.358,1.4-2.395-.6-3.074a29.273,29.273,0,0,0-13.3-1.122c-5.828.747-10.871,3.451-15.727,6.523q-20.2,12.779-40.333,25.651c-2.4,1.526-2.763,1.555-4.891-.392-2.673-2.446-5.283-4.959-7.947-7.415-.7-.65-1.367-1.749-2.556-.919C6.471,29.913,4.482,30.116,4.7,32.3c.688,6.978,1.1,14,2.167,20.919.837,5.419,2.612,6.155,7.9,4.578a71.282,71.282,0,0,0,16.108-7.5c5.409-3.231,10.757-6.564,16.142-9.836,2.358-1.433,4.1-.633,4.479,2.057a19.621,19.621,0,0,1,.29,3.242c-.172,6.736-.388,13.471-.613,20.205-.024.715-.23,1.424-.3,2.139-.192,1.765-.355,3.533-.526,5.3Zm-10.8-50.748L52.43,14.438A155.561,155.561,0,0,0,30.3,4.276a2.485,2.485,0,0,0-1.829-.059c-1.384.832-2.644,1.868-3.493,2.489L32.14,14.56c2.372,2.6,4.744,5.2,7.393,8.1Z" transform="translate(-0.291)" fill="#dae6ce"/>
</svg>
