<svg xmlns="http://www.w3.org/2000/svg" xmlns:xlink="http://www.w3.org/1999/xlink" width="344.287" height="215.5" viewBox="0 0 344.287 215.5">
  <defs>
    <clipPath id="clip-path">
      <rect id="Rectangle_2" data-name="Rectangle 2" width="115" height="127" fill="#fff" stroke="#707070" stroke-width="1"/>
    </clipPath>
  </defs>
  <g id="Group_78" data-name="Group 78" transform="translate(-212 -346)">
    <g id="Group_77" data-name="Group 77" transform="translate(369.186 353.987)" style="mix-blend-mode: luminosity;isolation: isolate">
      <g id="Group_69" data-name="Group 69" transform="translate(13.895 55.379)" opacity="0.261">
        <path id="Path_38" data-name="Path 38" d="M1087.7,346a19,19,0,0,1-10.141,2.734,19.528,19.528,0,0,1-10.078-2.988A19.211,19.211,0,1,1,1087.7,346Z" transform="translate(-1058.564 -310.297)" fill="#b2b6bb"/>
        <path id="Path_39" data-name="Path 39" d="M1112.344,351.515a5.925,5.925,0,0,1-1.017,3.243,6.151,6.151,0,0,1-2.638,2.13,5.581,5.581,0,0,1-3.37.286,6.009,6.009,0,0,1-2.988-1.621,5.85,5.85,0,0,1-1.176-6.39,5.82,5.82,0,0,1,2.193-2.607,5.966,5.966,0,0,1,3.275-.954,5.385,5.385,0,0,1,2.225.477,5.924,5.924,0,0,1,3.115,3.211A5.652,5.652,0,0,1,1112.344,351.515Z" transform="translate(-1087.282 -334.379)" fill="#fff"/>
        <path id="Path_40" data-name="Path 40" d="M1106.75,393.136l-.032,2.416a19,19,0,0,1-10.141,2.734A19.234,19.234,0,0,1,1086.5,395.3l.032-2.416a10.11,10.11,0,1,1,20.218.254Z" transform="translate(-1077.619 -359.819)" fill="#fff"/>
      </g>
      <g id="Group_74" data-name="Group 74" transform="translate(94.26 0)" opacity="0.261">
        <g id="Group_73" data-name="Group 73" transform="translate(1.76 15.803)">
          <path id="Path_43" data-name="Path 43" d="M1224.175,612.3c0,.032-.032.032-.032.064a9.152,9.152,0,0,1-.953,1.24,8.87,8.87,0,0,1-1.4,1.272,9.89,9.89,0,0,1-4.673,1.907l-.127.032h-.1l-.1-.064.1-.064a10.68,10.68,0,0,0,2.639-2.575,14.8,14.8,0,0,0,1.081-1.78.031.031,0,0,1,.032-.032h3.529Z" transform="translate(-1207.263 -612.238)" fill="#b2b6bb"/>
          <path id="Path_51" data-name="Path 51" d="M1193.921,616.648h-.1c-.381-.063-.731-.127-1.113-.222a9.233,9.233,0,0,1-1.971-.731,9.428,9.428,0,0,1-2-1.3,8.684,8.684,0,0,1-1.208-1.208,8.789,8.789,0,0,1-.731-1.049V612.1h3.274l.032.032a12.311,12.311,0,0,0,1.145,1.876,14.935,14.935,0,0,0,1.335,1.494,13.457,13.457,0,0,0,1.3,1.049Z" transform="translate(-1186.8 -612.102)" fill="#b2b6bb"/>
          <path id="Path_53" data-name="Path 53" d="M1217.838,612.231a11.23,11.23,0,0,1-1.558,2.1,8.879,8.879,0,0,1-1.78,1.494V612.2h3.338Z" transform="translate(-1205.694 -612.168)" fill="#b2b6bb"/>
          <path id="Path_54" data-name="Path 54" d="M1204.411,612.3v3.529a10.666,10.666,0,0,1-3.211-3.529Z" transform="translate(-1196.622 -612.238)" fill="#b2b6bb"/>
        </g>
        <g id="Group_70" data-name="Group 70">
          <path id="Path_41" data-name="Path 41" d="M1186.246,580a13.18,13.18,0,0,0-.89,4.133H1181.7v-.1l.032-.286a11.227,11.227,0,0,1,.254-1.43,11.906,11.906,0,0,1,.795-2.257.031.031,0,0,1,.032-.032h.063Z" transform="translate(-1181.7 -574.628)" fill="#b2b6bb"/>
          <path id="Path_42" data-name="Path 42" d="M1186.119,600.474h-3.4a.031.031,0,0,1-.032-.032,9.971,9.971,0,0,1-.986-3.815V596.5h3.593c.063,0,.063,0,.063.064.032.286.032.6.063.89.063.477.127.922.223,1.4a14.1,14.1,0,0,0,.477,1.653Z" transform="translate(-1181.7 -585.883)" fill="#b2b6bb"/>
          <path id="Path_44" data-name="Path 44" d="M1219.305,584.133H1214.6V580h3.719l.032.032a10.6,10.6,0,0,1,.731,2.416,9.185,9.185,0,0,1,.191,1.3A1.54,1.54,0,0,1,1219.305,584.133Z" transform="translate(-1204.141 -574.628)" fill="#b2b6bb"/>
          <path id="Path_45" data-name="Path 45" d="M1219.205,596.333v.286c-.032.222-.032.445-.063.7-.032.318-.1.636-.159.954a10.432,10.432,0,0,1-.6,2c0,.032,0,.032-.032.032H1214.5V596.3h4.705Z" transform="translate(-1204.073 -585.747)" fill="#b2b6bb"/>
          <path id="Path_46" data-name="Path 46" d="M1201.41,580.1v4.133h-4.61a1.075,1.075,0,0,1,.032-.318,5.208,5.208,0,0,1,.1-.7q.095-.525.19-1.049a11.712,11.712,0,0,1,.668-2.035c0-.032,0-.032.032-.032h3.592Z" transform="translate(-1192 -574.698)" fill="#b2b6bb"/>
          <path id="Path_47" data-name="Path 47" d="M1201.341,596.5v3.942h-3.751a.031.031,0,0,1-.032-.032,9.684,9.684,0,0,1-.636-2.066c-.064-.381-.127-.731-.159-1.113-.032-.254-.032-.477-.064-.731v-.032h4.546C1201.341,596.438,1201.341,596.47,1201.341,596.5Z" transform="translate(-1191.932 -585.853)" fill="#b2b6bb"/>
          <path id="Path_48" data-name="Path 48" d="M1234.969,584.235h-3.878a13.167,13.167,0,0,0-.89-4.133h3.656l.032.032a10.746,10.746,0,0,1,.89,2.575,11.006,11.006,0,0,1,.191,1.431v.1Z" transform="translate(-1214.782 -574.698)" fill="#b2b6bb"/>
          <path id="Path_49" data-name="Path 49" d="M1235.241,596.3v.254c-.032.35-.064.7-.127,1.049a9.794,9.794,0,0,1-.7,2.321,3.761,3.761,0,0,1-.159.35.031.031,0,0,1-.032.032H1230.6c.032-.127.1-.254.127-.35a9.545,9.545,0,0,0,.477-1.876,10.446,10.446,0,0,0,.159-1.4v-.318c0-.032,0-.032.032-.032Z" transform="translate(-1215.054 -585.747)" fill="#b2b6bb"/>
          <path id="Path_50" data-name="Path 50" d="M1224.216,567.425h-3.5l-.032-.032a11.008,11.008,0,0,0-1.685-2.48,8.864,8.864,0,0,0-1.271-1.176c-.223-.191-.477-.35-.7-.509L1217,563.2l.064-.032L1217,563.1a9.865,9.865,0,0,1,4.069,1.4A9.532,9.532,0,0,1,1224.216,567.425Z" transform="translate(-1205.778 -563.102)" fill="#b2b6bb"/>
          <path id="Path_52" data-name="Path 52" d="M1194.094,563.166c-.127.1-.318.222-.477.35a10.73,10.73,0,0,0-1.526,1.431,10.182,10.182,0,0,0-1.589,2.289c-.032.064-.064.1-.1.159l-.032.032H1187.1a9.712,9.712,0,0,1,3.02-2.893,10.337,10.337,0,0,1,3.942-1.431l-.032.032Z" transform="translate(-1185.383 -563.102)" fill="#b2b6bb"/>
          <path id="Path_55" data-name="Path 55" d="M1217.811,569.4H1214.6V566a9.074,9.074,0,0,1,1.812,1.494A12.292,12.292,0,0,1,1217.811,569.4Z" transform="translate(-1204.141 -565.079)" fill="#b2b6bb"/>
          <path id="Path_56" data-name="Path 56" d="M1204.684,566.4V569.7H1201.6A9.612,9.612,0,0,1,1204.684,566.4Z" transform="translate(-1195.274 -565.35)" fill="#b2b6bb"/>
        </g>
      </g>
      <g id="Group_71" data-name="Group 71" opacity="0.261">
        <path id="Path_57" data-name="Path 57" d="M765.647,377.182h-1.494a1.423,1.423,0,0,1-.636-.127,3.141,3.141,0,0,1-.54-.35,1.725,1.725,0,0,1-.477-1.176,1.609,1.609,0,0,1,.509-1.176,1.663,1.663,0,0,1,1.176-.509h2.066l.986-5.627h-1.876a1.664,1.664,0,0,1-1.144-.509,1.775,1.775,0,0,1-.477-1.176,1.632,1.632,0,0,1,.477-1.176,1.539,1.539,0,0,1,1.144-.509h2.48l.636-3.847a1.572,1.572,0,0,1,.572-1.017,1.736,1.736,0,0,1,1.812-.223,1.555,1.555,0,0,1,.572.445,1.791,1.791,0,0,1,.35.636,1.853,1.853,0,0,1,.064.731l-.54,3.274h5.086l.636-3.847a1.613,1.613,0,0,1,.6-1.017,1.814,1.814,0,0,1,1.113-.381,1.733,1.733,0,0,1,.7.159,1.554,1.554,0,0,1,.572.445,1.8,1.8,0,0,1,.35.636,1.866,1.866,0,0,1,.032.731l-.54,3.274h1.494a1.664,1.664,0,0,1,1.176.509,1.633,1.633,0,0,1,.477,1.176,1.739,1.739,0,0,1-1.685,1.685h-2.13l-.954,5.627h1.844a1.424,1.424,0,0,1,.636.127,3.143,3.143,0,0,1,.54.35,1.726,1.726,0,0,1,.477,1.176,1.609,1.609,0,0,1-.509,1.176,1.663,1.663,0,0,1-1.176.509h-2.416l-.7,3.974a1.82,1.82,0,0,1-.572,1.017,1.736,1.736,0,0,1-1.812.223,1.554,1.554,0,0,1-.572-.445,1.794,1.794,0,0,1-.35-.636,1.414,1.414,0,0,1-.032-.731l.636-3.4h-5.086l-.668,3.974a1.613,1.613,0,0,1-.6,1.017,1.749,1.749,0,0,1-1.113.382,1.333,1.333,0,0,1-.7-.159,1.553,1.553,0,0,1-.572-.445,1.793,1.793,0,0,1-.35-.636,1.893,1.893,0,0,1-.032-.731Zm9.092-3.37.985-5.627H770.67l-.986,5.627Z" transform="translate(-762.5 -359.602)" fill="#b2b6bb"/>
      </g>
      <path id="Path_58" data-name="Path 58" d="M1099.764,759.9a13.829,13.829,0,0,0,.127,27.657,13.428,13.428,0,0,0,3.37-.445,1.5,1.5,0,0,0,.477-.191,1.357,1.357,0,0,0,.35-.381.73.73,0,0,0,.127-.445,1.235,1.235,0,0,0-.064-.477.9.9,0,0,0-.127-.381.749.749,0,0,0-.254-.286,1.4,1.4,0,0,0-.509-.191,1.041,1.041,0,0,0-.54.032,9.441,9.441,0,0,1-2.829.318,11.431,11.431,0,0,1-6.326-1.876,11.58,11.58,0,0,1-4.228-5.086,11.389,11.389,0,0,1,14.783-14.973,11.156,11.156,0,0,1,5.118,4.164,11.77,11.77,0,0,1,1.971,6.295,10.487,10.487,0,0,1-1.24,5.182,3.7,3.7,0,0,1-2,1.844h-.286c-.35,0-.445-.1-.445-.127a3.574,3.574,0,0,1-.254-.763c-.159-1.367-.032-5.595-.032-5.659V773.6a7.161,7.161,0,1,0-14.306.064,7.477,7.477,0,0,0,7.216,7.566,6.693,6.693,0,0,0,4.705-1.939v.636a3.651,3.651,0,0,0,.7,2.035,2.608,2.608,0,0,0,1.081.858,3.294,3.294,0,0,0,1.367.286,3.944,3.944,0,0,0,.858-.1,6.494,6.494,0,0,0,3.561-2.925.4.4,0,0,1,.063-.1l.064-.063a13.777,13.777,0,0,0,1.4-6.835,14.055,14.055,0,0,0-2.066-6.644,13.819,13.819,0,0,0-5.054-4.8A14.9,14.9,0,0,0,1099.764,759.9Zm.064,18.82a4.773,4.773,0,0,1-4.641-4.991,4.671,4.671,0,1,1,4.641,4.991Z" transform="translate(-985.391 -666.049)" fill="#b2b6bb" opacity="0.261"/>
    </g>
    <g id="Mask_Group_1" data-name="Mask Group 1" transform="translate(212 346)" opacity="0.273" clip-path="url(#clip-path)" style="mix-blend-mode: luminosity;isolation: isolate">
      <g id="Group_68" data-name="Group 68" transform="translate(-37.844 1.276)">
        <path id="Path_2" data-name="Path 2" d="M647.533,296.3H644.1V421.014h3.433Z" transform="translate(-498.151 -296.301)" fill="#61656d"/>
        <path id="Path_3" data-name="Path 3" d="M331.044,296.3H223.021l-34.174,38.116a20.491,20.491,0,0,0-3.783,13.574l12.589,73.022H331.044Z" transform="translate(-185 -296.301)" fill="#868a91"/>
        <path id="Path_5" data-name="Path 5" d="M326.339,311.8H218.571L188.847,344.99a20.491,20.491,0,0,0-3.783,13.574l11.826,68.6H326.339Z" transform="translate(-185 -306.874)" opacity="0.05"/>
        <g id="Group_1" data-name="Group 1" transform="translate(84.848 66.918)" opacity="0.3">
          <path id="Path_6" data-name="Path 6" d="M480.13,506.8H451.9v28.23h28.23Z" transform="translate(-451.9 -506.801)" opacity="0.3"/>
        </g>
        <path id="Path_8" data-name="Path 8" d="M470.429,498.6H442.2v28.23h28.23Z" transform="translate(-360.435 -434.29)" fill="#fff"/>
        <g id="Group_3" data-name="Group 3" transform="translate(94.639 66.918)" opacity="0.15">
          <g id="Group_2" data-name="Group 2" opacity="0.15">
            <path id="Path_9" data-name="Path 9" d="M485.179,508.009a1.282,1.282,0,0,1-.191.7,1.066,1.066,0,0,1-.572.477,1.145,1.145,0,0,1-.731.064,1.377,1.377,0,0,1-.636-.35,1.249,1.249,0,0,1-.35-.89,1.194,1.194,0,0,1,1.208-1.208,1.367,1.367,0,0,1,.89.35A1.261,1.261,0,0,1,485.179,508.009Z" transform="translate(-482.699 -506.801)" opacity="0.15"/>
          </g>
        </g>
        <g id="Group_67" data-name="Group 67" transform="translate(0 4.927)">
          <path id="Path_4" data-name="Path 4" d="M326.339,311.8H218.571L188.847,344.99a20.491,20.491,0,0,0-3.783,13.574l11.826,68.6H326.339Z" transform="translate(-185 -311.801)" fill="#f4f4f4"/>
          <path id="Path_7" data-name="Path 7" d="M351.6,670.407H222.218L221.9,668.5H351.6Z" transform="translate(-210.169 -555.105)" fill="#b2b6bb"/>
          <path id="Path_10" data-name="Path 10" d="M247.1,530.9h27.308V563.07l-26.64-.572Z" transform="translate(-227.358 -461.247)" opacity="0.1"/>
        </g>
        <path id="Path_11" data-name="Path 11" d="M243.1,526.9h27.308V559.07l-26.64-.572Z" transform="translate(-224.63 -453.591)" fill="#fff"/>
        <path id="Path_12" data-name="Path 12" d="M272.814,552.7h-19.9a.389.389,0,0,0-.286.127.4.4,0,0,0-.127.286.287.287,0,0,0,.032.159c.032.032.032.1.1.127a.441.441,0,0,0,.127.1.238.238,0,0,0,.159.032h19.9a.388.388,0,0,0,.286-.127.4.4,0,0,0,.127-.286.287.287,0,0,0-.032-.159c-.032-.032-.064-.1-.1-.127a.439.439,0,0,0-.127-.1A.345.345,0,0,0,272.814,552.7Z" transform="translate(-231.042 -471.19)" fill="#ececec"/>
        <path id="Path_13" data-name="Path 13" d="M272.814,556.5h-19.9a.389.389,0,0,0-.286.127.4.4,0,0,0-.127.286.388.388,0,0,0,.127.286.4.4,0,0,0,.286.127h19.9a.287.287,0,0,0,.159-.032c.032-.032.1-.064.127-.1a.44.44,0,0,0,.1-.127.238.238,0,0,0,.032-.159.436.436,0,0,0-.413-.413Z" transform="translate(-231.042 -473.782)" fill="#ececec"/>
        <path id="Path_14" data-name="Path 14" d="M272.814,578h-19.9a.286.286,0,0,0-.159.032c-.032.032-.1.064-.127.1a.439.439,0,0,0-.1.127.238.238,0,0,0-.032.159.388.388,0,0,0,.127.286.4.4,0,0,0,.286.127h19.9a.388.388,0,0,0,.286-.127.4.4,0,0,0,.127-.286.287.287,0,0,0-.032-.159c-.032-.032-.064-.1-.1-.127a.438.438,0,0,0-.127-.1A.345.345,0,0,0,272.814,578Z" transform="translate(-231.042 -488.447)" fill="#ececec"/>
        <path id="Path_15" data-name="Path 15" d="M274.709,590.6h-15.2a.286.286,0,0,0-.159.032c-.032.032-.1.063-.127.1a.438.438,0,0,0-.1.127.238.238,0,0,0-.032.159.388.388,0,0,0,.127.286.4.4,0,0,0,.286.127h15.2A.388.388,0,0,0,275,591.3a.4.4,0,0,0,.127-.286.388.388,0,0,0-.127-.286A.572.572,0,0,0,274.709,590.6Z" transform="translate(-235.544 -497.043)" fill="#ececec"/>
        <path id="Path_16" data-name="Path 16" d="M275.709,608.3h-15.2a.286.286,0,0,0-.159.032c-.032.032-.1.064-.127.1a.438.438,0,0,0-.1.127.239.239,0,0,0-.032.159.286.286,0,0,0,.032.159c.032.032.064.1.1.127a.439.439,0,0,0,.127.1.238.238,0,0,0,.159.032h15.2a.286.286,0,0,0,.159-.032c.032-.032.1-.064.127-.1a.44.44,0,0,0,.1-.127.238.238,0,0,0,.032-.159.287.287,0,0,0-.032-.159c-.032-.032-.032-.1-.1-.127a.438.438,0,0,0-.127-.1A.345.345,0,0,0,275.709,608.3Z" transform="translate(-236.226 -509.116)" fill="#ececec"/>
        <g id="Group_5" data-name="Group 5" transform="translate(30.651 74.985)" opacity="0.15">
          <g id="Group_4" data-name="Group 4" transform="translate(0 0)" opacity="0.15">
            <path id="Path_17" data-name="Path 17" d="M283.828,533.36a1.139,1.139,0,0,1-.286.763,1.221,1.221,0,0,1-.7.413,1.207,1.207,0,0,1-1.335-.731,1.143,1.143,0,0,1-.032-.795,1.215,1.215,0,0,1,.477-.636,1.149,1.149,0,0,1,.795-.191,1.22,1.22,0,0,1,.731.35A1.154,1.154,0,0,1,283.828,533.36Z" transform="translate(-281.418 -532.176)" opacity="0.15"/>
          </g>
        </g>
        <path id="Path_18" data-name="Path 18" d="M240.423,420H216.2v22.666h24.224Z" transform="translate(-206.281 -380.676)" fill="#dadddf"/>
        <path id="Path_19" data-name="Path 19" d="M242.692,442.7H225.017a.191.191,0,0,0-.127.032c-.032.032-.064.032-.1.064s-.064.064-.064.1a.191.191,0,0,0-.032.127v.032a.361.361,0,0,0,.1.254.344.344,0,0,0,.223.1h17.675a.328.328,0,0,0,.35-.35v-.032a.361.361,0,0,0-.1-.254A.748.748,0,0,0,242.692,442.7Z" transform="translate(-212.079 -396.159)" fill="#b1b5ba"/>
        <path id="Path_20" data-name="Path 20" d="M242.692,453.973H225.017a.191.191,0,0,0-.127.032c-.032.032-.064.032-.1.064s-.064.064-.064.1a.191.191,0,0,0-.032.127v.032a.191.191,0,0,0,.032.127c.032.032.032.064.064.1s.064.064.1.064.1.032.127.032h17.675a.191.191,0,0,0,.127-.032c.032-.032.064-.032.1-.064s.064-.064.064-.1a.191.191,0,0,0,.032-.127v-.032a.361.361,0,0,0-.1-.254A.2.2,0,0,0,242.692,453.973Z" transform="translate(-212.079 -403.84)" fill="#b1b5ba"/>
        <path id="Path_21" data-name="Path 21" d="M242.692,465.1H225.017a.191.191,0,0,0-.127.032c-.032.032-.064.032-.1.064s-.064.064-.064.1a.191.191,0,0,0-.032.127v.032a.191.191,0,0,0,.032.127c.032.032.032.064.064.1s.064.064.1.064a.191.191,0,0,0,.127.032h17.675a.191.191,0,0,0,.127-.032c.032-.032.064-.032.1-.064s.064-.064.064-.1a.191.191,0,0,0,.032-.127v-.032a.361.361,0,0,0-.1-.254A.46.46,0,0,0,242.692,465.1Z" transform="translate(-212.079 -411.44)" fill="#b1b5ba"/>
        <path id="Path_22" data-name="Path 22" d="M244.2,476.4H230.718a.191.191,0,0,0-.127.032c-.032.032-.064.032-.1.064s-.064.064-.064.1a.191.191,0,0,0-.032.127v.032a.191.191,0,0,0,.032.127c.032.032.032.064.064.1s.064.064.1.064a.191.191,0,0,0,.127.032H244.2a.191.191,0,0,0,.127-.032c.032-.032.064-.032.1-.064s.064-.064.064-.1.032-.1.032-.127v-.032a.191.191,0,0,0-.032-.127c-.032-.032-.032-.064-.064-.1s-.064-.064-.1-.064S244.261,476.4,244.2,476.4Z" transform="translate(-215.967 -419.145)" fill="#b1b5ba"/>
        <path id="Path_23" data-name="Path 23" d="M251.68,425.9H249.9v1.78h1.78Z" transform="translate(-229.268 -384.699)" fill="#b1b5ba"/>
        <path id="Path_24" data-name="Path 24" d="M251.613,426.858a.8.8,0,0,1-.286.636.945.945,0,0,1-.636.254,1.35,1.35,0,0,1-.35-.064.9.9,0,0,1-.286-.191.75.75,0,0,1-.191-.286,1.143,1.143,0,0,1-.064-.35.868.868,0,0,1,.858-.858.945.945,0,0,1,.636.254A.654.654,0,0,1,251.613,426.858Z" transform="translate(-229.201 -384.768)" fill="#b1b5ba"/>
        <g id="Group_6" data-name="Group 6" transform="translate(66.282 23.3)" opacity="0.7">
          <path id="Path_25" data-name="Path 25" d="M393.627,370.8s19.424-3.5,24.319,1.4,3.02,26.2,3.02,26.2L393.5,398.27Z" transform="translate(-393.5 -369.594)" fill="#b2b6bb" opacity="0.7"/>
        </g>
        <path id="Path_26" data-name="Path 26" d="M383.826,359.911s16.372-2.226,21.2,2.638c4.8,4.864,6.072,24.955,6.072,24.955l-27.4-.159Z" transform="translate(-320.532 -339.342)" fill="#dadddf"/>
        <g id="Group_8" data-name="Group 8" transform="translate(76.042 22.139)" opacity="0.15">
          <g id="Group_7" data-name="Group 7" opacity="0.15">
            <path id="Path_27" data-name="Path 27" d="M426.106,366.946a.946.946,0,0,1-.318.636,1.026,1.026,0,0,1-.668.254.915.915,0,0,1-.668-.286,1.009,1.009,0,0,1-.254-.636.807.807,0,0,1,.064-.382,1.057,1.057,0,0,1,.191-.318.968.968,0,0,1,.509-.254.9.9,0,0,1,.572.064.956.956,0,0,1,.445.35A1.857,1.857,0,0,1,426.106,366.946Z" transform="translate(-424.199 -365.941)" opacity="0.15"/>
          </g>
        </g>
        <path id="Path_28" data-name="Path 28" d="M416.14,383.7l-15.927-.1a1.254,1.254,0,0,0-.795.318,1.054,1.054,0,0,0-.318.795,1.254,1.254,0,0,0,.318.795,1.054,1.054,0,0,0,.795.318l15.927.1a1.255,1.255,0,0,0,.795-.318,1.055,1.055,0,0,0,.318-.795,1.086,1.086,0,0,0-1.113-1.113Z" transform="translate(-331.037 -355.849)" fill="#b1b5ba"/>
        <path id="Path_29" data-name="Path 29" d="M416.8,401.1l-17.485-.1a.191.191,0,0,0-.127.032c-.032,0-.064.032-.1.064s-.064.064-.064.1a.27.27,0,0,0,0,.254c.032.032.032.064.064.1s.064.064.1.064.1.032.127.032l17.485.1a.318.318,0,0,0,0-.636Z" transform="translate(-330.969 -367.716)" fill="#b1b5ba"/>
        <path id="Path_30" data-name="Path 30" d="M416.7,413.493l-17.485-.1a.191.191,0,0,0-.127.032c-.032,0-.064.032-.1.064s-.064.064-.064.1a.27.27,0,0,0,0,.254c.032.032.032.064.064.1s.064.064.1.064.1.032.127.032l17.485.1a.191.191,0,0,0,.127-.032.241.241,0,0,0,.127-.064c.032-.032.064-.064.064-.1a.27.27,0,0,0,0-.254c-.032-.032-.032-.064-.064-.1s-.064-.064-.1-.064C416.8,413.525,416.766,413.493,416.7,413.493Z" transform="translate(-330.901 -376.173)" fill="#b1b5ba"/>
        <path id="Path_31" data-name="Path 31" d="M416.7,425.993l-17.485-.1a.318.318,0,0,0,0,.636l17.485.1a.315.315,0,0,0,.223-.54A.344.344,0,0,0,416.7,425.993Z" transform="translate(-330.901 -384.699)" fill="#b1b5ba"/>
        <path id="Path_32" data-name="Path 32" d="M471.9,529.5H454.418a.318.318,0,0,0,0,.636H471.9a.318.318,0,0,0,0-.636Z" transform="translate(-368.553 -455.366)" fill="#b1b5ba"/>
        <path id="Path_33" data-name="Path 33" d="M471.9,542H454.418a.318.318,0,0,0,0,.636H471.9a.318.318,0,0,0,0-.636Z" transform="translate(-368.553 -463.892)" fill="#b1b5ba"/>
        <path id="Path_34" data-name="Path 34" d="M469.486,554.5H454.418a.318.318,0,0,0,0,.636h15.069a.318.318,0,0,0,0-.636Z" transform="translate(-368.553 -472.418)" fill="#b1b5ba"/>
      </g>
    </g>
    <g id="Group_76" data-name="Group 76" transform="translate(212 403.234)">
      <path id="Path_69" data-name="Path 69" d="M704.247,875.3l2.035,23.27,29.5,15.037-8.3,8.964L688.893,910.4,686.7,878.162Z" transform="translate(-549.016 -775.255)" fill="#f0d0d0"/>
      <path id="Path_70" data-name="Path 70" d="M487.114,729.729l-23.97,7.534c-5.531,1.749-10.681,9-10.459,14.814l4.419,74.1h71.242l2.48-48.066,15.7-2.48-5.5-28.579a12.823,12.823,0,0,0-2.893-5.977,12.535,12.535,0,0,0-5.468-3.751L510.956,729.6Z" transform="translate(-389.391 -675.874)" fill="#70a340"/>
      <path id="Path_71" data-name="Path 71" d="M547,732.557l14.115,20.377,6.072-9.378,9.219,7.153,1.24-19.011Z" transform="translate(-453.728 -677.305)" opacity="0.15"/>
      <path id="Path_72" data-name="Path 72" d="M576.7,669.1,561,658.065l1.494-21.617c-1.144-20.377,18.406-8.838,21.617-6.962-.222-.413-.445,11.158-1.113,15.386.35,3.243,1.335,9.664,1.717,12.971Z" transform="translate(-463.277 -604.211)" fill="#f0d0d0"/>
      <path id="Path_73" data-name="Path 73" d="M600.029,703.944l-.413-4.355-8.424,2.48a13.126,13.126,0,0,1-5.722-2.543.7.7,0,0,0-.159-.1.346.346,0,0,0-.159-.032,1.375,1.375,0,0,0-.159.032.439.439,0,0,0-.127.1.7.7,0,0,0-.1.159c0,.064-.032.127,0,.159s.032.127.064.159a.247.247,0,0,0,.127.127,13.13,13.13,0,0,0,7.63,2.829h.286A11.819,11.819,0,0,0,600.029,703.944Z" transform="translate(-479.481 -655.272)" opacity="0.15"/>
      <path id="Path_74" data-name="Path 74" d="M530.51,831.092a1.026,1.026,0,0,1-.572-.191.808.808,0,0,1-.35-.381,1.007,1.007,0,0,1-.127-.509,1.294,1.294,0,0,0-.254-.763,1.42,1.42,0,0,0-.636-.508,1.564,1.564,0,0,0-.763-.064c-.223.064-.445.064-.668.127a4.949,4.949,0,0,0,.668.127,1.294,1.294,0,0,1,.572.159,1.1,1.1,0,0,1,.382.381.933.933,0,0,1,.127.509,1.267,1.267,0,0,0,.222.763,1.338,1.338,0,0,0,.6.508,1.262,1.262,0,0,0,.763.064,4.951,4.951,0,0,0,.668-.127C530.987,831.155,530.732,831.124,530.51,831.092Zm-6.74,13.256a1.025,1.025,0,0,1-.572-.191.808.808,0,0,1-.35-.381,1.007,1.007,0,0,1-.127-.509,1.293,1.293,0,0,0-.254-.763,1.42,1.42,0,0,0-.636-.509,1.255,1.255,0,0,0-.763-.032,4.951,4.951,0,0,0-.668.127,4.922,4.922,0,0,0,.668.127,1.3,1.3,0,0,1,.572.159,1.1,1.1,0,0,1,.381.381.934.934,0,0,1,.127.509,1.633,1.633,0,0,0,.223.763,1.34,1.34,0,0,0,.6.509,1.263,1.263,0,0,0,.763.063c.223-.063.445-.063.668-.127A5.608,5.608,0,0,1,523.771,844.348Zm-31.6-60.083a1.108,1.108,0,0,1-.54-.191.808.808,0,0,1-.35-.381,1.006,1.006,0,0,1-.127-.509,1.294,1.294,0,0,0-.254-.763,1.421,1.421,0,0,0-.636-.509,1.469,1.469,0,0,0-.731-.063,4.935,4.935,0,0,0-.668.127,4.936,4.936,0,0,0,.668.127,1.3,1.3,0,0,1,.572.159,1.1,1.1,0,0,1,.381.381.933.933,0,0,1,.127.509,1.53,1.53,0,0,0,.223.763,1.339,1.339,0,0,0,.6.509,1.264,1.264,0,0,0,.763.064,4.935,4.935,0,0,0,.668-.127C492.616,784.329,492.394,784.3,492.171,784.265Zm23.143,30.455a2.021,2.021,0,0,1-.572-.191.809.809,0,0,1-.35-.381,1.006,1.006,0,0,1-.127-.509,1.164,1.164,0,0,0-.127-.572,1.407,1.407,0,0,0-.382-.477,1.21,1.21,0,0,0-.54-.254,1.293,1.293,0,0,0-.6,0,4.916,4.916,0,0,0-.668.127,4.962,4.962,0,0,0,.668.127,1.3,1.3,0,0,1,.572.159,1.1,1.1,0,0,1,.381.381.933.933,0,0,1,.127.509,1.53,1.53,0,0,0,.223.763,1.339,1.339,0,0,0,.6.509,1.263,1.263,0,0,0,.763.064,4.926,4.926,0,0,0,.668-.127A3.755,3.755,0,0,0,515.314,814.72Zm-32.744,2.861a2.024,2.024,0,0,1-.572-.191.809.809,0,0,1-.35-.381,1.007,1.007,0,0,1-.127-.509,1.294,1.294,0,0,0-.254-.763,1.42,1.42,0,0,0-.636-.509,1.565,1.565,0,0,0-.763-.064c-.223.064-.445.064-.668.127a4.963,4.963,0,0,0,.668.127,1.188,1.188,0,0,1,.572.159,1.094,1.094,0,0,1,.381.381,1.361,1.361,0,0,1,.159.508,1.531,1.531,0,0,0,.223.763,1.34,1.34,0,0,0,.6.509,1.264,1.264,0,0,0,.763.063,4.924,4.924,0,0,0,.668-.127Zm-11.031-40.246a2.024,2.024,0,0,1-.572-.191.809.809,0,0,1-.35-.381,1.006,1.006,0,0,1-.127-.509,1.164,1.164,0,0,0-.127-.572,1.406,1.406,0,0,0-.381-.477,1.21,1.21,0,0,0-.54-.254,1.924,1.924,0,0,0-.6,0,4.961,4.961,0,0,0-.668.127,4.9,4.9,0,0,0,.668.127,1.3,1.3,0,0,1,.572.159,1.094,1.094,0,0,1,.381.381.933.933,0,0,1,.127.509,1.531,1.531,0,0,0,.223.763,1.339,1.339,0,0,0,.6.509,1.539,1.539,0,0,0,.763.1,4.934,4.934,0,0,0,.668-.127C471.984,777.43,471.762,777.4,471.539,777.335Zm70.352-4.928a1.108,1.108,0,0,1-.54-.191.808.808,0,0,1-.35-.381,1.007,1.007,0,0,1-.127-.509,1.294,1.294,0,0,0-.254-.763,1.421,1.421,0,0,0-.636-.509,1.254,1.254,0,0,0-.763-.032,4.933,4.933,0,0,0-.668.127,4.933,4.933,0,0,0,.668.127,1.3,1.3,0,0,1,.572.159,1.1,1.1,0,0,1,.381.382,1.364,1.364,0,0,1,.159.509,1.267,1.267,0,0,0,.222.763,1.339,1.339,0,0,0,.6.509,1.242,1.242,0,0,0,.763.064c.222-.064.445-.064.668-.127A6.621,6.621,0,0,0,541.891,772.407Zm-38.752-.763a1.461,1.461,0,0,1-.54.286,1.537,1.537,0,0,1-.54,0,.906.906,0,0,1-.445-.254,1.518,1.518,0,0,0-.7-.381,1.365,1.365,0,0,0-.795.064,1.272,1.272,0,0,0-.6.477l-.382.572.572-.381a1.1,1.1,0,0,1,.509-.254,1.061,1.061,0,0,1,.541.032,1.335,1.335,0,0,1,.445.286,1.475,1.475,0,0,0,.731.382,1.352,1.352,0,0,0,.795-.1,1.448,1.448,0,0,0,.572-.509l.381-.572A3.156,3.156,0,0,0,503.139,771.644Zm27.212-12.176a4.925,4.925,0,0,0-.127-.668,4.925,4.925,0,0,0-.127.668,1.3,1.3,0,0,1-.159.572,1.094,1.094,0,0,1-.381.381.933.933,0,0,1-.509.127,1.532,1.532,0,0,0-.763.222,1.339,1.339,0,0,0-.509.6,1.264,1.264,0,0,0-.064.763,4.949,4.949,0,0,0,.127.667,4.922,4.922,0,0,0,.127-.667,2.018,2.018,0,0,1,.191-.572.809.809,0,0,1,.381-.35,1,1,0,0,1,.509-.127,1.293,1.293,0,0,0,.763-.254,1.421,1.421,0,0,0,.509-.636A1.143,1.143,0,0,0,530.351,759.469Zm-30.582,42.726a4.935,4.935,0,0,0-.127-.668,4.926,4.926,0,0,0-.127.668,1.3,1.3,0,0,1-.159.572,1.1,1.1,0,0,1-.381.382.934.934,0,0,1-.509.127,1.531,1.531,0,0,0-.763.222,1.339,1.339,0,0,0-.509.6,1.242,1.242,0,0,0-.064.763,4.938,4.938,0,0,0,.127.668,4.947,4.947,0,0,0,.127-.668,2.018,2.018,0,0,1,.191-.572.808.808,0,0,1,.381-.35,1.007,1.007,0,0,1,.509-.127,1.674,1.674,0,0,0,.572-.127,1.335,1.335,0,0,0,.477-.381,1.21,1.21,0,0,0,.254-.54A1.161,1.161,0,0,0,499.769,802.195Zm-29.5.032a4.949,4.949,0,0,0-.127-.668,4.93,4.93,0,0,0-.127.668,1.3,1.3,0,0,1-.159.572,1.094,1.094,0,0,1-.382.381.932.932,0,0,1-.509.127,1.53,1.53,0,0,0-.763.223,1.193,1.193,0,0,0-.509.6,1.263,1.263,0,0,0-.064.763,4.94,4.94,0,0,0,.127.668,4.93,4.93,0,0,0,.127-.668,1.567,1.567,0,0,1,.191-.54.81.81,0,0,1,.382-.35,1.007,1.007,0,0,1,.509-.127,1.293,1.293,0,0,0,.763-.254,1.421,1.421,0,0,0,.509-.636A1.553,1.553,0,0,0,470.268,802.226Zm39.324-13.511a4.914,4.914,0,0,0-.127-.667,4.942,4.942,0,0,0-.127.667,1.3,1.3,0,0,1-.159.572,1.1,1.1,0,0,1-.382.382.933.933,0,0,1-.509.127,1.531,1.531,0,0,0-.763.222,1.34,1.34,0,0,0-.509.6,1.263,1.263,0,0,0-.064.763,4.934,4.934,0,0,0,.127.668,4.944,4.944,0,0,0,.127-.668,2.018,2.018,0,0,1,.191-.572.808.808,0,0,1,.381-.35,1.006,1.006,0,0,1,.509-.127,1.675,1.675,0,0,0,.572-.127,1.41,1.41,0,0,0,.477-.381,1.211,1.211,0,0,0,.254-.541A.88.88,0,0,0,509.592,788.716Zm15.164-12.4a4.931,4.931,0,0,0-.127-.667,4.94,4.94,0,0,0-.127.667,1.3,1.3,0,0,1-.159.572,1.1,1.1,0,0,1-.382.381.933.933,0,0,1-.509.127,1.531,1.531,0,0,0-.763.223,1.339,1.339,0,0,0-.509.6,1.243,1.243,0,0,0-.064.763,4.953,4.953,0,0,0,.127.668,4.934,4.934,0,0,0,.127-.668,2.019,2.019,0,0,1,.191-.572.807.807,0,0,1,.381-.35,1.006,1.006,0,0,1,.509-.127,1.163,1.163,0,0,0,.572-.127,1.408,1.408,0,0,0,.477-.381,1.211,1.211,0,0,0,.254-.54A1.732,1.732,0,0,0,524.756,776.317ZM499.26,826.1a4.929,4.929,0,0,0-.127-.668,4.938,4.938,0,0,0-.127.668,1.931,1.931,0,0,1-.159.572,1.1,1.1,0,0,1-.381.382.934.934,0,0,1-.509.127,1.267,1.267,0,0,0-.763.222,1.339,1.339,0,0,0-.509.6,1.263,1.263,0,0,0-.064.763,4.945,4.945,0,0,0,.127.668,4.945,4.945,0,0,0,.127-.668,1.025,1.025,0,0,1,.191-.572.81.81,0,0,1,.381-.35,1.007,1.007,0,0,1,.509-.127,1.163,1.163,0,0,0,.572-.127,1.408,1.408,0,0,0,.477-.381,1.21,1.21,0,0,0,.254-.54A.876.876,0,0,0,499.26,826.1Zm-25.241,2.352a1.1,1.1,0,0,1-.509.254,1.061,1.061,0,0,1-.54-.032,1.335,1.335,0,0,1-.445-.286,1.475,1.475,0,0,0-.731-.382,1.351,1.351,0,0,0-.795.1,1.741,1.741,0,0,0-.572.508,5.981,5.981,0,0,0-.381.572l.572-.381a1.61,1.61,0,0,1,.509-.286,1.365,1.365,0,0,1,.509,0,.906.906,0,0,1,.445.254,1.513,1.513,0,0,0,.7.381,1.366,1.366,0,0,0,.795-.063,1.4,1.4,0,0,0,.572-.477,3.575,3.575,0,0,0,.381-.572A2.218,2.218,0,0,1,474.019,828.453Zm60.338-21.808a1.153,1.153,0,0,1-1.081.223,1.334,1.334,0,0,1-.445-.286,1.473,1.473,0,0,0-.731-.381,1.666,1.666,0,0,0-.795.1,1.742,1.742,0,0,0-.572.509l-.381.572c.223-.127.381-.254.572-.381a1.615,1.615,0,0,1,.509-.286,1.037,1.037,0,0,1,.54,0,.906.906,0,0,1,.445.254,1.518,1.518,0,0,0,.7.381,1.368,1.368,0,0,0,.795-.064,1.2,1.2,0,0,0,.572-.477l.381-.572C534.738,806.359,534.547,806.486,534.357,806.645Zm14.592-17.93a1.092,1.092,0,0,1-1.526-.063,1.473,1.473,0,0,0-.731-.382,1.351,1.351,0,0,0-.795.1,1.743,1.743,0,0,0-.572.509l-.381.572.572-.382a1.612,1.612,0,0,1,.509-.286,1.036,1.036,0,0,1,.541,0,.906.906,0,0,1,.445.254,1.516,1.516,0,0,0,.7.381,1.366,1.366,0,0,0,.795-.064,1.4,1.4,0,0,0,.572-.477c.127-.191.254-.35.381-.572A1.7,1.7,0,0,1,548.948,788.716Zm-65.583-26.2a1.1,1.1,0,0,1-.509.254,1.045,1.045,0,0,1-.54-.032,1.333,1.333,0,0,1-.445-.286,1.475,1.475,0,0,0-.731-.382,1.352,1.352,0,0,0-.795.1,1.743,1.743,0,0,0-.572.509,5.968,5.968,0,0,0-.381.572c.223-.127.381-.254.572-.381a1.614,1.614,0,0,1,.509-.286,1.537,1.537,0,0,1,.54,0,.906.906,0,0,1,.445.254,1.515,1.515,0,0,0,.7.381,1.367,1.367,0,0,0,.795-.064,1.4,1.4,0,0,0,.572-.477c.127-.191.254-.35.381-.572A3.464,3.464,0,0,1,483.365,762.52Zm25.623,79.189a1.04,1.04,0,0,1-.477-.35.942.942,0,0,1-.222-.477,1.551,1.551,0,0,1,.032-.54,1.139,1.139,0,0,0,0-.795,1.193,1.193,0,0,0-.445-.668,1.369,1.369,0,0,0-.7-.286l-.668-.1c.191.127.381.222.572.35a1.039,1.039,0,0,1,.477.35.835.835,0,0,1,.223.477,1.061,1.061,0,0,1-.032.54,1.357,1.357,0,0,0-.032.795,1.327,1.327,0,0,0,.413.667,1.411,1.411,0,0,0,.7.318l.668.1A1.64,1.64,0,0,0,508.988,841.709Zm-28.071,4.133a1.257,1.257,0,0,1-.318.477,1.148,1.148,0,0,1-.477.254,1.061,1.061,0,0,1-.541-.032c-.54-.159-1.144-6.612-1.462-6.167a1.44,1.44,0,0,0-.254.7c0,.223-.064.445-.064.7a5.535,5.535,0,0,0,.318-.6,1.7,1.7,0,0,1,.318-.509.906.906,0,0,1,.445-.254,1.037,1.037,0,0,1,.54,0c.509.159,1.144,6.676,1.462,6.231a1.369,1.369,0,0,0,.286-.7,5.723,5.723,0,0,1,.064-.7A5.544,5.544,0,0,0,480.917,845.842Z" transform="translate(-399.566 -695.791)" fill="#fff" opacity="0.7"/>
      <path id="Path_75" data-name="Path 75" d="M624.287,612.714a7,7,0,0,0,3.847-1.24,7.168,7.168,0,0,0,2.511-3.147,6.9,6.9,0,0,0,.318-4.006,6.98,6.98,0,0,0-5.563-5.372,6.675,6.675,0,0,0-4.006.477,6.946,6.946,0,0,0-4.2,6.485,6.865,6.865,0,0,0,2.13,4.864,6.7,6.7,0,0,0,2.289,1.462A6.857,6.857,0,0,0,624.287,612.714Z" transform="translate(-501.608 -586.676)" fill="#21252b"/>
      <path id="Path_76" data-name="Path 76" d="M590.3,604.365s7.852,30.487-7.852,32.839C568.876,639.239,567,618.1,567,618.1l.413-13.8Z" transform="translate(-467.37 -590.406)" fill="#f0d0d0"/>
      <path id="Path_77" data-name="Path 77" d="M574,576.491l-13.861,1.272a2.975,2.975,0,0,0-1.176.35,3.036,3.036,0,0,0-1.526,1.844,3.141,3.141,0,0,0-.127,1.208,3.281,3.281,0,0,1-.731,2.321,3.129,3.129,0,0,1-2.13,1.113.537.537,0,0,0-.318.1.858.858,0,0,0-.254.223,1.292,1.292,0,0,0-.159.286,1.079,1.079,0,0,0-.032.318l.286,3.052a.586.586,0,0,1-.159.509.712.712,0,0,1-.477.254.644.644,0,0,1-.477-.127.969.969,0,0,1-.286-.413l-.668-2.925-.636-.954-3.243,2.1s-5.468-8.075-3.052-15.545c1.367-4.26,5.563-5.849,7.534-6.1a1.813,1.813,0,0,0,.89-.35,2.238,2.238,0,0,0,.636-.7c.763-1.4,2.734-3.783,7.089-3.719a7.361,7.361,0,0,1,3.56.858,7.165,7.165,0,0,1,2.7,2.448,2.09,2.09,0,0,0,1.208.858,2.111,2.111,0,0,0,1.462-.127,6.084,6.084,0,0,1,2.988-.6,5.905,5.905,0,0,1,2.893.954C580.519,567.749,578.834,575.633,574,576.491Z" transform="translate(-451.928 -560.594)" fill="#21252b"/>
      <path id="Path_78" data-name="Path 78" d="M564.858,665.047a1.565,1.565,0,0,0,.763-.064,1.188,1.188,0,0,0,.636-.382l-1.558,3.37Z" transform="translate(-465.8 -631.538)" opacity="0.15"/>
      <path id="Path_79" data-name="Path 79" d="M555.717,636.7a2.828,2.828,0,0,0-3.751-2.13c-3.592.985-4.037,8.806,1.621,10.077,2.988.668,2.607-1.144,2.448-3.529Z" transform="translate(-455.292 -610.946)" fill="#f0d0d0"/>
      <path id="Path_80" data-name="Path 80" d="M555.89,640.463a1.977,1.977,0,0,1,.827-.286,1.936,1.936,0,0,1,.858.1,1.63,1.63,0,0,1,.731.477,2.293,2.293,0,0,1,.445.763,3.968,3.968,0,0,1,.254,2.193l-.032.668a.84.84,0,0,1-.159.191.279.279,0,0,1-.223.032.344.344,0,0,1-.223-.1.275.275,0,0,1-.1-.191l.032-.668a4.1,4.1,0,0,0-.223-1.844,1,1,0,0,0-.286-.54,1.326,1.326,0,0,0-.477-.35,1.27,1.27,0,0,0-.6-.064,1.154,1.154,0,0,0-.54.222.35.35,0,0,1-.254,0,.286.286,0,0,1-.191-.191.7.7,0,0,1-.032-.254C555.763,640.59,555.826,640.494,555.89,640.463Z" transform="translate(-459.661 -614.869)" opacity="0.15"/>
      <g id="Group_9" data-name="Group 9" transform="translate(113.064 40.629)" opacity="0.15">
        <path id="Path_81" data-name="Path 81" d="M611.4,689.67h-.032c-1.208-.286-1.844-.445-1.844-.445a.337.337,0,0,1-.222-.191.522.522,0,0,1-.032-.318.5.5,0,0,1,.191-.254.523.523,0,0,1,.318-.064s.6.159,1.812.445c.063,0,.1.032.159.064.032.032.1.063.1.127a.473.473,0,0,1,.063.286.694.694,0,0,1-.159.254A.964.964,0,0,1,611.4,689.67Z" transform="translate(-609.258 -688.398)" opacity="0.15"/>
      </g>
      <path id="Path_82" data-name="Path 82" d="M713.746,862.7,698.9,865.465v3.592l15.7-2.48Z" transform="translate(-557.339 -766.659)" fill="#fff"/>
      <path id="Path_83" data-name="Path 83" d="M603.14,648.753a1.4,1.4,0,0,0,.7-.223,1.333,1.333,0,0,0,.445-.572,1.412,1.412,0,0,0,.064-.731,1.377,1.377,0,0,0-.35-.636,1.34,1.34,0,0,0-.636-.318,1.415,1.415,0,0,0-.731.1,1.122,1.122,0,0,0-.541.477,1.361,1.361,0,0,0-.191.7,1.276,1.276,0,0,0,.1.477,1.211,1.211,0,0,0,.286.413,1.121,1.121,0,0,0,.413.254A.7.7,0,0,0,603.14,648.753Z" transform="translate(-491.175 -619.028)" fill="#21252b"/>
      <path id="Path_84" data-name="Path 84" d="M606.953,648.642c.064,0,.1-.032.159-.064a.437.437,0,0,0,.1-.127.144.144,0,0,0,0-.159.165.165,0,0,0-.064-.127.241.241,0,0,0-.127-.064.345.345,0,0,0-.159.032.436.436,0,0,0-.127.1.238.238,0,0,0-.032.159.117.117,0,0,0,.032.1c0,.032.032.064.064.1s.064.032.1.064Z" transform="translate(-494.448 -620.283)" fill="#fff"/>
      <path id="Path_85" data-name="Path 85" d="M634.439,648.253a1.4,1.4,0,0,0,.7-.223,1.332,1.332,0,0,0,.445-.572,1.413,1.413,0,0,0,.064-.731,1.379,1.379,0,0,0-.35-.636,1.212,1.212,0,0,0-.636-.318,1.416,1.416,0,0,0-.731.1,1.123,1.123,0,0,0-.54.477,1.362,1.362,0,0,0-.191.7,1.276,1.276,0,0,0,.1.477,1.209,1.209,0,0,0,.286.413,1.12,1.12,0,0,0,.413.254A1.877,1.877,0,0,0,634.439,648.253Z" transform="translate(-512.524 -618.687)" fill="#21252b"/>
      <path id="Path_86" data-name="Path 86" d="M638.254,648.142c.064,0,.1-.032.159-.064a.437.437,0,0,0,.1-.127.144.144,0,0,0,0-.159.165.165,0,0,0-.063-.127.241.241,0,0,0-.127-.064.287.287,0,0,0-.159.032.444.444,0,0,0-.127.1.238.238,0,0,0-.032.159.117.117,0,0,0,.032.1c0,.032.032.064.064.1s.064.032.1.064S638.191,648.142,638.254,648.142Z" transform="translate(-515.799 -619.942)" fill="#fff"/>
      <g id="Group_10" data-name="Group 10" transform="translate(115.398 32.192)" opacity="0.15">
        <path id="Path_87" data-name="Path 87" d="M618.635,664.829l-1.685.159a.239.239,0,0,1-.159-.032.442.442,0,0,1-.127-.1.243.243,0,0,1-.064-.159v-.191a.242.242,0,0,1,.064-.127l.1-.1a.191.191,0,0,1,.127-.032l1.685-.159a.512.512,0,0,0,.286-.1.427.427,0,0,0,.223-.191.392.392,0,0,0,.127-.254.881.881,0,0,0,.032-.286.512.512,0,0,0-.1-.286.426.426,0,0,0-.191-.223.64.64,0,0,0-.254-.127.879.879,0,0,0-.286-.032h-.159a.165.165,0,0,1-.127-.064.439.439,0,0,1-.1-.127.191.191,0,0,1-.032-.127v-.159a.241.241,0,0,1,.064-.127.438.438,0,0,1,.127-.1.237.237,0,0,1,.159-.032,1.184,1.184,0,0,1,.572.064,1.566,1.566,0,0,1,.89.731,1.1,1.1,0,0,1,.159.572,1.184,1.184,0,0,1-.064.572,1.608,1.608,0,0,1-.286.509,1.143,1.143,0,0,1-.445.35A1.071,1.071,0,0,1,618.635,664.829Z" transform="translate(-616.6 -661.86)" opacity="0.15"/>
      </g>
      <path id="Path_88" data-name="Path 88" d="M600.812,638.512a.931.931,0,0,1-.286-.064,4.017,4.017,0,0,0-4.482.1l-.191.1a.2.2,0,0,1-.191,0,.54.54,0,0,1-.318-.191l-.1-.19a.2.2,0,0,1,0-.191.451.451,0,0,1,.064-.19.56.56,0,0,1,.127-.159,5.156,5.156,0,0,1,2.8-.922,4.82,4.82,0,0,1,2.829.827.4.4,0,0,1,.191.254.542.542,0,0,1,0,.318.69.69,0,0,1-.159.254,1.127,1.127,0,0,1-.286.127Z" transform="translate(-486.622 -612.569)" fill="#21252b"/>
      <path id="Path_89" data-name="Path 89" d="M455.2,835.8l3.592,62.785H480.5l-3.243-32.2Z" transform="translate(-391.11 -748.312)" opacity="0.15"/>
      <path id="Path_90" data-name="Path 90" d="M698.019,815l2,44.6a6.964,6.964,0,0,0,1.176,3.5,6.781,6.781,0,0,0,2.861,2.321l28.77,12.112-.1,3.942L693.6,869.3l2.766-52.644Z" transform="translate(-553.723 -734.124)" opacity="0.15"/>
      <path id="Path_91" data-name="Path 91" d="M527.12,826.174l-13.7-26.418a1,1,0,0,0-.572-.509,1.053,1.053,0,0,0-.763,0l-3.084,1.4,12.271,32.108,2.543-.89.35,1.049,32.235-13.8,1.113-3.02Z" transform="translate(-427.808 -723.331)" opacity="0.15"/>
      <path id="Path_92" data-name="Path 92" d="M632.777,637.942a.512.512,0,0,1-.286-.1,4.017,4.017,0,0,0-4.482.1.418.418,0,0,1-.381.1.451.451,0,0,1-.191-.064.558.558,0,0,1-.159-.127.5.5,0,0,1-.1-.381.451.451,0,0,1,.064-.191.558.558,0,0,1,.127-.159,5.155,5.155,0,0,1,2.8-.922,4.755,4.755,0,0,1,2.829.827.494.494,0,0,1,.191.254.541.541,0,0,1,0,.318.692.692,0,0,1-.159.254,1.125,1.125,0,0,1-.286.127Z" transform="translate(-508.414 -612.159)" fill="#21252b"/>
      <path id="Path_93" data-name="Path 93" d="M474.233,796l10.332,22.158-21.427,8.806-8.838-19.71Z" transform="translate(-390.498 -721.164)" fill="#70a340"/>
      <path id="Path_94" data-name="Path 94" d="M607.555,676.6h-.1a.111.111,0,0,0-.063.032l-.064.063a.11.11,0,0,1-.032.064v.1a3.4,3.4,0,0,0,.827,1.653,3.261,3.261,0,0,0,3.433.89,3.245,3.245,0,0,0,1.558-1.049c.032-.032.032-.064.064-.1v-.1c0-.032-.032-.063-.064-.1s-.064-.032-.1-.064Z" transform="translate(-494.859 -639.723)" fill="#fff"/>
      <path id="Path_95" data-name="Path 95" d="M549.7,731.193l13.8,17.1,5.372-7.566,8.488,5.659,2.13-15.991-2.353-.7-8.265,10.745L553.45,729.7Z" transform="translate(-455.569 -675.94)" fill="#fff"/>
      <path id="Path_96" data-name="Path 96" d="M564.409,804.719a1.333,1.333,0,0,0-2.066-1.144l-11.031,7.693.827-.35c.922-2.988-.827-3.847-.827-3.847l-5.245,4.959-4.7,8.043-.6.572-30.519,12.939-5.055-11.6L487,830.6l9.887,20.632a7.53,7.53,0,0,0,2,2.575,7.968,7.968,0,0,0,2.893,1.558,8.1,8.1,0,0,0,3.274.254,8.375,8.375,0,0,0,3.084-1.113l40.151-24.892c4.292-.827,6.135-1.113,8.869-4.546l3.211-2.8a1.437,1.437,0,0,0-.509-2.321c-.7-.35-.636-.986-.636-1.78a2.214,2.214,0,0,0-.159-.795,1.673,1.673,0,0,0-.509-.636,2.47,2.47,0,0,1-1.017-1.558,2.094,2.094,0,0,0-2.321-1.844C555.7,813.366,564.918,805.164,564.409,804.719Z" transform="translate(-412.802 -726.163)" fill="#f0d0d0"/>
      <path id="Path_97" data-name="Path 97" d="M566.5,868.008l-2.829.477-36.94,20.123c-11.127,5.945-14.719-.35-15.132-1.144l2.066,4.292a7.528,7.528,0,0,0,2,2.575,7.968,7.968,0,0,0,2.893,1.558,8.1,8.1,0,0,0,3.274.254,8.376,8.376,0,0,0,3.084-1.113l40.151-24.892c3.91-.985,5.086-.477,7.82-3.433l1.017-1.113,2.575-2.257.668-.636-3.719,2.543A16.757,16.757,0,0,1,566.5,868.008Z" transform="translate(-429.581 -766.659)" opacity="0.15"/>
      <path id="Path_98" data-name="Path 98" d="M688.4,821.535l1.176-.827a3.851,3.851,0,0,0-.064-2.607A4.669,4.669,0,0,1,688.4,821.535Z" transform="translate(-550.176 -736.24)" opacity="0.15"/>
      <path id="Path_99" data-name="Path 99" d="M476.8,862.941,498.2,854.2l1.876,3.783-21.427,8.806Z" transform="translate(-405.845 -760.862)" fill="#fff"/>
      <path id="Path_100" data-name="Path 100" d="M496.074,853.092a1.1,1.1,0,0,1-.509.254,1.043,1.043,0,0,1-.54-.032,1.332,1.332,0,0,1-.445-.286,1.474,1.474,0,0,0-.731-.382,1.353,1.353,0,0,0-.795.1,1.448,1.448,0,0,0-.572.509l-.381.572.572-.382a1.615,1.615,0,0,1,.509-.286,1.037,1.037,0,0,1,.54,0,1.167,1.167,0,0,1,.477.254,1.517,1.517,0,0,0,.7.381,1.368,1.368,0,0,0,.795-.064,1.2,1.2,0,0,0,.572-.477l.381-.572A3.747,3.747,0,0,1,496.074,853.092Z" transform="translate(-416.281 -759.786)" fill="#fff" opacity="0.7"/>
      <path id="Path_101" data-name="Path 101" d="M710.49,998.3h97.5a1.774,1.774,0,0,1,1.176.477,1.662,1.662,0,0,1,.509,1.176v1.272a1.74,1.74,0,0,1-1.685,1.685h-97.5a1.491,1.491,0,0,1-1.113-.477,1.619,1.619,0,0,1-.477-1.113v-1.494a1.679,1.679,0,0,1,.477-1.112A1.987,1.987,0,0,1,710.49,998.3Z" transform="translate(-564.159 -859.153)" fill="#3f4249"/>
      <path id="Path_102" data-name="Path 102" d="M710.49,998.3h97.5a1.774,1.774,0,0,1,1.176.477,1.662,1.662,0,0,1,.509,1.176v1.272a1.74,1.74,0,0,1-1.685,1.685h-97.5a1.491,1.491,0,0,1-1.113-.477,1.619,1.619,0,0,1-.477-1.113v-1.494a1.679,1.679,0,0,1,.477-1.112A1.987,1.987,0,0,1,710.49,998.3Z" transform="translate(-564.159 -859.153)" opacity="0.3"/>
      <path id="Path_103" data-name="Path 103" d="M903.428,910.026H847.7L868.458,868.7h55.7Z" transform="translate(-658.834 -770.752)" fill="#3f4249"/>
      <path id="Path_104" data-name="Path 104" d="M903.428,910.026H847.7L868.458,868.7h55.7Z" transform="translate(-658.834 -770.752)" opacity="0.3"/>
      <path id="Path_105" data-name="Path 105" d="M711.19,997.9h42.249a1.4,1.4,0,0,1,.985.413,1.455,1.455,0,0,1,.413.986v1.78a1.53,1.53,0,0,1-.413,1.017,1.452,1.452,0,0,1-.985.413H711.19a1.491,1.491,0,0,1-1.113-.477,1.62,1.62,0,0,1-.477-1.113v-1.494a1.684,1.684,0,0,1,.477-1.113A1.714,1.714,0,0,1,711.19,997.9Z" transform="translate(-564.637 -858.878)" fill="#3f4249"/>
      <path id="Path_106" data-name="Path 106" d="M844.613,910.5l-1.812-.732L863.56,868.7h2.066Z" transform="translate(-655.493 -770.752)" fill="#3f4249"/>
      <g id="Group_11" data-name="Group 11" transform="translate(190.487 138.512)" opacity="0.3">
        <path id="Path_107" data-name="Path 107" d="M905.954,996.937H853.119a.318.318,0,0,1,0-.636h52.835a.318.318,0,0,1,0,.636Z" transform="translate(-852.801 -996.301)" opacity="0.3"/>
      </g>
      <path id="Path_108" data-name="Path 108" d="M961.175,933.123c1.876-2.575,2.035-5.659.381-6.9s-4.546-.1-6.422,2.48-2.035,5.659-.381,6.9S959.3,935.7,961.175,933.123Z" transform="translate(-731.078 -809.648)" fill="#f4f4f4"/>
      <path id="Path_109" data-name="Path 109" d="M618.186,1013.1H315.8a3.487,3.487,0,0,0-3.5,3.5v.572a3.487,3.487,0,0,0,3.5,3.5H618.217a3.487,3.487,0,0,0,3.5-3.5v-.572A3.534,3.534,0,0,0,618.186,1013.1Z" transform="translate(-293.64 -869.248)" fill="#868a91"/>
      <path id="Path_110" data-name="Path 110" d="M638.1,1036.5H357.3v6.549H638.1Z" transform="translate(-324.334 -885.209)" fill="#868a91"/>
      <path id="Path_111" data-name="Path 111" d="M637.5,1036.9H356.7v2.639H637.5Z" transform="translate(-323.924 -885.482)" opacity="0.3"/>
      <path id="Path_112" data-name="Path 112" d="M597.315,1056.081H254.172a.542.542,0,0,1-.223-.032l-.191-.1a.4.4,0,0,1-.127-.191.471.471,0,0,1-.032-.222.541.541,0,0,1,.032-.223.665.665,0,0,1,.127-.191c.064-.032.127-.1.191-.1a.47.47,0,0,1,.223-.032H597.315a.539.539,0,0,1,.222.032l.191.1a.666.666,0,0,1,.127.191.472.472,0,0,1,.032.223.541.541,0,0,1-.032.222.666.666,0,0,1-.127.191.276.276,0,0,1-.191.1A.279.279,0,0,1,597.315,1056.081Z" transform="translate(-253.6 -897.828)" fill="#b2b6bb"/>
      <path id="Path_131" data-name="Path 131" d="M1161.109,959H1140.7v10.268a6.838,6.838,0,0,0,6.8,6.8h6.708a6.785,6.785,0,0,0,6.771-6.708Z" transform="translate(-858.69 -832.346)" fill="#61656d"/>
      <path id="Path_132" data-name="Path 132" d="M1157.109,942.6a3.6,3.6,0,0,1-1.685.6,3.309,3.309,0,0,1-1.749-.318,3.71,3.71,0,0,1-1.875-2.956,4.574,4.574,0,0,1,1.685-.445,3.989,3.989,0,0,1,1.717.286,4.532,4.532,0,0,1,1.4,1.017,4.034,4.034,0,0,1,.858,1.526" transform="translate(-866.261 -819.032)" fill="#6fa340"/>
      <path id="Path_133" data-name="Path 133" d="M1127.409,954.1a3.6,3.6,0,0,1-1.685.6,3.309,3.309,0,0,1-1.749-.318,3.489,3.489,0,0,1-1.3-1.24,4.074,4.074,0,0,1-.572-1.717,4.575,4.575,0,0,1,1.685-.445,3.99,3.99,0,0,1,1.717.286,4.533,4.533,0,0,1,1.4,1.017,4.036,4.036,0,0,1,.858,1.526" transform="translate(-846.003 -826.876)" fill="#6fa340"/>
      <path id="Path_134" data-name="Path 134" d="M1142.881,932.2a3.336,3.336,0,0,1-1.081,1.4,3.513,3.513,0,0,1-1.621.7,3.848,3.848,0,0,1-1.781-.318,3.466,3.466,0,0,1-1.4-1.113,4.087,4.087,0,0,1,1.145-1.3,4.2,4.2,0,0,1,1.59-.7,4.049,4.049,0,0,1,3.306.858" transform="translate(-856.166 -813.109)" fill="#6fa340"/>
      <path id="Path_135" data-name="Path 135" d="M1143.395,948.489a3.67,3.67,0,0,1,1.748.35,3.186,3.186,0,0,1,1.335,1.176,3.667,3.667,0,0,1,.063,3.5,4.63,4.63,0,0,1-1.685-.477,3.572,3.572,0,0,1-1.335-1.145,3.665,3.665,0,0,1-.667-1.621,4.625,4.625,0,0,1,.031-1.748" transform="translate(-860.113 -825.173)" fill="#6fa340"/>
      <path id="Path_136" data-name="Path 136" d="M1126.68,969.057a3.6,3.6,0,0,1,.413,1.717,3.711,3.711,0,0,1-.509,1.717,3.755,3.755,0,0,1-1.367,1.176,4.163,4.163,0,0,1-1.78.381,4.155,4.155,0,0,1,.222-3.4,3.872,3.872,0,0,1,2.734-1.748" transform="translate(-846.736 -839.098)" fill="#6fa340"/>
      <path id="Path_137" data-name="Path 137" d="M1117,934.421a2.014,2.014,0,0,1,.827-.509,3.276,3.276,0,0,1,1.113-.191,12.287,12.287,0,0,1,1.526.1,4.158,4.158,0,0,0,1.876-.159,2.981,2.981,0,0,0,1.558-1.494,9.482,9.482,0,0,0,.667-2.289,6.876,6.876,0,0,1,.795-2.352,8.433,8.433,0,0,1,1.749-1.78,7.552,7.552,0,0,0,1.653-1.685,5.571,5.571,0,0,0,.826-3.878,5.488,5.488,0,0,0-1.017-2.48c-.159-.191-.318-.381-.477-.54a.841.841,0,0,0-.191-.159.832.832,0,0,0,.159.191,3.925,3.925,0,0,1,.445.572,5.349,5.349,0,0,1,.922,2.48,5.421,5.421,0,0,1-.858,3.751,8.144,8.144,0,0,1-1.653,1.653,8.033,8.033,0,0,0-1.78,1.812,7.026,7.026,0,0,0-.826,2.416,7.761,7.761,0,0,1-.636,2.225,2.676,2.676,0,0,1-1.431,1.4,3.886,3.886,0,0,1-1.812.159,12.27,12.27,0,0,0-1.526-.063,2.858,2.858,0,0,0-1.144.254,1.991,1.991,0,0,0-.636.413.7.7,0,0,0-.127.159Z" transform="translate(-842.524 -803.698)" fill="#6fa340"/>
      <path id="Path_138" data-name="Path 138" d="M1117,934.421a2.014,2.014,0,0,1,.827-.509,3.276,3.276,0,0,1,1.113-.191,12.287,12.287,0,0,1,1.526.1,4.158,4.158,0,0,0,1.876-.159,2.981,2.981,0,0,0,1.558-1.494,9.482,9.482,0,0,0,.667-2.289,6.876,6.876,0,0,1,.795-2.352,8.433,8.433,0,0,1,1.749-1.78,7.552,7.552,0,0,0,1.653-1.685,5.571,5.571,0,0,0,.826-3.878,5.488,5.488,0,0,0-1.017-2.48c-.159-.191-.318-.381-.477-.54a.841.841,0,0,0-.191-.159.832.832,0,0,0,.159.191,3.925,3.925,0,0,1,.445.572,5.349,5.349,0,0,1,.922,2.48,5.421,5.421,0,0,1-.858,3.751,8.144,8.144,0,0,1-1.653,1.653,8.033,8.033,0,0,0-1.78,1.812,7.026,7.026,0,0,0-.826,2.416,7.761,7.761,0,0,1-.636,2.225,2.676,2.676,0,0,1-1.431,1.4,3.886,3.886,0,0,1-1.812.159,12.27,12.27,0,0,0-1.526-.063,2.858,2.858,0,0,0-1.144.254,1.991,1.991,0,0,0-.636.413.7.7,0,0,0-.127.159Z" transform="translate(-842.524 -803.698)" fill="#6fa340"/>
      <path id="Path_139" data-name="Path 139" d="M1241.192,965.032a5.315,5.315,0,0,1,.509-2.511,5.238,5.238,0,0,1,1.653-1.971,5.258,5.258,0,0,1,4.927-.668A9.159,9.159,0,0,1,1241.192,965.032Z" transform="translate(-927.232 -832.719)" fill="#6fa340"/>
      <path id="Path_140" data-name="Path 140" d="M1237.92,978.3a4.371,4.371,0,0,1,.286,4.609,9.616,9.616,0,0,1-3.211,3.083,6.708,6.708,0,0,1,.159-4.323A6.593,6.593,0,0,1,1237.92,978.3Z" transform="translate(-922.816 -845.511)" fill="#6fa340"/>
      <path id="Path_141" data-name="Path 141" d="M1215.035,963.013a6.392,6.392,0,0,1-.7,2.289,6.176,6.176,0,0,1-1.558,1.844,6.013,6.013,0,0,1-2.162,1.081,6.182,6.182,0,0,1-2.416.159,8.284,8.284,0,0,1,2.289-4.355,3.861,3.861,0,0,1,4.609-.572" transform="translate(-904.731 -835.024)" fill="#6fa340"/>
      <path id="Path_142" data-name="Path 142" d="M1229.7,951.6c.254-1.462,1.717-2,3.211-2.13a6.293,6.293,0,0,1,4.165,1.4,5.248,5.248,0,0,1-3.529,1.812A5.2,5.2,0,0,1,1229.7,951.6Z" transform="translate(-919.396 -825.831)" fill="#6fa340"/>
      <path id="Path_143" data-name="Path 143" d="M1247.6,996c1.431,1.208,1.653,3.815,1.049,5.563a8.675,8.675,0,0,1-3.5,4.2,11.384,11.384,0,0,1-.668-5.436A5.818,5.818,0,0,1,1247.6,996Z" transform="translate(-929.41 -857.584)" fill="#6fa340"/>
      <path id="Path_144" data-name="Path 144" d="M1215.64,940.706a3.767,3.767,0,0,0-1.4-1.24,4.051,4.051,0,0,0-1.812-.477,4.446,4.446,0,0,0-3.529,1.494,3.865,3.865,0,0,0,1.367,1.589,3.689,3.689,0,0,0,5.373-1.367Z" transform="translate(-905.209 -818.693)" fill="#6fa340"/>
      <path id="Path_145" data-name="Path 145" d="M1224.8,921.93a5.873,5.873,0,0,0,2.353.191,5.5,5.5,0,0,0,2.225-.795,5.587,5.587,0,0,0,1.717-1.621,5.521,5.521,0,0,0,.89-2.193,12.175,12.175,0,0,0-3.4.063,5.457,5.457,0,0,0-3.02,1.494,2.829,2.829,0,0,0-.763,1.335A3.1,3.1,0,0,0,1224.8,921.93Z" transform="translate(-915.986 -803.986)" fill="#6fa340"/>
      <path id="Path_146" data-name="Path 146" d="M1210.038,912.519a4.6,4.6,0,0,0,1.24-1.589,4.587,4.587,0,0,0,0-3.942,4.322,4.322,0,0,0-1.24-1.59A9.937,9.937,0,0,0,1208,909.69a3.748,3.748,0,0,0,.032,1.78,2.3,2.3,0,0,0,.445.763,1.911,1.911,0,0,0,.795.413" transform="translate(-904.534 -795.784)" fill="#6fa340"/>
      <g id="Group_14" data-name="Group 14" transform="translate(303.469 127.902)" opacity="0.4">
        <g id="Group_13" data-name="Group 13" transform="translate(0)" opacity="0.4">
          <path id="Path_147" data-name="Path 147" d="M1215.035,963.013a6.392,6.392,0,0,1-.7,2.289,6.176,6.176,0,0,1-1.558,1.844,6.013,6.013,0,0,1-2.162,1.081,6.182,6.182,0,0,1-2.416.159,8.284,8.284,0,0,1,2.289-4.355,3.861,3.861,0,0,1,4.609-.572" transform="translate(-1208.2 -962.926)" fill="#486f25" opacity="0.4"/>
        </g>
      </g>
      <g id="Group_18" data-name="Group 18" transform="translate(308.714 113.436)" opacity="0.4">
        <g id="Group_17" data-name="Group 17" opacity="0.4">
          <g id="Group_16" data-name="Group 16" opacity="0.4">
            <g id="Group_15" data-name="Group 15" opacity="0.4">
              <path id="Path_148" data-name="Path 148" d="M1224.8,921.93a5.873,5.873,0,0,0,2.353.191,5.5,5.5,0,0,0,2.225-.795,5.587,5.587,0,0,0,1.717-1.621,5.521,5.521,0,0,0,.89-2.193,12.175,12.175,0,0,0-3.4.063,5.457,5.457,0,0,0-3.02,1.494,2.829,2.829,0,0,0-.763,1.335A3.1,3.1,0,0,0,1224.8,921.93Z" transform="translate(-1224.7 -917.422)" fill="#486f25" opacity="0.4"/>
            </g>
          </g>
        </g>
      </g>
      <path id="Path_149" data-name="Path 149" d="M1196.632,937.982v-.127a1.556,1.556,0,0,0-.032-.35c-.032-.286-.032-.731-.064-1.3a11.745,11.745,0,0,1,.763-4.673,6.8,6.8,0,0,1,1.875-2.639,5.054,5.054,0,0,1,3.433-1.272,4.167,4.167,0,0,1,1.939.477,3.6,3.6,0,0,1,1.494,1.431,7.852,7.852,0,0,1,.859,4.292,27.189,27.189,0,0,0-.1,4.546,6.061,6.061,0,0,0,.572,2.1,4.62,4.62,0,0,0,1.271,1.653,6.238,6.238,0,0,0,1.78.89,7.8,7.8,0,0,1,1.653.763,6.1,6.1,0,0,1,2.193,2.384,5.64,5.64,0,0,1,.636,2.607,6.034,6.034,0,0,1-1.113,3.561.4.4,0,0,0,.064-.1l.191-.286a5.88,5.88,0,0,0,.6-1.176,6.41,6.41,0,0,0,.381-2.035,5.972,5.972,0,0,0-.6-2.67,6.207,6.207,0,0,0-2.225-2.48c-1.017-.668-2.353-.858-3.4-1.653a5.333,5.333,0,0,1-1.749-3.624,35.528,35.528,0,0,1,.1-4.482,7.971,7.971,0,0,0-.89-4.419,4,4,0,0,0-1.589-1.494,4.587,4.587,0,0,0-2.034-.509,5.128,5.128,0,0,0-3.561,1.335,7.463,7.463,0,0,0-1.908,2.734,9.644,9.644,0,0,0-.636,2.67,15.14,15.14,0,0,0-.064,2.066c.032.572.064,1.017.1,1.3,0,.127.032.254.032.35A.24.24,0,0,1,1196.632,937.982Z" transform="translate(-896.724 -810.788)" fill="#6fa340"/>
      <g id="Group_22" data-name="Group 22" transform="translate(299.737 116.606)" opacity="0.4">
        <g id="Group_21" data-name="Group 21" transform="translate(0)" opacity="0.4">
          <g id="Group_20" data-name="Group 20" opacity="0.4">
            <g id="Group_19" data-name="Group 19" opacity="0.4">
              <path id="Path_150" data-name="Path 150" d="M1196.632,937.982v-.127a1.556,1.556,0,0,0-.032-.35c-.032-.286-.032-.731-.064-1.3a11.745,11.745,0,0,1,.763-4.673,6.8,6.8,0,0,1,1.875-2.639,5.054,5.054,0,0,1,3.433-1.272,4.167,4.167,0,0,1,1.939.477,3.6,3.6,0,0,1,1.494,1.431,7.852,7.852,0,0,1,.859,4.292,27.189,27.189,0,0,0-.1,4.546,6.061,6.061,0,0,0,.572,2.1,4.62,4.62,0,0,0,1.271,1.653,6.238,6.238,0,0,0,1.78.89,7.8,7.8,0,0,1,1.653.763,6.1,6.1,0,0,1,2.193,2.384,5.64,5.64,0,0,1,.636,2.607,6.034,6.034,0,0,1-1.113,3.561.4.4,0,0,0,.064-.1l.191-.286a5.88,5.88,0,0,0,.6-1.176,6.41,6.41,0,0,0,.381-2.035,5.972,5.972,0,0,0-.6-2.67,6.207,6.207,0,0,0-2.225-2.48c-1.017-.668-2.353-.858-3.4-1.653a5.333,5.333,0,0,1-1.749-3.624,35.528,35.528,0,0,1,.1-4.482,7.971,7.971,0,0,0-.89-4.419,4,4,0,0,0-1.589-1.494,4.587,4.587,0,0,0-2.034-.509,5.128,5.128,0,0,0-3.561,1.335,7.463,7.463,0,0,0-1.908,2.734,9.644,9.644,0,0,0-.636,2.67,15.14,15.14,0,0,0-.064,2.066c.032.572.064,1.017.1,1.3,0,.127.032.254.032.35A.24.24,0,0,1,1196.632,937.982Z" transform="translate(-1196.461 -927.394)" fill="#21252b" opacity="0.4"/>
            </g>
          </g>
        </g>
      </g>
      <path id="Path_151" data-name="Path 151" d="M1101.706,927.116a4.092,4.092,0,0,1-.318-1.526,3.727,3.727,0,0,1,.413-1.748,3.674,3.674,0,0,1,1.24-1.367,3.838,3.838,0,0,1,1.749-.6,4.787,4.787,0,0,1,1.494.159c1.017.254,2,.827,3.211,1.081a4.016,4.016,0,0,0,1.844-.032,2.879,2.879,0,0,0,1.526-1.208c.731-1.113.922-2.511,1.78-3.56a3.421,3.421,0,0,1,1.621-1.049,4.776,4.776,0,0,1,5.055,1.462,7.327,7.327,0,0,1,1.558,2.893,8.732,8.732,0,0,1,.35,2.861,32.058,32.058,0,0,1-.54,4.228q-.143.715-.191,1.144c0,.127-.032.223-.032.286v.1c0-.032.032-.063.032-.1a1.187,1.187,0,0,1,.063-.286c.064-.286.127-.667.254-1.144a27.078,27.078,0,0,0,.6-4.228,9.08,9.08,0,0,0-.318-2.925,7.166,7.166,0,0,0-1.589-2.988,4.68,4.68,0,0,0-1.463-1.145,4.782,4.782,0,0,0-1.876-.572,5.15,5.15,0,0,0-1.971.191,3.5,3.5,0,0,0-1.717,1.145c-.922,1.113-1.113,2.511-1.812,3.56a2.546,2.546,0,0,1-1.4,1.113,3.268,3.268,0,0,1-1.748.032c-1.144-.223-2.162-.795-3.179-1.049a4.271,4.271,0,0,0-1.557-.159,3.379,3.379,0,0,0-1.367.382,3.848,3.848,0,0,0-1.59,1.43,3.726,3.726,0,0,0-.318,3.211,1.937,1.937,0,0,0,.159.382" transform="translate(-831.808 -803.578)" fill="#21252b"/>
      <path id="Path_152" data-name="Path 152" d="M1128.563,918.767a4.045,4.045,0,0,1-1.812.572,4.249,4.249,0,0,1-1.876-.318,3.489,3.489,0,0,1-1.3-1.24,4.072,4.072,0,0,1-.572-1.717,3.827,3.827,0,0,1,1.685-.477,3.988,3.988,0,0,1,1.717.286,4.014,4.014,0,0,1,2.289,2.543" transform="translate(-846.616 -802.731)" fill="#6fa340"/>
      <path id="Path_153" data-name="Path 153" d="M1117.082,935.911a4.006,4.006,0,0,1-1.685,3.274,4.226,4.226,0,0,1-1.749.477,3.725,3.725,0,0,1-1.748-.413,4.131,4.131,0,0,1,.509-1.685,4.2,4.2,0,0,1,1.145-1.335,4.133,4.133,0,0,1,3.37-.6" transform="translate(-839.045 -816.314)" fill="#6fa340"/>
      <path id="Path_154" data-name="Path 154" d="M1095.714,926.649a3.706,3.706,0,0,1-1.844.382,3.974,3.974,0,0,1-1.812-.509,3.779,3.779,0,0,1-1.558-3.147,3.992,3.992,0,0,1,1.717-.286,3.829,3.829,0,0,1,1.685.477,4.085,4.085,0,0,1,1.3,1.144,3.667,3.667,0,0,1,.668,1.621" transform="translate(-824.448 -807.847)" fill="#6fa340"/>
      <path id="Path_155" data-name="Path 155" d="M1154.129,905.135a4.2,4.2,0,0,0,1.462-3.465,3.877,3.877,0,0,0-.795-1.621,3.662,3.662,0,0,0-1.463-1.049,4.474,4.474,0,0,0-.953,1.462,4.025,4.025,0,0,0-.223,1.749,4.406,4.406,0,0,0,.54,1.653,4.2,4.2,0,0,0,1.208,1.271" transform="translate(-866.492 -791.42)" fill="#6fa340"/>
      <path id="Path_156" data-name="Path 156" d="M1174.337,910.914a4.878,4.878,0,0,1-2.13-.381,5,5,0,0,1-1.78-1.24,4.574,4.574,0,0,1-.954-1.876,4.8,4.8,0,0,1-.064-2.13,4.519,4.519,0,0,1,2.257.1,3.981,3.981,0,0,1,1.876,1.24,4.075,4.075,0,0,1,.986,2.034A4.539,4.539,0,0,1,1174.337,910.914Z" transform="translate(-878.212 -795.641)" fill="#6fa340"/>
      <g id="Group_24" data-name="Group 24" transform="translate(291.109 109.547)" opacity="0.7">
        <g id="Group_23" data-name="Group 23" transform="translate(0 0)" opacity="0.7">
          <path id="Path_157" data-name="Path 157" d="M1174.337,910.914a4.878,4.878,0,0,1-2.13-.381,5,5,0,0,1-1.78-1.24,4.574,4.574,0,0,1-.954-1.876,4.8,4.8,0,0,1-.064-2.13,4.519,4.519,0,0,1,2.257.1,3.981,3.981,0,0,1,1.876,1.24,4.075,4.075,0,0,1,.986,2.034A4.539,4.539,0,0,1,1174.337,910.914Z" transform="translate(-1169.321 -905.188)" fill="#486f25" opacity="0.7"/>
        </g>
      </g>
      <path id="Path_158" data-name="Path 158" d="M1199.314,892.078a.246.246,0,0,0-.032-.1,1.856,1.856,0,0,1-.127-.254,9.222,9.222,0,0,0-.6-.922,10.341,10.341,0,0,0-2.957-2.8,6.6,6.6,0,0,0-2.639-.954,6.492,6.492,0,0,0-3.211.35,5.368,5.368,0,0,0-2.766,2.257,17.326,17.326,0,0,0-1.208,3.624,6.086,6.086,0,0,1-.763,1.748,4.957,4.957,0,0,1-1.3,1.272,17.426,17.426,0,0,0-1.462,1.081,6.764,6.764,0,0,0-1.208,1.3,8.28,8.28,0,0,0-1.24,2.988,10.356,10.356,0,0,0-.159,2.8,21.168,21.168,0,0,0,.731,4.006q.191.715.286,1.049a1.8,1.8,0,0,0,.127.382c-.032-.127-.032-.254-.063-.382-.064-.254-.159-.636-.254-1.081a24.06,24.06,0,0,1-.636-3.974,10.146,10.146,0,0,1,.191-2.766,7.625,7.625,0,0,1,1.208-2.925,6.1,6.1,0,0,1,1.145-1.24,17.18,17.18,0,0,1,1.462-1.049,5.458,5.458,0,0,0,1.367-1.335,6.8,6.8,0,0,0,.795-1.78,17.007,17.007,0,0,1,1.176-3.592,4.916,4.916,0,0,1,2.639-2.162,6.484,6.484,0,0,1,3.115-.35,6.917,6.917,0,0,1,2.607.922,10.431,10.431,0,0,1,2.957,2.7c.286.382.509.7.636.89A1.113,1.113,0,0,1,1199.314,892.078Z" transform="translate(-885.228 -783.227)" fill="#6fa340"/>
      <path id="Path_159" data-name="Path 159" d="M1190.426,917.7a3.769,3.769,0,0,1,1.939.6,5.053,5.053,0,0,1,1.653,2.48,5.312,5.312,0,0,1,.032,2.988,4,4,0,0,1-2.1-.477,4.391,4.391,0,0,1-1.59-1.462A4.092,4.092,0,0,1,1190.426,917.7Z" transform="translate(-892.203 -804.175)" fill="#6fa340"/>
      <g id="Group_26" data-name="Group 26" transform="translate(297.63 113.524)" opacity="0.7">
        <g id="Group_25" data-name="Group 25" transform="translate(0 0)" opacity="0.7">
          <path id="Path_160" data-name="Path 160" d="M1190.426,917.7a3.769,3.769,0,0,1,1.939.6,5.053,5.053,0,0,1,1.653,2.48,5.312,5.312,0,0,1,.032,2.988,4,4,0,0,1-2.1-.477,4.391,4.391,0,0,1-1.59-1.462A4.092,4.092,0,0,1,1190.426,917.7Z" transform="translate(-1189.833 -917.699)" fill="#486f25" opacity="0.7"/>
        </g>
      </g>
      <path id="Path_161" data-name="Path 161" d="M1234.7,896.168c.191-.445.413-.318.859-.413a2.844,2.844,0,0,1,1.367.032,5.228,5.228,0,0,1,2.575,1.526,5.154,5.154,0,0,1,1.3,2.67,4.082,4.082,0,0,1-4.164-.191,4.125,4.125,0,0,1-1.844-3.751" transform="translate(-922.807 -789.161)" fill="#6fa340"/>
      <path id="Path_162" data-name="Path 162" d="M1180.386,940.911a4.763,4.763,0,0,1,1.717-1.24,4.654,4.654,0,0,1,4.1.191,4.416,4.416,0,0,1,1.558,1.4,5.53,5.53,0,0,1-7.661-.032" transform="translate(-885.564 -818.899)" fill="#6fa340"/>
      <path id="Path_163" data-name="Path 163" d="M1186.39,890.813a4.679,4.679,0,0,1-2.1.286,4.938,4.938,0,0,1-2-.636,4.692,4.692,0,0,1-1.526-1.431,4.565,4.565,0,0,1-.763-1.971,4.317,4.317,0,0,1,2.162-.667,4.09,4.09,0,0,1,2.193.54,4.323,4.323,0,0,1,1.621,1.589,4.429,4.429,0,0,1,.572,2.193" transform="translate(-885.496 -782.819)" fill="#6fa340"/>
      <path id="Path_164" data-name="Path 164" d="M1204.959,891.844a4.745,4.745,0,0,1,2.1-.286,4.938,4.938,0,0,1,2,.636,4.476,4.476,0,0,1,1.526,1.463,4.562,4.562,0,0,1,.763,1.971,4.322,4.322,0,0,1-2.162.668,4.09,4.09,0,0,1-2.194-.541,4.324,4.324,0,0,1-1.621-1.589,4.432,4.432,0,0,1-.572-2.193" transform="translate(-902.412 -786.331)" fill="#6fa340"/>
      <path id="Path_165" data-name="Path 165" d="M1204.562,873.392a4.673,4.673,0,0,1-1.812-1.113,5.037,5.037,0,0,1-1.144-1.78,4.722,4.722,0,0,1-.254-2.1,4.541,4.541,0,0,1,.667-2,4.266,4.266,0,0,1,2.1.89,4.163,4.163,0,0,1,1.335,1.812,4.517,4.517,0,0,1,.223,2.257,4.029,4.029,0,0,1-.954,2.035" transform="translate(-900.044 -769.183)" fill="#6fa340"/>
      <path id="Path_166" data-name="Path 166" d="M1226.776,875.46a4.309,4.309,0,0,1-.254-2.1,4.979,4.979,0,0,1,.667-2,4.827,4.827,0,0,1,3.5-2.257,4.074,4.074,0,0,1,.6,2.194,4.431,4.431,0,0,1-.572,2.194,4.323,4.323,0,0,1-1.621,1.589,4.4,4.4,0,0,1-2.194.541" transform="translate(-917.204 -771.027)" fill="#6fa340"/>
      <g id="Group_48" data-name="Group 48" transform="translate(274.476 113.302)" opacity="0.7">
        <g id="Group_47" data-name="Group 47" transform="translate(0 0)" opacity="0.7">
          <g id="Group_38" data-name="Group 38" transform="translate(1.621 4.386)" opacity="0.7">
            <g id="Group_37" data-name="Group 37" opacity="0.7">
              <g id="Group_28" data-name="Group 28" transform="translate(9.442 2.762)" opacity="0.7">
                <g id="Group_27" data-name="Group 27" opacity="0.7">
                  <path id="Path_167" data-name="Path 167" d="M1157.109,942.606a3.6,3.6,0,0,1-1.685.6,3.309,3.309,0,0,1-1.749-.318,3.711,3.711,0,0,1-1.875-2.956,4.574,4.574,0,0,1,1.685-.445,3.916,3.916,0,0,1,1.717.286,4.532,4.532,0,0,1,1.4,1.017,4.033,4.033,0,0,1,.858,1.526" transform="translate(-1151.8 -939.484)" fill="#486f25" opacity="0.7"/>
                </g>
              </g>
              <g id="Group_30" data-name="Group 30" transform="translate(0 6.417)" opacity="0.7">
                <g id="Group_29" data-name="Group 29" opacity="0.7">
                  <path id="Path_168" data-name="Path 168" d="M1127.409,954.106a3.6,3.6,0,0,1-1.685.6,3.309,3.309,0,0,1-1.749-.318,3.488,3.488,0,0,1-1.3-1.24,4.073,4.073,0,0,1-.572-1.716,4.573,4.573,0,0,1,1.685-.445,3.99,3.99,0,0,1,1.717.286,4.533,4.533,0,0,1,1.4,1.017,4.035,4.035,0,0,1,.858,1.526" transform="translate(-1122.1 -950.984)" fill="#486f25" opacity="0.7"/>
                </g>
              </g>
              <g id="Group_32" data-name="Group 32" transform="translate(4.737)" opacity="0.7">
                <g id="Group_31" data-name="Group 31" opacity="0.7">
                  <path id="Path_169" data-name="Path 169" d="M1142.881,932.2a3.336,3.336,0,0,1-1.081,1.4,3.378,3.378,0,0,1-1.621.7,3.848,3.848,0,0,1-1.781-.318,3.693,3.693,0,0,1-1.4-1.113,4.087,4.087,0,0,1,1.145-1.3,4.2,4.2,0,0,1,1.59-.7,4.049,4.049,0,0,1,3.306.858" transform="translate(-1137 -930.797)" fill="#486f25" opacity="0.7"/>
                </g>
              </g>
              <g id="Group_34" data-name="Group 34" transform="translate(6.576 5.624)" opacity="0.7">
                <g id="Group_33" data-name="Group 33" opacity="0.7">
                  <path id="Path_170" data-name="Path 170" d="M1143.395,948.493a3.67,3.67,0,0,1,1.748.35,3.39,3.39,0,0,1,1.335,1.176,3.667,3.667,0,0,1,.063,3.5,4.63,4.63,0,0,1-1.685-.477,4.194,4.194,0,0,1-1.335-1.144,3.666,3.666,0,0,1-.667-1.621,4.625,4.625,0,0,1,.031-1.748" transform="translate(-1142.786 -948.488)" fill="#486f25" opacity="0.7"/>
                </g>
              </g>
              <g id="Group_36" data-name="Group 36" transform="translate(0.342 12.114)" opacity="0.7">
                <g id="Group_35" data-name="Group 35" opacity="0.7">
                  <path id="Path_171" data-name="Path 171" d="M1126.68,969.061a3.6,3.6,0,0,1,.413,1.717,3.712,3.712,0,0,1-.509,1.717,3.756,3.756,0,0,1-1.367,1.176,4.163,4.163,0,0,1-1.78.381,4.155,4.155,0,0,1,.222-3.4,3.873,3.873,0,0,1,2.734-1.749" transform="translate(-1123.176 -968.902)" fill="#486f25" opacity="0.7"/>
                </g>
              </g>
            </g>
          </g>
          <g id="Group_42" data-name="Group 42" opacity="0.7">
            <g id="Group_41" data-name="Group 41" opacity="0.7">
              <g id="Group_40" data-name="Group 40" opacity="0.7">
                <g id="Group_39" data-name="Group 39" opacity="0.7">
                  <path id="Path_172" data-name="Path 172" d="M1117,934.421a2.014,2.014,0,0,1,.827-.509,3.276,3.276,0,0,1,1.113-.191,12.287,12.287,0,0,1,1.526.1,4.158,4.158,0,0,0,1.876-.159,2.981,2.981,0,0,0,1.558-1.494,9.482,9.482,0,0,0,.667-2.289,6.876,6.876,0,0,1,.795-2.352,8.433,8.433,0,0,1,1.749-1.78,7.552,7.552,0,0,0,1.653-1.685,5.571,5.571,0,0,0,.826-3.878,5.488,5.488,0,0,0-1.017-2.48c-.159-.191-.318-.381-.477-.54a.841.841,0,0,0-.191-.159.832.832,0,0,0,.159.191,3.925,3.925,0,0,1,.445.572,5.349,5.349,0,0,1,.922,2.48,5.421,5.421,0,0,1-.858,3.751,8.144,8.144,0,0,1-1.653,1.653,8.033,8.033,0,0,0-1.78,1.812,7.026,7.026,0,0,0-.826,2.416,7.761,7.761,0,0,1-.636,2.225,2.676,2.676,0,0,1-1.431,1.4,3.886,3.886,0,0,1-1.812.159,12.27,12.27,0,0,0-1.526-.063,2.858,2.858,0,0,0-1.144.254,1.991,1.991,0,0,0-.636.413.7.7,0,0,0-.127.159Z" transform="translate(-1117 -917)" fill="#fff" opacity="0.7"/>
                </g>
              </g>
            </g>
          </g>
          <g id="Group_46" data-name="Group 46" opacity="0.7">
            <g id="Group_45" data-name="Group 45" opacity="0.7">
              <g id="Group_44" data-name="Group 44" opacity="0.7">
                <g id="Group_43" data-name="Group 43" opacity="0.7">
                  <path id="Path_173" data-name="Path 173" d="M1117,934.421a2.014,2.014,0,0,1,.827-.509,3.276,3.276,0,0,1,1.113-.191,12.287,12.287,0,0,1,1.526.1,4.158,4.158,0,0,0,1.876-.159,2.981,2.981,0,0,0,1.558-1.494,9.482,9.482,0,0,0,.667-2.289,6.876,6.876,0,0,1,.795-2.352,8.433,8.433,0,0,1,1.749-1.78,7.552,7.552,0,0,0,1.653-1.685,5.571,5.571,0,0,0,.826-3.878,5.488,5.488,0,0,0-1.017-2.48c-.159-.191-.318-.381-.477-.54a.841.841,0,0,0-.191-.159.832.832,0,0,0,.159.191,3.925,3.925,0,0,1,.445.572,5.349,5.349,0,0,1,.922,2.48,5.421,5.421,0,0,1-.858,3.751,8.144,8.144,0,0,1-1.653,1.653,8.033,8.033,0,0,0-1.78,1.812,7.026,7.026,0,0,0-.826,2.416,7.761,7.761,0,0,1-.636,2.225,2.676,2.676,0,0,1-1.431,1.4,3.886,3.886,0,0,1-1.812.159,12.27,12.27,0,0,0-1.526-.063,2.858,2.858,0,0,0-1.144.254,1.991,1.991,0,0,0-.636.413.7.7,0,0,0-.127.159Z" transform="translate(-1117 -917)" fill="#21252b" opacity="0.7"/>
                </g>
              </g>
            </g>
          </g>
        </g>
      </g>
      <g id="Group_66" data-name="Group 66" transform="translate(294.379 97.216)" opacity="0.7">
        <g id="Group_65" data-name="Group 65" transform="translate(0 0)" opacity="0.7">
          <g id="Group_50" data-name="Group 50" transform="translate(17.514 9.31)" opacity="0.7">
            <g id="Group_49" data-name="Group 49" opacity="0.7">
              <path id="Path_174" data-name="Path 174" d="M1234.7,896.164c.191-.445.413-.318.859-.413a2.845,2.845,0,0,1,1.367.032,5.229,5.229,0,0,1,2.575,1.526,5.155,5.155,0,0,1,1.3,2.67,4.081,4.081,0,0,1-4.164-.191,4.124,4.124,0,0,1-1.844-3.751" transform="translate(-1234.7 -895.683)" fill="#486f25" opacity="0.7"/>
            </g>
          </g>
          <g id="Group_52" data-name="Group 52" transform="translate(0.157 23.171)" opacity="0.7">
            <g id="Group_51" data-name="Group 51" opacity="0.7">
              <path id="Path_175" data-name="Path 175" d="M1180.386,940.911a4.763,4.763,0,0,1,1.717-1.24,4.654,4.654,0,0,1,4.1.191,4.416,4.416,0,0,1,1.558,1.4,5.53,5.53,0,0,1-7.661-.032" transform="translate(-1180.1 -939.285)" fill="#486f25" opacity="0.7"/>
            </g>
          </g>
          <g id="Group_54" data-name="Group 54" transform="translate(0.125 6.354)" opacity="0.7">
            <g id="Group_53" data-name="Group 53" opacity="0.7">
              <path id="Path_176" data-name="Path 176" d="M1186.39,890.808a4.681,4.681,0,0,1-2.1.286,4.94,4.94,0,0,1-2-.636,4.693,4.693,0,0,1-1.526-1.43,4.565,4.565,0,0,1-.763-1.971,4.319,4.319,0,0,1,2.162-.668,4.093,4.093,0,0,1,2.193.541,4.322,4.322,0,0,1,1.621,1.59,4.428,4.428,0,0,1,.572,2.193" transform="translate(-1180 -886.386)" fill="#486f25" opacity="0.7"/>
            </g>
          </g>
          <g id="Group_56" data-name="Group 56" transform="translate(8.009 7.992)" opacity="0.7">
            <g id="Group_55" data-name="Group 55" opacity="0.7">
              <path id="Path_177" data-name="Path 177" d="M1204.959,891.844a4.745,4.745,0,0,1,2.1-.286,4.938,4.938,0,0,1,2,.636,4.476,4.476,0,0,1,1.526,1.463,4.562,4.562,0,0,1,.763,1.971,4.322,4.322,0,0,1-2.162.668,4.09,4.09,0,0,1-2.194-.541,4.324,4.324,0,0,1-1.621-1.589,4.432,4.432,0,0,1-.572-2.193" transform="translate(-1204.8 -891.539)" fill="#486f25" opacity="0.7"/>
            </g>
          </g>
          <g id="Group_58" data-name="Group 58" transform="translate(6.905)" opacity="0.7">
            <g id="Group_57" data-name="Group 57" opacity="0.7">
              <path id="Path_178" data-name="Path 178" d="M1204.562,873.392a4.673,4.673,0,0,1-1.812-1.113,5.037,5.037,0,0,1-1.144-1.78,4.722,4.722,0,0,1-.254-2.1,4.541,4.541,0,0,1,.667-2,4.266,4.266,0,0,1,2.1.89,4.163,4.163,0,0,1,1.335,1.812,4.517,4.517,0,0,1,.223,2.257,4.029,4.029,0,0,1-.954,2.035" transform="translate(-1201.328 -866.398)" fill="#486f25" opacity="0.7"/>
            </g>
          </g>
          <g id="Group_60" data-name="Group 60" transform="translate(14.903 0.858)" opacity="0.7">
            <g id="Group_59" data-name="Group 59" opacity="0.7">
              <path id="Path_179" data-name="Path 179" d="M1226.776,875.456a4.31,4.31,0,0,1-.254-2.1,4.98,4.98,0,0,1,.667-2,4.826,4.826,0,0,1,3.5-2.257,4.074,4.074,0,0,1,.6,2.194,4.43,4.43,0,0,1-.572,2.193,4.321,4.321,0,0,1-1.621,1.589,4.4,4.4,0,0,1-2.194.541" transform="translate(-1226.486 -869.098)" fill="#486f25" opacity="0.7"/>
            </g>
          </g>
          <g id="Group_64" data-name="Group 64" transform="translate(0 6.546)" opacity="0.7">
            <g id="Group_63" data-name="Group 63" opacity="0.7">
              <g id="Group_62" data-name="Group 62" opacity="0.7">
                <g id="Group_61" data-name="Group 61" opacity="0.7">
                  <path id="Path_180" data-name="Path 180" d="M1199.314,892.078a.246.246,0,0,0-.032-.1,1.856,1.856,0,0,1-.127-.254,9.222,9.222,0,0,0-.6-.922,10.341,10.341,0,0,0-2.957-2.8,6.6,6.6,0,0,0-2.639-.954,6.492,6.492,0,0,0-3.211.35,5.368,5.368,0,0,0-2.766,2.257,17.326,17.326,0,0,0-1.208,3.624,6.086,6.086,0,0,1-.763,1.748,4.957,4.957,0,0,1-1.3,1.272,17.426,17.426,0,0,0-1.462,1.081,6.764,6.764,0,0,0-1.208,1.3,8.28,8.28,0,0,0-1.24,2.988,10.356,10.356,0,0,0-.159,2.8,21.168,21.168,0,0,0,.731,4.006q.191.715.286,1.049a1.8,1.8,0,0,0,.127.382c-.032-.127-.032-.254-.063-.382-.064-.254-.159-.636-.254-1.081a24.06,24.06,0,0,1-.636-3.974,10.146,10.146,0,0,1,.191-2.766,7.625,7.625,0,0,1,1.208-2.925,6.1,6.1,0,0,1,1.145-1.24,17.18,17.18,0,0,1,1.462-1.049,5.458,5.458,0,0,0,1.367-1.335,6.8,6.8,0,0,0,.795-1.78,17.007,17.007,0,0,1,1.176-3.592,4.916,4.916,0,0,1,2.639-2.162,6.484,6.484,0,0,1,3.115-.35,6.917,6.917,0,0,1,2.607.922,10.431,10.431,0,0,1,2.957,2.7c.286.382.509.7.636.89A1.113,1.113,0,0,1,1199.314,892.078Z" transform="translate(-1179.606 -886.989)" fill="#21252b" opacity="0.7"/>
                </g>
              </g>
            </g>
          </g>
        </g>
      </g>
      <path id="Path_181" data-name="Path 181" d="M384.057,969.9H373.726a2.68,2.68,0,0,1-1.113-.223,3.134,3.134,0,0,1-.954-.636,2.947,2.947,0,0,1-.636-.954,2.678,2.678,0,0,1-.222-1.113V950h16.181v17.008a2.988,2.988,0,0,1-2.925,2.893Z" transform="translate(-333.543 -826.207)" fill="#61656d"/>
      <path id="Path_182" data-name="Path 182" d="M424.143,969.063H421.6v-1.24h2.543a1.194,1.194,0,0,0,1.176-1.176v-6.93a1.195,1.195,0,0,0-1.176-1.176H421.6V957.3h2.543a2.388,2.388,0,0,1,2.384,2.384v6.93a2.257,2.257,0,0,1-.159.922,2.611,2.611,0,0,1-.509.795,2.294,2.294,0,0,1-1.717.731Z" transform="translate(-368.193 -831.187)" fill="#61656d"/>
      <path id="Path_183" data-name="Path 183" d="M390.482,953.425v-1.24H389.37V949.8h-3.529v16.721a2.475,2.475,0,0,1-.191.985,2.63,2.63,0,0,1-1.431,1.431,2.715,2.715,0,0,1-.986.191H374.3a2.86,2.86,0,0,0,1.812.636h10.364a2.676,2.676,0,0,0,1.113-.222,3.128,3.128,0,0,0,.954-.636,2.945,2.945,0,0,0,.636-.954,2.677,2.677,0,0,0,.223-1.113v-2.924h1.113v-1.24H389.4v-9.251h1.081Z" transform="translate(-335.93 -826.072)" fill="#3f4249"/>
      <path id="Path_184" data-name="Path 184" d="M374.149,917.655h-.064a.111.111,0,0,1-.064-.032c-.032-.032-.032-.032-.032-.063V917.5a2.715,2.715,0,0,0-.827-1.971,2.768,2.768,0,0,0-1.971-.827h-1.367a2.675,2.675,0,0,1-.858-.127,1.822,1.822,0,0,1-.731-.477,1.722,1.722,0,0,1-.477-.7,1.966,1.966,0,0,1-.159-.858,2.726,2.726,0,0,1,.159-.858,1.827,1.827,0,0,1,.477-.7,2.9,2.9,0,0,1,.731-.477,2.02,2.02,0,0,1,.858-.127h7.693a1.81,1.81,0,0,0,.7-.127,2.416,2.416,0,0,0,.6-.381,1.888,1.888,0,0,0,.413-.572,1.71,1.71,0,0,0,.127-.7,2.482,2.482,0,0,0-.127-.7,1.472,1.472,0,0,0-.413-.572,1.956,1.956,0,0,0-.6-.381,1.812,1.812,0,0,0-.7-.127h-1.844a2.723,2.723,0,0,1-.858-.159,2.629,2.629,0,0,1-.731-.477,1.946,1.946,0,0,1-.477-.731,2.426,2.426,0,0,1-.159-.858.165.165,0,0,1,.064-.127.241.241,0,0,1,.127-.064.225.225,0,0,1,.191.191,1.726,1.726,0,0,0,.509,1.272,2.247,2.247,0,0,0,.572.381,1.71,1.71,0,0,0,.7.127h1.844a2.162,2.162,0,0,1,0,4.323h-7.693a1.755,1.755,0,0,0-1.24.509,1.812,1.812,0,0,0-.509,1.24,1.755,1.755,0,0,0,.509,1.24,1.813,1.813,0,0,0,1.24.509h1.367a3.177,3.177,0,0,1,2.257.954,3.233,3.233,0,0,1,.954,2.257v.064c0,.032-.032.032-.032.064-.032.032-.032.032-.064.032C374.181,917.655,374.181,917.655,374.149,917.655Z" transform="translate(-331.359 -795.102)" fill="#b2b6bb"/>
      <path id="Path_185" data-name="Path 185" d="M398.244,930.354h-.064a.111.111,0,0,1-.064-.032c-.032-.032-.032-.032-.032-.064v-.54a.652.652,0,0,0-.636-.636,1.863,1.863,0,0,1-.413-.064.955.955,0,0,1-.572-.572.872.872,0,0,1-.064-.413v-.858a1.862,1.862,0,0,1,.064-.413.956.956,0,0,1,.572-.572.872.872,0,0,1,.413-.064h1.272a3.283,3.283,0,0,0,2.257-.922,3.147,3.147,0,0,0,.922-2.257V921.39a.165.165,0,0,1,.064-.127.241.241,0,0,1,.127-.064.165.165,0,0,1,.127.064.241.241,0,0,1,.064.127v1.526a3.536,3.536,0,0,1-1.049,2.511,3.592,3.592,0,0,1-2.511,1.049h-1.272a.651.651,0,0,0-.636.636v.858a.652.652,0,0,0,.636.636,1.863,1.863,0,0,1,.413.064.956.956,0,0,1,.572.572.873.873,0,0,1,.064.413v.477c0,.064,0,.127-.064.159A.452.452,0,0,0,398.244,930.354Z" transform="translate(-351.004 -806.562)" fill="#b2b6bb"/>
    </g>
  </g>
</svg>
