<svg id="restore" xmlns="http://www.w3.org/2000/svg" width="24" height="24" viewBox="0 0 24 24">
  <rect id="Rectangle_228" data-name="Rectangle 228" width="24" height="24" fill="none"/>
  <path id="Path_1561" data-name="Path 1561" d="M15.5,13.5c0,2-2.5,3.5-2.5,5H11c0-1.5-2.5-3-2.5-5A3.5,3.5,0,0,1,12,10h0A3.5,3.5,0,0,1,15.5,13.5Zm-2.5,6H11V21h2ZM19,13a6.938,6.938,0,0,1-1.58,4.42l1.42,1.42a8.979,8.979,0,0,0-1-12.68L16.42,7.58A6.993,6.993,0,0,1,19,13ZM16,5,12,1V4h0A8.993,8.993,0,0,0,5.16,18.84l1.42-1.42A6.938,6.938,0,0,1,5,13a7.008,7.008,0,0,1,7-7h0V9Z" fill="#515db4"/>
</svg>
