<svg xmlns="http://www.w3.org/2000/svg" width="91.611" height="88.518" viewBox="0 0 91.611 88.518">
  <g id="ship" transform="translate(-0.777 0.001)">
    <path id="Path_1551" data-name="Path 1551" d="M17.771,65.942c-.788-2.04-1.537-4.34-2.549-6.52-1.818-3.914-3.8-7.754-5.7-11.628-.3-.6-.6-1.21-.846-1.836-1.2-3.009-.07-4.6,3.154-4.853,6.861-.527,13.714-1.176,20.57-1.775,2.483-.217,4.967-.438,7.7-.679.043-.852.122-1.63.114-2.407q-.167-15.8-.355-31.6c-.006-.54,0-1.081,0-1.623.012-1.2.213-2.3,1.486-2.839,1.2-.507,2.085.122,2.907.867q8.113,7.34,16.215,14.689c1.8,1.629,3.62,3.245,5.472,4.817,2.069,1.756,2.063,3.667-.321,5.022a28.092,28.092,0,0,1-5.937,2.515C54.517,29.6,49.292,30.915,43.8,32.386c-.077,1.637-.175,3.691-.277,5.837,2.262,0,4.464.052,6.663-.009q12.453-.344,24.9-.753c1.89-.06,3.777-.2,5.667-.247,3.355-.087,4.545,1.481,3.554,4.736-2.042,6.707-4.123,13.4-6.185,20.1-.156.5-.284,1.018-.489,1.759,4.387-.506,7.616,1.523,10.648,4.157A29.718,29.718,0,0,0,91.265,69.6c.553.374,1.3,1.083,1.253,1.57-.064.649-.76,1.672-1.29,1.744a7.017,7.017,0,0,1-3.633-.374,16.462,16.462,0,0,1-3.39-2.525c-3.539-2.88-5.95-2.829-9.269.219-.994.913-1.96,1.866-3,2.722a8.114,8.114,0,0,1-9.779.885A25.119,25.119,0,0,1,57.5,70.015c-1.82-1.821-3.06-2.4-5.38-1.251A23.456,23.456,0,0,0,46.668,72.5c-6.25,5.78-13.08,6.016-19.584.483a23.023,23.023,0,0,1-2.1-1.907,3.841,3.841,0,0,0-5.134-.815c-1.811,1.021-3.45,2.339-5.24,3.423A57.367,57.367,0,0,1,7.245,77.8a9.6,9.6,0,0,1-4.726.17,2.39,2.39,0,0,1-1.4-1.835c-.02-1.04,1.057-.937,1.883-.923A9.607,9.607,0,0,0,9.1,72.817C11.917,70.633,14.688,68.39,17.771,65.942Zm4.307-.611c2.593-.2,4.7,1.425,6.606,3.445.278.294.592.553.892.826,4.893,4.469,9.322,4.329,14.289-.114a25.865,25.865,0,0,1,6.516-4.326c3.975-1.782,7.035-.823,10.036,2.3a19.837,19.837,0,0,0,3.772,3,3.776,3.776,0,0,0,4.535-.4c1.426-1.082,2.63-2.24,2.819-4.217a14,14,0,0,1,1-3.275c1.205-3.364,2.508-6.693,3.642-10.081,1.233-3.683,2.319-7.415,3.488-11.184a479,479,0,0,0-65.992,3.83ZM44.571,6.375l-.584.257V27.541l18.23-4.931L44.571,6.377Z" transform="translate(-0.132)" fill="#dae6ce"/>
    <path id="Path_1552" data-name="Path 1552" d="M5.532,135a17.975,17.975,0,0,1-3.511-.8c-.565-.243-.839-1.162-1.244-1.776.584-.344,1.193-1.018,1.749-.978,4.584.331,8.234-1.615,11.588-4.44a27.055,27.055,0,0,1,3.247-2.412,9.11,9.11,0,0,1,10.3.156,25.511,25.511,0,0,1,2.409,1.844,14.4,14.4,0,0,0,7.156,3.1c2.872.414,5.395-.05,7.5-2.437a24.908,24.908,0,0,1,5.25-4.36,7.144,7.144,0,0,1,8.2.179,26.955,26.955,0,0,1,2.308,1.64,16.052,16.052,0,0,0,7.171,3.089,5.422,5.422,0,0,0,4.724-1.16c4.228-3.383,8.752-4.193,13.742-1.588a16.6,16.6,0,0,0,4.083,1.069c1.074.238,1.983.69,2.083,1.876a2.179,2.179,0,0,1-1.813,2.36,10.4,10.4,0,0,1-3.172.188,4.622,4.622,0,0,1-2.1-.7c-3.683-2.384-6.871-1.355-9.959,1.217a7.942,7.942,0,0,1-6.439,1.744,21.17,21.17,0,0,1-11.029-4.639c-2.8-2.35-4.025-2.323-6.923-.053a10.671,10.671,0,0,0-1.744,1.682c-3.324,4.143-7.739,4.827-12.615,4a18.953,18.953,0,0,1-8.766-3.941c-.633-.5-1.274-1-1.945-1.456a4.433,4.433,0,0,0-4.966-.324c-1.455.839-2.816,1.844-4.216,2.777C13.254,133.1,9.749,134.911,5.532,135Z" transform="translate(0 -46.483)" fill="#dae6ce"/>
  </g>
</svg>
