<svg xmlns="http://www.w3.org/2000/svg" xmlns:xlink="http://www.w3.org/1999/xlink" width="20" height="20" viewBox="0 0 20 20"><defs><clipPath id="a"><rect width="20" height="20" transform="translate(-2057 -108)" fill="#fff" stroke="#707070" stroke-width="1"/></clipPath></defs><g transform="translate(2057 108)" clip-path="url(#a)"><g transform="translate(-2057 -108)"><path d="M10,0A10,10,0,1,1,0,10,10,10,0,0,1,10,0Z" fill="#720e9e"/><path d="M14.579,7.894l.011,0,.331-.369H14.9l.035-.055H10.3l.179.635h1.266L9.612,10.074c-.435-.634-1.454-2.092-2.166-3.186H8.769v-.45l.018-.129-.018,0V6.253H3.751v.634H5.32A33.875,33.875,0,0,1,8.667,10.9a9.615,9.615,0,0,1-.02,2.108c-.137.2-1.566.091-1.818.109l-.009.622c.46.014,1.84,0,2.306,0,.917,0,2.524-.024,2.751-.006l.028-.589-1.847-.028a20.057,20.057,0,0,1-.042-2.135,15.1,15.1,0,0,1,3.3-2.822l.274-.062h.856Zm-.693,4.4.8.061.936-3.431c-.156-.006-1.576-.133-1.76-.167Zm-.139.55,0,.838.406.034.439.031.129-.82-.463-.021Z" fill="#fff"/></g></g></svg>